<?xml version="1.0" encoding="utf-8" standalone="no"?>
<!DOCTYPE svg PUBLIC "-//W3C//DTD SVG 1.1//EN"
  "http://www.w3.org/Graphics/SVG/1.1/DTD/svg11.dtd">
<svg xmlns:xlink="http://www.w3.org/1999/xlink" width="1421.751973pt" height="511.941849pt" viewBox="0 0 1421.751973 511.941849" xmlns="http://www.w3.org/2000/svg" version="1.1">
 <metadata>
  <rdf:RDF xmlns:dc="http://purl.org/dc/elements/1.1/" xmlns:cc="http://creativecommons.org/ns#" xmlns:rdf="http://www.w3.org/1999/02/22-rdf-syntax-ns#">
   <cc:Work>
    <dc:type rdf:resource="http://purl.org/dc/dcmitype/StillImage"/>
    <dc:date>2026-05-03T18:41:24.819764</dc:date>
    <dc:format>image/svg+xml</dc:format>
    <dc:creator>
     <cc:Agent>
      <dc:title>Matplotlib v3.10.8, https://matplotlib.org/</dc:title>
     </cc:Agent>
    </dc:creator>
   </cc:Work>
  </rdf:RDF>
 </metadata>
 <defs>
  <style type="text/css">*{stroke-linejoin: round; stroke-linecap: butt}</style>
 </defs>
 <g id="figure_1">
  <g id="patch_1">
   <path d="M 0 511.941849 
L 1421.751973 511.941849 
L 1421.751973 0 
L 0 0 
z
" style="fill: #ffffff"/>
  </g>
  <g id="axes_1">
   <g id="patch_2">
    <path d="M 61.089973 429.950912 
L 623.475245 429.950912 
L 623.475245 91.11975 
L 61.089973 91.11975 
z
" style="fill: #ffffff"/>
   </g>
   <g id="matplotlib.axis_1">
    <g id="xtick_1">
     <g id="text_1">
      <!-- Wound -->
      <g style="fill: #262626" transform="translate(62.811824 473.239649) rotate(-30) scale(0.14025 -0.14025)">
       <defs>
        <path id="ArialMT-57" d="M 1294 0 
L 78 4581 
L 700 4581 
L 1397 1578 
Q 1509 1106 1591 641 
Q 1766 1375 1797 1488 
L 2669 4581 
L 3400 4581 
L 4056 2263 
Q 4303 1400 4413 641 
Q 4500 1075 4641 1638 
L 5359 4581 
L 5969 4581 
L 4713 0 
L 4128 0 
L 3163 3491 
Q 3041 3928 3019 4028 
Q 2947 3713 2884 3491 
L 1913 0 
L 1294 0 
z
" transform="scale(0.015625)"/>
        <path id="ArialMT-6f" d="M 213 1659 
Q 213 2581 725 3025 
Q 1153 3394 1769 3394 
Q 2453 3394 2887 2945 
Q 3322 2497 3322 1706 
Q 3322 1066 3130 698 
Q 2938 331 2570 128 
Q 2203 -75 1769 -75 
Q 1072 -75 642 372 
Q 213 819 213 1659 
z
M 791 1659 
Q 791 1022 1069 705 
Q 1347 388 1769 388 
Q 2188 388 2466 706 
Q 2744 1025 2744 1678 
Q 2744 2294 2464 2611 
Q 2184 2928 1769 2928 
Q 1347 2928 1069 2612 
Q 791 2297 791 1659 
z
" transform="scale(0.015625)"/>
        <path id="ArialMT-75" d="M 2597 0 
L 2597 488 
Q 2209 -75 1544 -75 
Q 1250 -75 995 37 
Q 741 150 617 320 
Q 494 491 444 738 
Q 409 903 409 1263 
L 409 3319 
L 972 3319 
L 972 1478 
Q 972 1038 1006 884 
Q 1059 663 1231 536 
Q 1403 409 1656 409 
Q 1909 409 2131 539 
Q 2353 669 2445 892 
Q 2538 1116 2538 1541 
L 2538 3319 
L 3100 3319 
L 3100 0 
L 2597 0 
z
" transform="scale(0.015625)"/>
        <path id="ArialMT-6e" d="M 422 0 
L 422 3319 
L 928 3319 
L 928 2847 
Q 1294 3394 1984 3394 
Q 2284 3394 2536 3286 
Q 2788 3178 2913 3003 
Q 3038 2828 3088 2588 
Q 3119 2431 3119 2041 
L 3119 0 
L 2556 0 
L 2556 2019 
Q 2556 2363 2490 2533 
Q 2425 2703 2258 2804 
Q 2091 2906 1866 2906 
Q 1506 2906 1245 2678 
Q 984 2450 984 1813 
L 984 0 
L 422 0 
z
" transform="scale(0.015625)"/>
        <path id="ArialMT-64" d="M 2575 0 
L 2575 419 
Q 2259 -75 1647 -75 
Q 1250 -75 917 144 
Q 584 363 401 755 
Q 219 1147 219 1656 
Q 219 2153 384 2558 
Q 550 2963 881 3178 
Q 1213 3394 1622 3394 
Q 1922 3394 2156 3267 
Q 2391 3141 2538 2938 
L 2538 4581 
L 3097 4581 
L 3097 0 
L 2575 0 
z
M 797 1656 
Q 797 1019 1065 703 
Q 1334 388 1700 388 
Q 2069 388 2326 689 
Q 2584 991 2584 1609 
Q 2584 2291 2321 2609 
Q 2059 2928 1675 2928 
Q 1300 2928 1048 2622 
Q 797 2316 797 1656 
z
" transform="scale(0.015625)"/>
       </defs>
       <use xlink:href="#ArialMT-57"/>
       <use xlink:href="#ArialMT-6f" transform="translate(92.634766 0)"/>
       <use xlink:href="#ArialMT-75" transform="translate(148.25 0)"/>
       <use xlink:href="#ArialMT-6e" transform="translate(203.865234 0)"/>
       <use xlink:href="#ArialMT-64" transform="translate(259.480469 0)"/>
      </g>
      <!-- Skin -->
      <g style="fill: #262626" transform="translate(84.870488 477.632978) rotate(-30) scale(0.14025 -0.14025)">
       <defs>
        <path id="ArialMT-53" d="M 288 1472 
L 859 1522 
Q 900 1178 1048 958 
Q 1197 738 1509 602 
Q 1822 466 2213 466 
Q 2559 466 2825 569 
Q 3091 672 3220 851 
Q 3350 1031 3350 1244 
Q 3350 1459 3225 1620 
Q 3100 1781 2813 1891 
Q 2628 1963 1997 2114 
Q 1366 2266 1113 2400 
Q 784 2572 623 2826 
Q 463 3081 463 3397 
Q 463 3744 659 4045 
Q 856 4347 1234 4503 
Q 1613 4659 2075 4659 
Q 2584 4659 2973 4495 
Q 3363 4331 3572 4012 
Q 3781 3694 3797 3291 
L 3216 3247 
Q 3169 3681 2898 3903 
Q 2628 4125 2100 4125 
Q 1550 4125 1298 3923 
Q 1047 3722 1047 3438 
Q 1047 3191 1225 3031 
Q 1400 2872 2139 2705 
Q 2878 2538 3153 2413 
Q 3553 2228 3743 1945 
Q 3934 1663 3934 1294 
Q 3934 928 3725 604 
Q 3516 281 3123 101 
Q 2731 -78 2241 -78 
Q 1619 -78 1198 103 
Q 778 284 539 648 
Q 300 1013 288 1472 
z
" transform="scale(0.015625)"/>
        <path id="ArialMT-6b" d="M 425 0 
L 425 4581 
L 988 4581 
L 988 1969 
L 2319 3319 
L 3047 3319 
L 1778 2088 
L 3175 0 
L 2481 0 
L 1384 1697 
L 988 1316 
L 988 0 
L 425 0 
z
" transform="scale(0.015625)"/>
        <path id="ArialMT-69" d="M 425 3934 
L 425 4581 
L 988 4581 
L 988 3934 
L 425 3934 
z
M 425 0 
L 425 3319 
L 988 3319 
L 988 0 
L 425 0 
z
" transform="scale(0.015625)"/>
       </defs>
       <use xlink:href="#ArialMT-53"/>
       <use xlink:href="#ArialMT-6b" transform="translate(66.699219 0)"/>
       <use xlink:href="#ArialMT-69" transform="translate(116.699219 0)"/>
       <use xlink:href="#ArialMT-6e" transform="translate(138.916016 0)"/>
      </g>
     </g>
    </g>
    <g id="xtick_2">
     <g id="text_2">
      <!-- Wound -->
      <g style="fill: #262626" transform="translate(120.909476 473.239649) rotate(-30) scale(0.14025 -0.14025)">
       <use xlink:href="#ArialMT-57"/>
       <use xlink:href="#ArialMT-6f" transform="translate(92.634766 0)"/>
       <use xlink:href="#ArialMT-75" transform="translate(148.25 0)"/>
       <use xlink:href="#ArialMT-6e" transform="translate(203.865234 0)"/>
       <use xlink:href="#ArialMT-64" transform="translate(259.480469 0)"/>
      </g>
      <!-- Wound1 -->
      <g style="fill: #262626" transform="translate(121.572191 489.985935) rotate(-30) scale(0.14025 -0.14025)">
       <defs>
        <path id="ArialMT-31" d="M 2384 0 
L 1822 0 
L 1822 3584 
Q 1619 3391 1289 3197 
Q 959 3003 697 2906 
L 697 3450 
Q 1169 3672 1522 3987 
Q 1875 4303 2022 4600 
L 2384 4600 
L 2384 0 
z
" transform="scale(0.015625)"/>
       </defs>
       <use xlink:href="#ArialMT-57"/>
       <use xlink:href="#ArialMT-6f" transform="translate(92.634766 0)"/>
       <use xlink:href="#ArialMT-75" transform="translate(148.25 0)"/>
       <use xlink:href="#ArialMT-6e" transform="translate(203.865234 0)"/>
       <use xlink:href="#ArialMT-64" transform="translate(259.480469 0)"/>
       <use xlink:href="#ArialMT-31" transform="translate(315.095703 0)"/>
      </g>
     </g>
    </g>
    <g id="xtick_3">
     <g id="text_3">
      <!-- Wound -->
      <g style="fill: #262626" transform="translate(179.007128 473.239649) rotate(-30) scale(0.14025 -0.14025)">
       <use xlink:href="#ArialMT-57"/>
       <use xlink:href="#ArialMT-6f" transform="translate(92.634766 0)"/>
       <use xlink:href="#ArialMT-75" transform="translate(148.25 0)"/>
       <use xlink:href="#ArialMT-6e" transform="translate(203.865234 0)"/>
       <use xlink:href="#ArialMT-64" transform="translate(259.480469 0)"/>
      </g>
      <!-- Wound7 -->
      <g style="fill: #262626" transform="translate(179.669843 489.985935) rotate(-30) scale(0.14025 -0.14025)">
       <defs>
        <path id="ArialMT-37" d="M 303 3981 
L 303 4522 
L 3269 4522 
L 3269 4084 
Q 2831 3619 2401 2847 
Q 1972 2075 1738 1259 
Q 1569 684 1522 0 
L 944 0 
Q 953 541 1156 1306 
Q 1359 2072 1739 2783 
Q 2119 3494 2547 3981 
L 303 3981 
z
" transform="scale(0.015625)"/>
       </defs>
       <use xlink:href="#ArialMT-57"/>
       <use xlink:href="#ArialMT-6f" transform="translate(92.634766 0)"/>
       <use xlink:href="#ArialMT-75" transform="translate(148.25 0)"/>
       <use xlink:href="#ArialMT-6e" transform="translate(203.865234 0)"/>
       <use xlink:href="#ArialMT-64" transform="translate(259.480469 0)"/>
       <use xlink:href="#ArialMT-37" transform="translate(315.095703 0)"/>
      </g>
     </g>
    </g>
    <g id="xtick_4">
     <g id="text_4">
      <!-- Wound -->
      <g style="fill: #262626" transform="translate(237.10478 473.239649) rotate(-30) scale(0.14025 -0.14025)">
       <use xlink:href="#ArialMT-57"/>
       <use xlink:href="#ArialMT-6f" transform="translate(92.634766 0)"/>
       <use xlink:href="#ArialMT-75" transform="translate(148.25 0)"/>
       <use xlink:href="#ArialMT-6e" transform="translate(203.865234 0)"/>
       <use xlink:href="#ArialMT-64" transform="translate(259.480469 0)"/>
      </g>
      <!-- Wound30 -->
      <g style="fill: #262626" transform="translate(231.013177 493.885543) rotate(-30) scale(0.14025 -0.14025)">
       <defs>
        <path id="ArialMT-33" d="M 269 1209 
L 831 1284 
Q 928 806 1161 595 
Q 1394 384 1728 384 
Q 2125 384 2398 659 
Q 2672 934 2672 1341 
Q 2672 1728 2419 1979 
Q 2166 2231 1775 2231 
Q 1616 2231 1378 2169 
L 1441 2663 
Q 1497 2656 1531 2656 
Q 1891 2656 2178 2843 
Q 2466 3031 2466 3422 
Q 2466 3731 2256 3934 
Q 2047 4138 1716 4138 
Q 1388 4138 1169 3931 
Q 950 3725 888 3313 
L 325 3413 
Q 428 3978 793 4289 
Q 1159 4600 1703 4600 
Q 2078 4600 2393 4439 
Q 2709 4278 2876 4000 
Q 3044 3722 3044 3409 
Q 3044 3113 2884 2869 
Q 2725 2625 2413 2481 
Q 2819 2388 3044 2092 
Q 3269 1797 3269 1353 
Q 3269 753 2831 336 
Q 2394 -81 1725 -81 
Q 1122 -81 723 278 
Q 325 638 269 1209 
z
" transform="scale(0.015625)"/>
        <path id="ArialMT-30" d="M 266 2259 
Q 266 3072 433 3567 
Q 600 4063 929 4331 
Q 1259 4600 1759 4600 
Q 2128 4600 2406 4451 
Q 2684 4303 2865 4023 
Q 3047 3744 3150 3342 
Q 3253 2941 3253 2259 
Q 3253 1453 3087 958 
Q 2922 463 2592 192 
Q 2263 -78 1759 -78 
Q 1097 -78 719 397 
Q 266 969 266 2259 
z
M 844 2259 
Q 844 1131 1108 757 
Q 1372 384 1759 384 
Q 2147 384 2411 759 
Q 2675 1134 2675 2259 
Q 2675 3391 2411 3762 
Q 2147 4134 1753 4134 
Q 1366 4134 1134 3806 
Q 844 3388 844 2259 
z
" transform="scale(0.015625)"/>
       </defs>
       <use xlink:href="#ArialMT-57"/>
       <use xlink:href="#ArialMT-6f" transform="translate(92.634766 0)"/>
       <use xlink:href="#ArialMT-75" transform="translate(148.25 0)"/>
       <use xlink:href="#ArialMT-6e" transform="translate(203.865234 0)"/>
       <use xlink:href="#ArialMT-64" transform="translate(259.480469 0)"/>
       <use xlink:href="#ArialMT-33" transform="translate(315.095703 0)"/>
       <use xlink:href="#ArialMT-30" transform="translate(370.710938 0)"/>
      </g>
     </g>
    </g>
    <g id="xtick_5">
     <g id="text_5">
      <!-- Direder -->
      <g style="fill: #262626" transform="translate(293.567843 474.135934) rotate(-30) scale(0.14025 -0.14025)">
       <defs>
        <path id="ArialMT-44" d="M 494 0 
L 494 4581 
L 2072 4581 
Q 2606 4581 2888 4516 
Q 3281 4425 3559 4188 
Q 3922 3881 4101 3404 
Q 4281 2928 4281 2316 
Q 4281 1794 4159 1391 
Q 4038 988 3847 723 
Q 3656 459 3429 307 
Q 3203 156 2883 78 
Q 2563 0 2147 0 
L 494 0 
z
M 1100 541 
L 2078 541 
Q 2531 541 2789 625 
Q 3047 709 3200 863 
Q 3416 1078 3536 1442 
Q 3656 1806 3656 2325 
Q 3656 3044 3420 3430 
Q 3184 3816 2847 3947 
Q 2603 4041 2063 4041 
L 1100 4041 
L 1100 541 
z
" transform="scale(0.015625)"/>
        <path id="ArialMT-72" d="M 416 0 
L 416 3319 
L 922 3319 
L 922 2816 
Q 1116 3169 1280 3281 
Q 1444 3394 1641 3394 
Q 1925 3394 2219 3213 
L 2025 2691 
Q 1819 2813 1613 2813 
Q 1428 2813 1281 2702 
Q 1134 2591 1072 2394 
Q 978 2094 978 1738 
L 978 0 
L 416 0 
z
" transform="scale(0.015625)"/>
        <path id="ArialMT-65" d="M 2694 1069 
L 3275 997 
Q 3138 488 2766 206 
Q 2394 -75 1816 -75 
Q 1088 -75 661 373 
Q 234 822 234 1631 
Q 234 2469 665 2931 
Q 1097 3394 1784 3394 
Q 2450 3394 2872 2941 
Q 3294 2488 3294 1666 
Q 3294 1616 3291 1516 
L 816 1516 
Q 847 969 1125 678 
Q 1403 388 1819 388 
Q 2128 388 2347 550 
Q 2566 713 2694 1069 
z
M 847 1978 
L 2700 1978 
Q 2663 2397 2488 2606 
Q 2219 2931 1791 2931 
Q 1403 2931 1139 2672 
Q 875 2413 847 1978 
z
" transform="scale(0.015625)"/>
       </defs>
       <use xlink:href="#ArialMT-44"/>
       <use xlink:href="#ArialMT-69" transform="translate(72.216797 0)"/>
       <use xlink:href="#ArialMT-72" transform="translate(94.433594 0)"/>
       <use xlink:href="#ArialMT-65" transform="translate(127.734375 0)"/>
       <use xlink:href="#ArialMT-64" transform="translate(183.349609 0)"/>
       <use xlink:href="#ArialMT-65" transform="translate(238.964844 0)"/>
       <use xlink:href="#ArialMT-72" transform="translate(294.580078 0)"/>
      </g>
      <!-- Healthy skin -->
      <g style="fill: #262626" transform="translate(274.652715 502.185494) rotate(-30) scale(0.14025 -0.14025)">
       <defs>
        <path id="ArialMT-48" d="M 513 0 
L 513 4581 
L 1119 4581 
L 1119 2700 
L 3500 2700 
L 3500 4581 
L 4106 4581 
L 4106 0 
L 3500 0 
L 3500 2159 
L 1119 2159 
L 1119 0 
L 513 0 
z
" transform="scale(0.015625)"/>
        <path id="ArialMT-61" d="M 2588 409 
Q 2275 144 1986 34 
Q 1697 -75 1366 -75 
Q 819 -75 525 192 
Q 231 459 231 875 
Q 231 1119 342 1320 
Q 453 1522 633 1644 
Q 813 1766 1038 1828 
Q 1203 1872 1538 1913 
Q 2219 1994 2541 2106 
Q 2544 2222 2544 2253 
Q 2544 2597 2384 2738 
Q 2169 2928 1744 2928 
Q 1347 2928 1158 2789 
Q 969 2650 878 2297 
L 328 2372 
Q 403 2725 575 2942 
Q 747 3159 1072 3276 
Q 1397 3394 1825 3394 
Q 2250 3394 2515 3294 
Q 2781 3194 2906 3042 
Q 3031 2891 3081 2659 
Q 3109 2516 3109 2141 
L 3109 1391 
Q 3109 606 3145 398 
Q 3181 191 3288 0 
L 2700 0 
Q 2613 175 2588 409 
z
M 2541 1666 
Q 2234 1541 1622 1453 
Q 1275 1403 1131 1340 
Q 988 1278 909 1158 
Q 831 1038 831 891 
Q 831 666 1001 516 
Q 1172 366 1500 366 
Q 1825 366 2078 508 
Q 2331 650 2450 897 
Q 2541 1088 2541 1459 
L 2541 1666 
z
" transform="scale(0.015625)"/>
        <path id="ArialMT-6c" d="M 409 0 
L 409 4581 
L 972 4581 
L 972 0 
L 409 0 
z
" transform="scale(0.015625)"/>
        <path id="ArialMT-74" d="M 1650 503 
L 1731 6 
Q 1494 -44 1306 -44 
Q 1000 -44 831 53 
Q 663 150 594 308 
Q 525 466 525 972 
L 525 2881 
L 113 2881 
L 113 3319 
L 525 3319 
L 525 4141 
L 1084 4478 
L 1084 3319 
L 1650 3319 
L 1650 2881 
L 1084 2881 
L 1084 941 
Q 1084 700 1114 631 
Q 1144 563 1211 522 
Q 1278 481 1403 481 
Q 1497 481 1650 503 
z
" transform="scale(0.015625)"/>
        <path id="ArialMT-68" d="M 422 0 
L 422 4581 
L 984 4581 
L 984 2938 
Q 1378 3394 1978 3394 
Q 2347 3394 2619 3248 
Q 2891 3103 3008 2847 
Q 3125 2591 3125 2103 
L 3125 0 
L 2563 0 
L 2563 2103 
Q 2563 2525 2380 2717 
Q 2197 2909 1863 2909 
Q 1613 2909 1392 2779 
Q 1172 2650 1078 2428 
Q 984 2206 984 1816 
L 984 0 
L 422 0 
z
" transform="scale(0.015625)"/>
        <path id="ArialMT-79" d="M 397 -1278 
L 334 -750 
Q 519 -800 656 -800 
Q 844 -800 956 -737 
Q 1069 -675 1141 -563 
Q 1194 -478 1313 -144 
Q 1328 -97 1363 -6 
L 103 3319 
L 709 3319 
L 1400 1397 
Q 1534 1031 1641 628 
Q 1738 1016 1872 1384 
L 2581 3319 
L 3144 3319 
L 1881 -56 
Q 1678 -603 1566 -809 
Q 1416 -1088 1222 -1217 
Q 1028 -1347 759 -1347 
Q 597 -1347 397 -1278 
z
" transform="scale(0.015625)"/>
        <path id="ArialMT-20" transform="scale(0.015625)"/>
        <path id="ArialMT-73" d="M 197 991 
L 753 1078 
Q 800 744 1014 566 
Q 1228 388 1613 388 
Q 2000 388 2187 545 
Q 2375 703 2375 916 
Q 2375 1106 2209 1216 
Q 2094 1291 1634 1406 
Q 1016 1563 777 1677 
Q 538 1791 414 1992 
Q 291 2194 291 2438 
Q 291 2659 392 2848 
Q 494 3038 669 3163 
Q 800 3259 1026 3326 
Q 1253 3394 1513 3394 
Q 1903 3394 2198 3281 
Q 2494 3169 2634 2976 
Q 2775 2784 2828 2463 
L 2278 2388 
Q 2241 2644 2061 2787 
Q 1881 2931 1553 2931 
Q 1166 2931 1000 2803 
Q 834 2675 834 2503 
Q 834 2394 903 2306 
Q 972 2216 1119 2156 
Q 1203 2125 1616 2013 
Q 2213 1853 2448 1751 
Q 2684 1650 2818 1456 
Q 2953 1263 2953 975 
Q 2953 694 2789 445 
Q 2625 197 2315 61 
Q 2006 -75 1616 -75 
Q 969 -75 630 194 
Q 291 463 197 991 
z
" transform="scale(0.015625)"/>
       </defs>
       <use xlink:href="#ArialMT-48"/>
       <use xlink:href="#ArialMT-65" transform="translate(72.216797 0)"/>
       <use xlink:href="#ArialMT-61" transform="translate(127.832031 0)"/>
       <use xlink:href="#ArialMT-6c" transform="translate(183.447266 0)"/>
       <use xlink:href="#ArialMT-74" transform="translate(205.664062 0)"/>
       <use xlink:href="#ArialMT-68" transform="translate(233.447266 0)"/>
       <use xlink:href="#ArialMT-79" transform="translate(289.0625 0)"/>
       <use xlink:href="#ArialMT-20" transform="translate(339.0625 0)"/>
       <use xlink:href="#ArialMT-73" transform="translate(366.845703 0)"/>
       <use xlink:href="#ArialMT-6b" transform="translate(416.845703 0)"/>
       <use xlink:href="#ArialMT-69" transform="translate(466.845703 0)"/>
       <use xlink:href="#ArialMT-6e" transform="translate(489.0625 0)"/>
      </g>
     </g>
    </g>
    <g id="xtick_6">
     <g id="text_6">
      <!-- Direder -->
      <g style="fill: #262626" transform="translate(351.747673 474.135934) rotate(-30) scale(0.14025 -0.14025)">
       <use xlink:href="#ArialMT-44"/>
       <use xlink:href="#ArialMT-69" transform="translate(72.216797 0)"/>
       <use xlink:href="#ArialMT-72" transform="translate(94.433594 0)"/>
       <use xlink:href="#ArialMT-65" transform="translate(127.734375 0)"/>
       <use xlink:href="#ArialMT-64" transform="translate(183.349609 0)"/>
       <use xlink:href="#ArialMT-65" transform="translate(238.964844 0)"/>
       <use xlink:href="#ArialMT-72" transform="translate(294.580078 0)"/>
      </g>
      <!-- Normal scar -->
      <g style="fill: #262626" transform="translate(333.527144 501.784467) rotate(-30) scale(0.14025 -0.14025)">
       <defs>
        <path id="ArialMT-4e" d="M 488 0 
L 488 4581 
L 1109 4581 
L 3516 984 
L 3516 4581 
L 4097 4581 
L 4097 0 
L 3475 0 
L 1069 3600 
L 1069 0 
L 488 0 
z
" transform="scale(0.015625)"/>
        <path id="ArialMT-6d" d="M 422 0 
L 422 3319 
L 925 3319 
L 925 2853 
Q 1081 3097 1340 3245 
Q 1600 3394 1931 3394 
Q 2300 3394 2536 3241 
Q 2772 3088 2869 2813 
Q 3263 3394 3894 3394 
Q 4388 3394 4653 3120 
Q 4919 2847 4919 2278 
L 4919 0 
L 4359 0 
L 4359 2091 
Q 4359 2428 4304 2576 
Q 4250 2725 4106 2815 
Q 3963 2906 3769 2906 
Q 3419 2906 3187 2673 
Q 2956 2441 2956 1928 
L 2956 0 
L 2394 0 
L 2394 2156 
Q 2394 2531 2256 2718 
Q 2119 2906 1806 2906 
Q 1569 2906 1367 2781 
Q 1166 2656 1075 2415 
Q 984 2175 984 1722 
L 984 0 
L 422 0 
z
" transform="scale(0.015625)"/>
        <path id="ArialMT-63" d="M 2588 1216 
L 3141 1144 
Q 3050 572 2676 248 
Q 2303 -75 1759 -75 
Q 1078 -75 664 370 
Q 250 816 250 1647 
Q 250 2184 428 2587 
Q 606 2991 970 3192 
Q 1334 3394 1763 3394 
Q 2303 3394 2647 3120 
Q 2991 2847 3088 2344 
L 2541 2259 
Q 2463 2594 2264 2762 
Q 2066 2931 1784 2931 
Q 1359 2931 1093 2626 
Q 828 2322 828 1663 
Q 828 994 1084 691 
Q 1341 388 1753 388 
Q 2084 388 2306 591 
Q 2528 794 2588 1216 
z
" transform="scale(0.015625)"/>
       </defs>
       <use xlink:href="#ArialMT-4e"/>
       <use xlink:href="#ArialMT-6f" transform="translate(72.216797 0)"/>
       <use xlink:href="#ArialMT-72" transform="translate(127.832031 0)"/>
       <use xlink:href="#ArialMT-6d" transform="translate(161.132812 0)"/>
       <use xlink:href="#ArialMT-61" transform="translate(244.433594 0)"/>
       <use xlink:href="#ArialMT-6c" transform="translate(300.048828 0)"/>
       <use xlink:href="#ArialMT-20" transform="translate(322.265625 0)"/>
       <use xlink:href="#ArialMT-73" transform="translate(350.048828 0)"/>
       <use xlink:href="#ArialMT-63" transform="translate(400.048828 0)"/>
       <use xlink:href="#ArialMT-61" transform="translate(450.048828 0)"/>
       <use xlink:href="#ArialMT-72" transform="translate(505.664062 0)"/>
      </g>
     </g>
    </g>
    <g id="xtick_7">
     <g id="text_7">
      <!-- Direder -->
      <g style="fill: #262626" transform="translate(409.845325 474.135934) rotate(-30) scale(0.14025 -0.14025)">
       <use xlink:href="#ArialMT-44"/>
       <use xlink:href="#ArialMT-69" transform="translate(72.216797 0)"/>
       <use xlink:href="#ArialMT-72" transform="translate(94.433594 0)"/>
       <use xlink:href="#ArialMT-65" transform="translate(127.734375 0)"/>
       <use xlink:href="#ArialMT-64" transform="translate(183.349609 0)"/>
       <use xlink:href="#ArialMT-65" transform="translate(238.964844 0)"/>
       <use xlink:href="#ArialMT-72" transform="translate(294.580078 0)"/>
      </g>
      <!-- Keloid -->
      <g style="fill: #262626" transform="translate(423.322077 483.484033) rotate(-30) scale(0.14025 -0.14025)">
       <defs>
        <path id="ArialMT-4b" d="M 469 0 
L 469 4581 
L 1075 4581 
L 1075 2309 
L 3350 4581 
L 4172 4581 
L 2250 2725 
L 4256 0 
L 3456 0 
L 1825 2319 
L 1075 1588 
L 1075 0 
L 469 0 
z
" transform="scale(0.015625)"/>
       </defs>
       <use xlink:href="#ArialMT-4b"/>
       <use xlink:href="#ArialMT-65" transform="translate(66.699219 0)"/>
       <use xlink:href="#ArialMT-6c" transform="translate(122.314453 0)"/>
       <use xlink:href="#ArialMT-6f" transform="translate(144.53125 0)"/>
       <use xlink:href="#ArialMT-69" transform="translate(200.146484 0)"/>
       <use xlink:href="#ArialMT-64" transform="translate(222.363281 0)"/>
      </g>
     </g>
    </g>
    <g id="xtick_8">
     <g id="text_8">
      <!-- Deng -->
      <g style="fill: #262626" transform="translate(478.647971 467.907958) rotate(-30) scale(0.14025 -0.14025)">
       <defs>
        <path id="ArialMT-67" d="M 319 -275 
L 866 -356 
Q 900 -609 1056 -725 
Q 1266 -881 1628 -881 
Q 2019 -881 2231 -725 
Q 2444 -569 2519 -288 
Q 2563 -116 2559 434 
Q 2191 0 1641 0 
Q 956 0 581 494 
Q 206 988 206 1678 
Q 206 2153 378 2554 
Q 550 2956 876 3175 
Q 1203 3394 1644 3394 
Q 2231 3394 2613 2919 
L 2613 3319 
L 3131 3319 
L 3131 450 
Q 3131 -325 2973 -648 
Q 2816 -972 2473 -1159 
Q 2131 -1347 1631 -1347 
Q 1038 -1347 672 -1080 
Q 306 -813 319 -275 
z
M 784 1719 
Q 784 1066 1043 766 
Q 1303 466 1694 466 
Q 2081 466 2343 764 
Q 2606 1063 2606 1700 
Q 2606 2309 2336 2618 
Q 2066 2928 1684 2928 
Q 1309 2928 1046 2623 
Q 784 2319 784 1719 
z
" transform="scale(0.015625)"/>
       </defs>
       <use xlink:href="#ArialMT-44"/>
       <use xlink:href="#ArialMT-65" transform="translate(72.216797 0)"/>
       <use xlink:href="#ArialMT-6e" transform="translate(127.832031 0)"/>
       <use xlink:href="#ArialMT-67" transform="translate(183.447266 0)"/>
      </g>
      <!-- Normal scar -->
      <g style="fill: #262626" transform="translate(449.722448 501.926803) rotate(-30) scale(0.14025 -0.14025)">
       <use xlink:href="#ArialMT-4e"/>
       <use xlink:href="#ArialMT-6f" transform="translate(72.216797 0)"/>
       <use xlink:href="#ArialMT-72" transform="translate(127.832031 0)"/>
       <use xlink:href="#ArialMT-6d" transform="translate(161.132812 0)"/>
       <use xlink:href="#ArialMT-61" transform="translate(244.433594 0)"/>
       <use xlink:href="#ArialMT-6c" transform="translate(300.048828 0)"/>
       <use xlink:href="#ArialMT-20" transform="translate(322.265625 0)"/>
       <use xlink:href="#ArialMT-73" transform="translate(350.048828 0)"/>
       <use xlink:href="#ArialMT-63" transform="translate(400.048828 0)"/>
       <use xlink:href="#ArialMT-61" transform="translate(450.048828 0)"/>
       <use xlink:href="#ArialMT-72" transform="translate(505.664062 0)"/>
      </g>
     </g>
    </g>
    <g id="xtick_9">
     <g id="text_9">
      <!-- Deng -->
      <g style="fill: #262626" transform="translate(536.745623 467.907958) rotate(-30) scale(0.14025 -0.14025)">
       <use xlink:href="#ArialMT-44"/>
       <use xlink:href="#ArialMT-65" transform="translate(72.216797 0)"/>
       <use xlink:href="#ArialMT-6e" transform="translate(127.832031 0)"/>
       <use xlink:href="#ArialMT-67" transform="translate(183.447266 0)"/>
      </g>
      <!-- Keloid -->
      <g style="fill: #262626" transform="translate(539.517381 483.626369) rotate(-30) scale(0.14025 -0.14025)">
       <use xlink:href="#ArialMT-4b"/>
       <use xlink:href="#ArialMT-65" transform="translate(66.699219 0)"/>
       <use xlink:href="#ArialMT-6c" transform="translate(122.314453 0)"/>
       <use xlink:href="#ArialMT-6f" transform="translate(144.53125 0)"/>
       <use xlink:href="#ArialMT-69" transform="translate(200.146484 0)"/>
       <use xlink:href="#ArialMT-64" transform="translate(222.363281 0)"/>
      </g>
     </g>
    </g>
   </g>
   <g id="matplotlib.axis_2">
    <g id="ytick_1">
     <g id="text_10">
      <!-- 0 -->
      <g style="fill: #262626" transform="translate(40.790758 434.970328) scale(0.14025 -0.14025)">
       <use xlink:href="#ArialMT-30"/>
      </g>
     </g>
    </g>
    <g id="ytick_2">
     <g id="text_11">
      <!-- 20 -->
      <g style="fill: #262626" transform="translate(32.991543 370.431059) scale(0.14025 -0.14025)">
       <defs>
        <path id="ArialMT-32" d="M 3222 541 
L 3222 0 
L 194 0 
Q 188 203 259 391 
Q 375 700 629 1000 
Q 884 1300 1366 1694 
Q 2113 2306 2375 2664 
Q 2638 3022 2638 3341 
Q 2638 3675 2398 3904 
Q 2159 4134 1775 4134 
Q 1369 4134 1125 3890 
Q 881 3647 878 3216 
L 300 3275 
Q 359 3922 746 4261 
Q 1134 4600 1788 4600 
Q 2447 4600 2831 4234 
Q 3216 3869 3216 3328 
Q 3216 3053 3103 2787 
Q 2991 2522 2730 2228 
Q 2469 1934 1863 1422 
Q 1356 997 1212 845 
Q 1069 694 975 541 
L 3222 541 
z
" transform="scale(0.015625)"/>
       </defs>
       <use xlink:href="#ArialMT-32"/>
       <use xlink:href="#ArialMT-30" transform="translate(55.615234 0)"/>
      </g>
     </g>
    </g>
    <g id="ytick_3">
     <g id="text_12">
      <!-- 40 -->
      <g style="fill: #262626" transform="translate(32.991543 305.89179) scale(0.14025 -0.14025)">
       <defs>
        <path id="ArialMT-34" d="M 2069 0 
L 2069 1097 
L 81 1097 
L 81 1613 
L 2172 4581 
L 2631 4581 
L 2631 1613 
L 3250 1613 
L 3250 1097 
L 2631 1097 
L 2631 0 
L 2069 0 
z
M 2069 1613 
L 2069 3678 
L 634 1613 
L 2069 1613 
z
" transform="scale(0.015625)"/>
       </defs>
       <use xlink:href="#ArialMT-34"/>
       <use xlink:href="#ArialMT-30" transform="translate(55.615234 0)"/>
      </g>
     </g>
    </g>
    <g id="ytick_4">
     <g id="text_13">
      <!-- 60 -->
      <g style="fill: #262626" transform="translate(32.991543 241.352521) scale(0.14025 -0.14025)">
       <defs>
        <path id="ArialMT-36" d="M 3184 3459 
L 2625 3416 
Q 2550 3747 2413 3897 
Q 2184 4138 1850 4138 
Q 1581 4138 1378 3988 
Q 1113 3794 959 3422 
Q 806 3050 800 2363 
Q 1003 2672 1297 2822 
Q 1591 2972 1913 2972 
Q 2475 2972 2870 2558 
Q 3266 2144 3266 1488 
Q 3266 1056 3080 686 
Q 2894 316 2569 119 
Q 2244 -78 1831 -78 
Q 1128 -78 684 439 
Q 241 956 241 2144 
Q 241 3472 731 4075 
Q 1159 4600 1884 4600 
Q 2425 4600 2770 4297 
Q 3116 3994 3184 3459 
z
M 888 1484 
Q 888 1194 1011 928 
Q 1134 663 1356 523 
Q 1578 384 1822 384 
Q 2178 384 2434 671 
Q 2691 959 2691 1453 
Q 2691 1928 2437 2201 
Q 2184 2475 1800 2475 
Q 1419 2475 1153 2201 
Q 888 1928 888 1484 
z
" transform="scale(0.015625)"/>
       </defs>
       <use xlink:href="#ArialMT-36"/>
       <use xlink:href="#ArialMT-30" transform="translate(55.615234 0)"/>
      </g>
     </g>
    </g>
    <g id="ytick_5">
     <g id="text_14">
      <!-- 80 -->
      <g style="fill: #262626" transform="translate(32.991543 176.813252) scale(0.14025 -0.14025)">
       <defs>
        <path id="ArialMT-38" d="M 1131 2484 
Q 781 2613 612 2850 
Q 444 3088 444 3419 
Q 444 3919 803 4259 
Q 1163 4600 1759 4600 
Q 2359 4600 2725 4251 
Q 3091 3903 3091 3403 
Q 3091 3084 2923 2848 
Q 2756 2613 2416 2484 
Q 2838 2347 3058 2040 
Q 3278 1734 3278 1309 
Q 3278 722 2862 322 
Q 2447 -78 1769 -78 
Q 1091 -78 675 323 
Q 259 725 259 1325 
Q 259 1772 486 2073 
Q 713 2375 1131 2484 
z
M 1019 3438 
Q 1019 3113 1228 2906 
Q 1438 2700 1772 2700 
Q 2097 2700 2305 2904 
Q 2513 3109 2513 3406 
Q 2513 3716 2298 3927 
Q 2084 4138 1766 4138 
Q 1444 4138 1231 3931 
Q 1019 3725 1019 3438 
z
M 838 1322 
Q 838 1081 952 856 
Q 1066 631 1291 507 
Q 1516 384 1775 384 
Q 2178 384 2440 643 
Q 2703 903 2703 1303 
Q 2703 1709 2433 1975 
Q 2163 2241 1756 2241 
Q 1359 2241 1098 1978 
Q 838 1716 838 1322 
z
" transform="scale(0.015625)"/>
       </defs>
       <use xlink:href="#ArialMT-38"/>
       <use xlink:href="#ArialMT-30" transform="translate(55.615234 0)"/>
      </g>
     </g>
    </g>
    <g id="ytick_6">
     <g id="text_15">
      <!-- 100 -->
      <g style="fill: #262626" transform="translate(25.192328 112.273983) scale(0.14025 -0.14025)">
       <use xlink:href="#ArialMT-31"/>
       <use xlink:href="#ArialMT-30" transform="translate(55.615234 0)"/>
       <use xlink:href="#ArialMT-30" transform="translate(111.230469 0)"/>
      </g>
     </g>
    </g>
    <g id="text_16">
     <!-- % of cells -->
     <g style="fill: #262626" transform="translate(18.151453 293.271354) rotate(-90) scale(0.153 -0.153)">
      <defs>
       <path id="ArialMT-25" d="M 372 3481 
Q 372 3972 619 4315 
Q 866 4659 1334 4659 
Q 1766 4659 2048 4351 
Q 2331 4044 2331 3447 
Q 2331 2866 2045 2552 
Q 1759 2238 1341 2238 
Q 925 2238 648 2547 
Q 372 2856 372 3481 
z
M 1350 4272 
Q 1141 4272 1002 4090 
Q 863 3909 863 3425 
Q 863 2984 1003 2804 
Q 1144 2625 1350 2625 
Q 1563 2625 1702 2806 
Q 1841 2988 1841 3469 
Q 1841 3913 1700 4092 
Q 1559 4272 1350 4272 
z
M 1353 -169 
L 3859 4659 
L 4316 4659 
L 1819 -169 
L 1353 -169 
z
M 3334 1075 
Q 3334 1569 3581 1911 
Q 3828 2253 4300 2253 
Q 4731 2253 5014 1945 
Q 5297 1638 5297 1041 
Q 5297 459 5011 145 
Q 4725 -169 4303 -169 
Q 3888 -169 3611 142 
Q 3334 453 3334 1075 
z
M 4316 1866 
Q 4103 1866 3964 1684 
Q 3825 1503 3825 1019 
Q 3825 581 3965 400 
Q 4106 219 4313 219 
Q 4528 219 4667 400 
Q 4806 581 4806 1063 
Q 4806 1506 4665 1686 
Q 4525 1866 4316 1866 
z
" transform="scale(0.015625)"/>
       <path id="ArialMT-66" d="M 556 0 
L 556 2881 
L 59 2881 
L 59 3319 
L 556 3319 
L 556 3672 
Q 556 4006 616 4169 
Q 697 4388 901 4523 
Q 1106 4659 1475 4659 
Q 1713 4659 2000 4603 
L 1916 4113 
Q 1741 4144 1584 4144 
Q 1328 4144 1222 4034 
Q 1116 3925 1116 3625 
L 1116 3319 
L 1763 3319 
L 1763 2881 
L 1116 2881 
L 1116 0 
L 556 0 
z
" transform="scale(0.015625)"/>
      </defs>
      <use xlink:href="#ArialMT-25"/>
      <use xlink:href="#ArialMT-20" transform="translate(88.916016 0)"/>
      <use xlink:href="#ArialMT-6f" transform="translate(116.699219 0)"/>
      <use xlink:href="#ArialMT-66" transform="translate(172.314453 0)"/>
      <use xlink:href="#ArialMT-20" transform="translate(200.097656 0)"/>
      <use xlink:href="#ArialMT-63" transform="translate(227.880859 0)"/>
      <use xlink:href="#ArialMT-65" transform="translate(277.880859 0)"/>
      <use xlink:href="#ArialMT-6c" transform="translate(333.496094 0)"/>
      <use xlink:href="#ArialMT-6c" transform="translate(355.712891 0)"/>
      <use xlink:href="#ArialMT-73" transform="translate(377.929688 0)"/>
     </g>
    </g>
   </g>
   <g id="patch_3">
    <path d="M 86.65294 429.950912 
L 133.131061 429.950912 
L 133.131061 420.953802 
L 86.65294 420.953802 
z
" clip-path="url(#p8cccbfdffd)" style="fill: #c0392b; stroke: #000000; stroke-width: 0.5; stroke-linejoin: miter"/>
   </g>
   <g id="patch_4">
    <path d="M 144.750592 429.950912 
L 191.228713 429.950912 
L 191.228713 413.050807 
L 144.750592 413.050807 
z
" clip-path="url(#p8cccbfdffd)" style="fill: #c0392b; stroke: #000000; stroke-width: 0.5; stroke-linejoin: miter"/>
   </g>
   <g id="patch_5">
    <path d="M 202.848244 429.950912 
L 249.326366 429.950912 
L 249.326366 231.823295 
L 202.848244 231.823295 
z
" clip-path="url(#p8cccbfdffd)" style="fill: #c0392b; stroke: #000000; stroke-width: 0.5; stroke-linejoin: miter"/>
   </g>
   <g id="patch_6">
    <path d="M 260.945896 429.950912 
L 307.424018 429.950912 
L 307.424018 162.016272 
L 260.945896 162.016272 
z
" clip-path="url(#p8cccbfdffd)" style="fill: #c0392b; stroke: #000000; stroke-width: 0.5; stroke-linejoin: miter"/>
   </g>
   <g id="patch_7">
    <path d="M 319.043548 429.950912 
L 365.52167 429.950912 
L 365.52167 425.775115 
L 319.043548 425.775115 
z
" clip-path="url(#p8cccbfdffd)" style="fill: #c0392b; stroke: #000000; stroke-width: 0.5; stroke-linejoin: miter"/>
   </g>
   <g id="patch_8">
    <path d="M 377.1412 429.950912 
L 423.619322 429.950912 
L 423.619322 421.522138 
L 377.1412 421.522138 
z
" clip-path="url(#p8cccbfdffd)" style="fill: #c0392b; stroke: #000000; stroke-width: 0.5; stroke-linejoin: miter"/>
   </g>
   <g id="patch_9">
    <path d="M 435.238852 429.950912 
L 481.716974 429.950912 
L 481.716974 334.504127 
L 435.238852 334.504127 
z
" clip-path="url(#p8cccbfdffd)" style="fill: #c0392b; stroke: #000000; stroke-width: 0.5; stroke-linejoin: miter"/>
   </g>
   <g id="patch_10">
    <path d="M 493.336505 429.950912 
L 539.814626 429.950912 
L 539.814626 428.040087 
L 493.336505 428.040087 
z
" clip-path="url(#p8cccbfdffd)" style="fill: #c0392b; stroke: #000000; stroke-width: 0.5; stroke-linejoin: miter"/>
   </g>
   <g id="patch_11">
    <path d="M 551.434157 429.950912 
L 597.912278 429.950912 
L 597.912278 280.858198 
L 551.434157 280.858198 
z
" clip-path="url(#p8cccbfdffd)" style="fill: #c0392b; stroke: #000000; stroke-width: 0.5; stroke-linejoin: miter"/>
   </g>
   <g id="patch_12">
    <path d="M 86.65294 420.953802 
L 133.131061 420.953802 
L 133.131061 251.808134 
L 86.65294 251.808134 
z
" clip-path="url(#p8cccbfdffd)" style="fill: #3498db; stroke: #000000; stroke-width: 0.5; stroke-linejoin: miter"/>
   </g>
   <g id="patch_13">
    <path d="M 144.750592 413.050807 
L 191.228713 413.050807 
L 191.228713 312.925656 
L 144.750592 312.925656 
z
" clip-path="url(#p8cccbfdffd)" style="fill: #3498db; stroke: #000000; stroke-width: 0.5; stroke-linejoin: miter"/>
   </g>
   <g id="patch_14">
    <path d="M 202.848244 231.823295 
L 249.326366 231.823295 
L 249.326366 187.316366 
L 202.848244 187.316366 
z
" clip-path="url(#p8cccbfdffd)" style="fill: #3498db; stroke: #000000; stroke-width: 0.5; stroke-linejoin: miter"/>
   </g>
   <g id="patch_15">
    <path d="M 260.945896 162.016272 
L 307.424018 162.016272 
L 307.424018 128.057896 
L 260.945896 128.057896 
z
" clip-path="url(#p8cccbfdffd)" style="fill: #3498db; stroke: #000000; stroke-width: 0.5; stroke-linejoin: miter"/>
   </g>
   <g id="patch_16">
    <path d="M 319.043548 425.775115 
L 365.52167 425.775115 
L 365.52167 357.106446 
L 319.043548 357.106446 
z
" clip-path="url(#p8cccbfdffd)" style="fill: #3498db; stroke: #000000; stroke-width: 0.5; stroke-linejoin: miter"/>
   </g>
   <g id="patch_17">
    <path d="M 377.1412 421.522138 
L 423.619322 421.522138 
L 423.619322 370.431939 
L 377.1412 370.431939 
z
" clip-path="url(#p8cccbfdffd)" style="fill: #3498db; stroke: #000000; stroke-width: 0.5; stroke-linejoin: miter"/>
   </g>
   <g id="patch_18">
    <path d="M 435.238852 334.504127 
L 481.716974 334.504127 
L 481.716974 188.279651 
L 435.238852 188.279651 
z
" clip-path="url(#p8cccbfdffd)" style="fill: #3498db; stroke: #000000; stroke-width: 0.5; stroke-linejoin: miter"/>
   </g>
   <g id="patch_19">
    <path d="M 493.336505 428.040087 
L 539.814626 428.040087 
L 539.814626 360.974801 
L 493.336505 360.974801 
z
" clip-path="url(#p8cccbfdffd)" style="fill: #3498db; stroke: #000000; stroke-width: 0.5; stroke-linejoin: miter"/>
   </g>
   <g id="patch_20">
    <path d="M 551.434157 280.858198 
L 597.912278 280.858198 
L 597.912278 218.444437 
L 551.434157 218.444437 
z
" clip-path="url(#p8cccbfdffd)" style="fill: #3498db; stroke: #000000; stroke-width: 0.5; stroke-linejoin: miter"/>
   </g>
   <g id="patch_21">
    <path d="M 86.65294 251.808134 
L 133.131061 251.808134 
L 133.131061 249.408905 
L 86.65294 249.408905 
z
" clip-path="url(#p8cccbfdffd)" style="fill: #f39c12; stroke: #000000; stroke-width: 0.5; stroke-linejoin: miter"/>
   </g>
   <g id="patch_22">
    <path d="M 144.750592 312.925656 
L 191.228713 312.925656 
L 191.228713 279.763186 
L 144.750592 279.763186 
z
" clip-path="url(#p8cccbfdffd)" style="fill: #f39c12; stroke: #000000; stroke-width: 0.5; stroke-linejoin: miter"/>
   </g>
   <g id="patch_23">
    <path d="M 202.848244 187.316366 
L 249.326366 187.316366 
L 249.326366 146.8632 
L 202.848244 146.8632 
z
" clip-path="url(#p8cccbfdffd)" style="fill: #f39c12; stroke: #000000; stroke-width: 0.5; stroke-linejoin: miter"/>
   </g>
   <g id="patch_24">
    <path d="M 260.945896 128.057896 
L 307.424018 128.057896 
L 307.424018 122.795878 
L 260.945896 122.795878 
z
" clip-path="url(#p8cccbfdffd)" style="fill: #f39c12; stroke: #000000; stroke-width: 0.5; stroke-linejoin: miter"/>
   </g>
   <g id="patch_25">
    <path d="M 319.043548 357.106446 
L 365.52167 357.106446 
L 365.52167 355.946502 
L 319.043548 355.946502 
z
" clip-path="url(#p8cccbfdffd)" style="fill: #f39c12; stroke: #000000; stroke-width: 0.5; stroke-linejoin: miter"/>
   </g>
   <g id="patch_26">
    <path d="M 377.1412 370.431939 
L 423.619322 370.431939 
L 423.619322 364.849725 
L 377.1412 364.849725 
z
" clip-path="url(#p8cccbfdffd)" style="fill: #f39c12; stroke: #000000; stroke-width: 0.5; stroke-linejoin: miter"/>
   </g>
   <g id="patch_27">
    <path d="M 435.238852 188.279651 
L 481.716974 188.279651 
L 481.716974 180.028123 
L 435.238852 180.028123 
z
" clip-path="url(#p8cccbfdffd)" style="fill: #f39c12; stroke: #000000; stroke-width: 0.5; stroke-linejoin: miter"/>
   </g>
   <g id="patch_28">
    <path d="M 493.336505 360.974801 
L 539.814626 360.974801 
L 539.814626 352.818842 
L 493.336505 352.818842 
z
" clip-path="url(#p8cccbfdffd)" style="fill: #f39c12; stroke: #000000; stroke-width: 0.5; stroke-linejoin: miter"/>
   </g>
   <g id="patch_29">
    <path d="M 551.434157 218.444437 
L 597.912278 218.444437 
L 597.912278 207.079726 
L 551.434157 207.079726 
z
" clip-path="url(#p8cccbfdffd)" style="fill: #f39c12; stroke: #000000; stroke-width: 0.5; stroke-linejoin: miter"/>
   </g>
   <g id="patch_30">
    <path d="M 86.65294 249.408905 
L 133.131061 249.408905 
L 133.131061 107.254567 
L 86.65294 107.254567 
z
" clip-path="url(#p8cccbfdffd)" style="fill: #bdc3c7; stroke: #000000; stroke-width: 0.5; stroke-linejoin: miter"/>
   </g>
   <g id="patch_31">
    <path d="M 144.750592 279.763186 
L 191.228713 279.763186 
L 191.228713 107.254567 
L 144.750592 107.254567 
z
" clip-path="url(#p8cccbfdffd)" style="fill: #bdc3c7; stroke: #000000; stroke-width: 0.5; stroke-linejoin: miter"/>
   </g>
   <g id="patch_32">
    <path d="M 202.848244 146.8632 
L 249.326366 146.8632 
L 249.326366 107.254567 
L 202.848244 107.254567 
z
" clip-path="url(#p8cccbfdffd)" style="fill: #bdc3c7; stroke: #000000; stroke-width: 0.5; stroke-linejoin: miter"/>
   </g>
   <g id="patch_33">
    <path d="M 260.945896 122.795878 
L 307.424018 122.795878 
L 307.424018 107.254567 
L 260.945896 107.254567 
z
" clip-path="url(#p8cccbfdffd)" style="fill: #bdc3c7; stroke: #000000; stroke-width: 0.5; stroke-linejoin: miter"/>
   </g>
   <g id="patch_34">
    <path d="M 319.043548 355.946502 
L 365.52167 355.946502 
L 365.52167 107.254567 
L 319.043548 107.254567 
z
" clip-path="url(#p8cccbfdffd)" style="fill: #bdc3c7; stroke: #000000; stroke-width: 0.5; stroke-linejoin: miter"/>
   </g>
   <g id="patch_35">
    <path d="M 377.1412 364.849725 
L 423.619322 364.849725 
L 423.619322 107.254567 
L 377.1412 107.254567 
z
" clip-path="url(#p8cccbfdffd)" style="fill: #bdc3c7; stroke: #000000; stroke-width: 0.5; stroke-linejoin: miter"/>
   </g>
   <g id="patch_36">
    <path d="M 435.238852 180.028123 
L 481.716974 180.028123 
L 481.716974 107.254567 
L 435.238852 107.254567 
z
" clip-path="url(#p8cccbfdffd)" style="fill: #bdc3c7; stroke: #000000; stroke-width: 0.5; stroke-linejoin: miter"/>
   </g>
   <g id="patch_37">
    <path d="M 493.336505 352.818842 
L 539.814626 352.818842 
L 539.814626 107.254567 
L 493.336505 107.254567 
z
" clip-path="url(#p8cccbfdffd)" style="fill: #bdc3c7; stroke: #000000; stroke-width: 0.5; stroke-linejoin: miter"/>
   </g>
   <g id="patch_38">
    <path d="M 551.434157 207.079726 
L 597.912278 207.079726 
L 597.912278 107.254567 
L 551.434157 107.254567 
z
" clip-path="url(#p8cccbfdffd)" style="fill: #bdc3c7; stroke: #000000; stroke-width: 0.5; stroke-linejoin: miter"/>
   </g>
   <g id="patch_39">
    <path d="M 61.089973 429.950912 
L 61.089973 91.11975 
" style="fill: none; stroke: #262626; stroke-width: 1.875; stroke-linejoin: miter; stroke-linecap: square"/>
   </g>
   <g id="patch_40">
    <path d="M 61.089973 429.950912 
L 623.475245 429.950912 
" style="fill: none; stroke: #262626; stroke-width: 1.875; stroke-linejoin: miter; stroke-linecap: square"/>
   </g>
   <g id="text_17">
    <!-- Per-cell co-expression state of AND-gate inputs -->
    <g style="fill: #262626" transform="translate(216.230109 72.111375) scale(0.12 -0.12)">
     <defs>
      <path id="ArialMT-50" d="M 494 0 
L 494 4581 
L 2222 4581 
Q 2678 4581 2919 4538 
Q 3256 4481 3484 4323 
Q 3713 4166 3852 3881 
Q 3991 3597 3991 3256 
Q 3991 2672 3619 2267 
Q 3247 1863 2275 1863 
L 1100 1863 
L 1100 0 
L 494 0 
z
M 1100 2403 
L 2284 2403 
Q 2872 2403 3119 2622 
Q 3366 2841 3366 3238 
Q 3366 3525 3220 3729 
Q 3075 3934 2838 4000 
Q 2684 4041 2272 4041 
L 1100 4041 
L 1100 2403 
z
" transform="scale(0.015625)"/>
      <path id="ArialMT-2d" d="M 203 1375 
L 203 1941 
L 1931 1941 
L 1931 1375 
L 203 1375 
z
" transform="scale(0.015625)"/>
      <path id="ArialMT-78" d="M 47 0 
L 1259 1725 
L 138 3319 
L 841 3319 
L 1350 2541 
Q 1494 2319 1581 2169 
Q 1719 2375 1834 2534 
L 2394 3319 
L 3066 3319 
L 1919 1756 
L 3153 0 
L 2463 0 
L 1781 1031 
L 1600 1309 
L 728 0 
L 47 0 
z
" transform="scale(0.015625)"/>
      <path id="ArialMT-70" d="M 422 -1272 
L 422 3319 
L 934 3319 
L 934 2888 
Q 1116 3141 1344 3267 
Q 1572 3394 1897 3394 
Q 2322 3394 2647 3175 
Q 2972 2956 3137 2557 
Q 3303 2159 3303 1684 
Q 3303 1175 3120 767 
Q 2938 359 2589 142 
Q 2241 -75 1856 -75 
Q 1575 -75 1351 44 
Q 1128 163 984 344 
L 984 -1272 
L 422 -1272 
z
M 931 1641 
Q 931 1000 1190 694 
Q 1450 388 1819 388 
Q 2194 388 2461 705 
Q 2728 1022 2728 1688 
Q 2728 2322 2467 2637 
Q 2206 2953 1844 2953 
Q 1484 2953 1207 2617 
Q 931 2281 931 1641 
z
" transform="scale(0.015625)"/>
      <path id="ArialMT-41" d="M -9 0 
L 1750 4581 
L 2403 4581 
L 4278 0 
L 3588 0 
L 3053 1388 
L 1138 1388 
L 634 0 
L -9 0 
z
M 1313 1881 
L 2866 1881 
L 2388 3150 
Q 2169 3728 2063 4100 
Q 1975 3659 1816 3225 
L 1313 1881 
z
" transform="scale(0.015625)"/>
     </defs>
     <use xlink:href="#ArialMT-50"/>
     <use xlink:href="#ArialMT-65" transform="translate(66.699219 0)"/>
     <use xlink:href="#ArialMT-72" transform="translate(122.314453 0)"/>
     <use xlink:href="#ArialMT-2d" transform="translate(155.615234 0)"/>
     <use xlink:href="#ArialMT-63" transform="translate(188.916016 0)"/>
     <use xlink:href="#ArialMT-65" transform="translate(238.916016 0)"/>
     <use xlink:href="#ArialMT-6c" transform="translate(294.53125 0)"/>
     <use xlink:href="#ArialMT-6c" transform="translate(316.748047 0)"/>
     <use xlink:href="#ArialMT-20" transform="translate(338.964844 0)"/>
     <use xlink:href="#ArialMT-63" transform="translate(366.748047 0)"/>
     <use xlink:href="#ArialMT-6f" transform="translate(416.748047 0)"/>
     <use xlink:href="#ArialMT-2d" transform="translate(472.363281 0)"/>
     <use xlink:href="#ArialMT-65" transform="translate(505.664062 0)"/>
     <use xlink:href="#ArialMT-78" transform="translate(561.279297 0)"/>
     <use xlink:href="#ArialMT-70" transform="translate(611.279297 0)"/>
     <use xlink:href="#ArialMT-72" transform="translate(666.894531 0)"/>
     <use xlink:href="#ArialMT-65" transform="translate(700.195312 0)"/>
     <use xlink:href="#ArialMT-73" transform="translate(755.810547 0)"/>
     <use xlink:href="#ArialMT-73" transform="translate(805.810547 0)"/>
     <use xlink:href="#ArialMT-69" transform="translate(855.810547 0)"/>
     <use xlink:href="#ArialMT-6f" transform="translate(878.027344 0)"/>
     <use xlink:href="#ArialMT-6e" transform="translate(933.642578 0)"/>
     <use xlink:href="#ArialMT-20" transform="translate(989.257812 0)"/>
     <use xlink:href="#ArialMT-73" transform="translate(1017.041016 0)"/>
     <use xlink:href="#ArialMT-74" transform="translate(1067.041016 0)"/>
     <use xlink:href="#ArialMT-61" transform="translate(1094.824219 0)"/>
     <use xlink:href="#ArialMT-74" transform="translate(1150.439453 0)"/>
     <use xlink:href="#ArialMT-65" transform="translate(1178.222656 0)"/>
     <use xlink:href="#ArialMT-20" transform="translate(1233.837891 0)"/>
     <use xlink:href="#ArialMT-6f" transform="translate(1261.621094 0)"/>
     <use xlink:href="#ArialMT-66" transform="translate(1317.236328 0)"/>
     <use xlink:href="#ArialMT-20" transform="translate(1345.019531 0)"/>
     <use xlink:href="#ArialMT-41" transform="translate(1367.302734 0)"/>
     <use xlink:href="#ArialMT-4e" transform="translate(1434.001953 0)"/>
     <use xlink:href="#ArialMT-44" transform="translate(1506.21875 0)"/>
     <use xlink:href="#ArialMT-2d" transform="translate(1578.435547 0)"/>
     <use xlink:href="#ArialMT-67" transform="translate(1611.736328 0)"/>
     <use xlink:href="#ArialMT-61" transform="translate(1667.351562 0)"/>
     <use xlink:href="#ArialMT-74" transform="translate(1722.966797 0)"/>
     <use xlink:href="#ArialMT-65" transform="translate(1750.75 0)"/>
     <use xlink:href="#ArialMT-20" transform="translate(1806.365234 0)"/>
     <use xlink:href="#ArialMT-69" transform="translate(1834.148438 0)"/>
     <use xlink:href="#ArialMT-6e" transform="translate(1856.365234 0)"/>
     <use xlink:href="#ArialMT-70" transform="translate(1911.980469 0)"/>
     <use xlink:href="#ArialMT-75" transform="translate(1967.595703 0)"/>
     <use xlink:href="#ArialMT-74" transform="translate(2023.210938 0)"/>
     <use xlink:href="#ArialMT-73" transform="translate(2050.994141 0)"/>
    </g>
    <!-- (gray = gate silent; red = gate active) -->
    <g style="fill: #262626" transform="translate(244.568859 85.11975) scale(0.12 -0.12)">
     <defs>
      <path id="ArialMT-28" d="M 1497 -1347 
Q 1031 -759 709 28 
Q 388 816 388 1659 
Q 388 2403 628 3084 
Q 909 3875 1497 4659 
L 1900 4659 
Q 1522 4009 1400 3731 
Q 1209 3300 1100 2831 
Q 966 2247 966 1656 
Q 966 153 1900 -1347 
L 1497 -1347 
z
" transform="scale(0.015625)"/>
      <path id="ArialMT-3d" d="M 3381 2694 
L 356 2694 
L 356 3219 
L 3381 3219 
L 3381 2694 
z
M 3381 1303 
L 356 1303 
L 356 1828 
L 3381 1828 
L 3381 1303 
z
" transform="scale(0.015625)"/>
      <path id="ArialMT-3b" d="M 569 2678 
L 569 3319 
L 1209 3319 
L 1209 2678 
L 569 2678 
z
M 569 0 
L 569 641 
L 1209 641 
L 1209 0 
Q 1209 -353 1084 -570 
Q 959 -788 688 -906 
L 531 -666 
Q 709 -588 793 -436 
Q 878 -284 888 0 
L 569 0 
z
" transform="scale(0.015625)"/>
      <path id="ArialMT-76" d="M 1344 0 
L 81 3319 
L 675 3319 
L 1388 1331 
Q 1503 1009 1600 663 
Q 1675 925 1809 1294 
L 2547 3319 
L 3125 3319 
L 1869 0 
L 1344 0 
z
" transform="scale(0.015625)"/>
      <path id="ArialMT-29" d="M 791 -1347 
L 388 -1347 
Q 1322 153 1322 1656 
Q 1322 2244 1188 2822 
Q 1081 3291 891 3722 
Q 769 4003 388 4659 
L 791 4659 
Q 1378 3875 1659 3084 
Q 1900 2403 1900 1659 
Q 1900 816 1576 28 
Q 1253 -759 791 -1347 
z
" transform="scale(0.015625)"/>
     </defs>
     <use xlink:href="#ArialMT-28"/>
     <use xlink:href="#ArialMT-67" transform="translate(33.300781 0)"/>
     <use xlink:href="#ArialMT-72" transform="translate(88.916016 0)"/>
     <use xlink:href="#ArialMT-61" transform="translate(122.216797 0)"/>
     <use xlink:href="#ArialMT-79" transform="translate(177.832031 0)"/>
     <use xlink:href="#ArialMT-20" transform="translate(227.832031 0)"/>
     <use xlink:href="#ArialMT-3d" transform="translate(255.615234 0)"/>
     <use xlink:href="#ArialMT-20" transform="translate(314.013672 0)"/>
     <use xlink:href="#ArialMT-67" transform="translate(341.796875 0)"/>
     <use xlink:href="#ArialMT-61" transform="translate(397.412109 0)"/>
     <use xlink:href="#ArialMT-74" transform="translate(453.027344 0)"/>
     <use xlink:href="#ArialMT-65" transform="translate(480.810547 0)"/>
     <use xlink:href="#ArialMT-20" transform="translate(536.425781 0)"/>
     <use xlink:href="#ArialMT-73" transform="translate(564.208984 0)"/>
     <use xlink:href="#ArialMT-69" transform="translate(614.208984 0)"/>
     <use xlink:href="#ArialMT-6c" transform="translate(636.425781 0)"/>
     <use xlink:href="#ArialMT-65" transform="translate(658.642578 0)"/>
     <use xlink:href="#ArialMT-6e" transform="translate(714.257812 0)"/>
     <use xlink:href="#ArialMT-74" transform="translate(769.873047 0)"/>
     <use xlink:href="#ArialMT-3b" transform="translate(797.65625 0)"/>
     <use xlink:href="#ArialMT-20" transform="translate(825.439453 0)"/>
     <use xlink:href="#ArialMT-72" transform="translate(853.222656 0)"/>
     <use xlink:href="#ArialMT-65" transform="translate(886.523438 0)"/>
     <use xlink:href="#ArialMT-64" transform="translate(942.138672 0)"/>
     <use xlink:href="#ArialMT-20" transform="translate(997.753906 0)"/>
     <use xlink:href="#ArialMT-3d" transform="translate(1025.537109 0)"/>
     <use xlink:href="#ArialMT-20" transform="translate(1083.935547 0)"/>
     <use xlink:href="#ArialMT-67" transform="translate(1111.71875 0)"/>
     <use xlink:href="#ArialMT-61" transform="translate(1167.333984 0)"/>
     <use xlink:href="#ArialMT-74" transform="translate(1222.949219 0)"/>
     <use xlink:href="#ArialMT-65" transform="translate(1250.732422 0)"/>
     <use xlink:href="#ArialMT-20" transform="translate(1306.347656 0)"/>
     <use xlink:href="#ArialMT-61" transform="translate(1334.130859 0)"/>
     <use xlink:href="#ArialMT-63" transform="translate(1389.746094 0)"/>
     <use xlink:href="#ArialMT-74" transform="translate(1439.746094 0)"/>
     <use xlink:href="#ArialMT-69" transform="translate(1467.529297 0)"/>
     <use xlink:href="#ArialMT-76" transform="translate(1489.746094 0)"/>
     <use xlink:href="#ArialMT-65" transform="translate(1539.746094 0)"/>
     <use xlink:href="#ArialMT-29" transform="translate(1595.361328 0)"/>
    </g>
   </g>
   <g id="legend_1">
    <g id="patch_41">
     <path d="M 641.722951 156.3385 
L 772.621388 156.3385 
Q 774.621388 156.3385 774.621388 154.3385 
L 774.621388 98.11975 
Q 774.621388 96.11975 772.621388 96.11975 
L 641.722951 96.11975 
Q 639.722951 96.11975 639.722951 98.11975 
L 639.722951 154.3385 
Q 639.722951 156.3385 641.722951 156.3385 
z
" style="fill: #ffffff; opacity: 0.8; stroke: #cccccc; stroke-width: 1.5; stroke-linejoin: miter"/>
    </g>
    <g id="patch_42">
     <path d="M 643.722951 107.405687 
L 663.722951 107.405687 
L 663.722951 100.405687 
L 643.722951 100.405687 
z
" style="fill: #c0392b; stroke: #000000; stroke-width: 0.5; stroke-linejoin: miter"/>
    </g>
    <g id="text_18">
     <!-- BOTH (AND-gate ON) -->
     <g style="fill: #262626" transform="translate(671.722951 107.405687) scale(0.1 -0.1)">
      <defs>
       <path id="ArialMT-42" d="M 469 0 
L 469 4581 
L 2188 4581 
Q 2713 4581 3030 4442 
Q 3347 4303 3526 4014 
Q 3706 3725 3706 3409 
Q 3706 3116 3547 2856 
Q 3388 2597 3066 2438 
Q 3481 2316 3704 2022 
Q 3928 1728 3928 1328 
Q 3928 1006 3792 729 
Q 3656 453 3456 303 
Q 3256 153 2954 76 
Q 2653 0 2216 0 
L 469 0 
z
M 1075 2656 
L 2066 2656 
Q 2469 2656 2644 2709 
Q 2875 2778 2992 2937 
Q 3109 3097 3109 3338 
Q 3109 3566 3000 3739 
Q 2891 3913 2687 3977 
Q 2484 4041 1991 4041 
L 1075 4041 
L 1075 2656 
z
M 1075 541 
L 2216 541 
Q 2509 541 2628 563 
Q 2838 600 2978 687 
Q 3119 775 3209 942 
Q 3300 1109 3300 1328 
Q 3300 1584 3169 1773 
Q 3038 1963 2805 2039 
Q 2572 2116 2134 2116 
L 1075 2116 
L 1075 541 
z
" transform="scale(0.015625)"/>
       <path id="ArialMT-4f" d="M 309 2231 
Q 309 3372 921 4017 
Q 1534 4663 2503 4663 
Q 3138 4663 3647 4359 
Q 4156 4056 4423 3514 
Q 4691 2972 4691 2284 
Q 4691 1588 4409 1038 
Q 4128 488 3612 205 
Q 3097 -78 2500 -78 
Q 1853 -78 1343 234 
Q 834 547 571 1087 
Q 309 1628 309 2231 
z
M 934 2222 
Q 934 1394 1379 917 
Q 1825 441 2497 441 
Q 3181 441 3623 922 
Q 4066 1403 4066 2288 
Q 4066 2847 3877 3264 
Q 3688 3681 3323 3911 
Q 2959 4141 2506 4141 
Q 1863 4141 1398 3698 
Q 934 3256 934 2222 
z
" transform="scale(0.015625)"/>
       <path id="ArialMT-54" d="M 1659 0 
L 1659 4041 
L 150 4041 
L 150 4581 
L 3781 4581 
L 3781 4041 
L 2266 4041 
L 2266 0 
L 1659 0 
z
" transform="scale(0.015625)"/>
      </defs>
      <use xlink:href="#ArialMT-42"/>
      <use xlink:href="#ArialMT-4f" transform="translate(66.699219 0)"/>
      <use xlink:href="#ArialMT-54" transform="translate(144.482422 0)"/>
      <use xlink:href="#ArialMT-48" transform="translate(205.566406 0)"/>
      <use xlink:href="#ArialMT-20" transform="translate(277.783203 0)"/>
      <use xlink:href="#ArialMT-28" transform="translate(305.566406 0)"/>
      <use xlink:href="#ArialMT-41" transform="translate(338.867188 0)"/>
      <use xlink:href="#ArialMT-4e" transform="translate(405.566406 0)"/>
      <use xlink:href="#ArialMT-44" transform="translate(477.783203 0)"/>
      <use xlink:href="#ArialMT-2d" transform="translate(550 0)"/>
      <use xlink:href="#ArialMT-67" transform="translate(583.300781 0)"/>
      <use xlink:href="#ArialMT-61" transform="translate(638.916016 0)"/>
      <use xlink:href="#ArialMT-74" transform="translate(694.53125 0)"/>
      <use xlink:href="#ArialMT-65" transform="translate(722.314453 0)"/>
      <use xlink:href="#ArialMT-20" transform="translate(777.929688 0)"/>
      <use xlink:href="#ArialMT-4f" transform="translate(805.712891 0)"/>
      <use xlink:href="#ArialMT-4e" transform="translate(883.496094 0)"/>
      <use xlink:href="#ArialMT-29" transform="translate(955.712891 0)"/>
     </g>
    </g>
    <g id="patch_43">
     <path d="M 643.722951 121.796312 
L 663.722951 121.796312 
L 663.722951 114.796312 
L 643.722951 114.796312 
z
" style="fill: #3498db; stroke: #000000; stroke-width: 0.5; stroke-linejoin: miter"/>
    </g>
    <g id="text_19">
     <!-- POSTN only -->
     <g style="fill: #262626" transform="translate(671.722951 121.796312) scale(0.1 -0.1)">
      <use xlink:href="#ArialMT-50"/>
      <use xlink:href="#ArialMT-4f" transform="translate(66.699219 0)"/>
      <use xlink:href="#ArialMT-53" transform="translate(144.482422 0)"/>
      <use xlink:href="#ArialMT-54" transform="translate(211.181641 0)"/>
      <use xlink:href="#ArialMT-4e" transform="translate(272.265625 0)"/>
      <use xlink:href="#ArialMT-20" transform="translate(344.482422 0)"/>
      <use xlink:href="#ArialMT-6f" transform="translate(372.265625 0)"/>
      <use xlink:href="#ArialMT-6e" transform="translate(427.880859 0)"/>
      <use xlink:href="#ArialMT-6c" transform="translate(483.496094 0)"/>
      <use xlink:href="#ArialMT-79" transform="translate(505.712891 0)"/>
     </g>
    </g>
    <g id="patch_44">
     <path d="M 643.722951 136.0885 
L 663.722951 136.0885 
L 663.722951 129.0885 
L 643.722951 129.0885 
z
" style="fill: #f39c12; stroke: #000000; stroke-width: 0.5; stroke-linejoin: miter"/>
    </g>
    <g id="text_20">
     <!-- ADAM12 only -->
     <g style="fill: #262626" transform="translate(671.722951 136.0885) scale(0.1 -0.1)">
      <defs>
       <path id="ArialMT-4d" d="M 475 0 
L 475 4581 
L 1388 4581 
L 2472 1338 
Q 2622 884 2691 659 
Q 2769 909 2934 1394 
L 4031 4581 
L 4847 4581 
L 4847 0 
L 4263 0 
L 4263 3834 
L 2931 0 
L 2384 0 
L 1059 3900 
L 1059 0 
L 475 0 
z
" transform="scale(0.015625)"/>
      </defs>
      <use xlink:href="#ArialMT-41"/>
      <use xlink:href="#ArialMT-44" transform="translate(66.699219 0)"/>
      <use xlink:href="#ArialMT-41" transform="translate(138.916016 0)"/>
      <use xlink:href="#ArialMT-4d" transform="translate(205.615234 0)"/>
      <use xlink:href="#ArialMT-31" transform="translate(288.916016 0)"/>
      <use xlink:href="#ArialMT-32" transform="translate(344.53125 0)"/>
      <use xlink:href="#ArialMT-20" transform="translate(400.146484 0)"/>
      <use xlink:href="#ArialMT-6f" transform="translate(427.929688 0)"/>
      <use xlink:href="#ArialMT-6e" transform="translate(483.544922 0)"/>
      <use xlink:href="#ArialMT-6c" transform="translate(539.160156 0)"/>
      <use xlink:href="#ArialMT-79" transform="translate(561.376953 0)"/>
     </g>
    </g>
    <g id="patch_45">
     <path d="M 643.722951 150.351 
L 663.722951 150.351 
L 663.722951 143.351 
L 643.722951 143.351 
z
" style="fill: #bdc3c7; stroke: #000000; stroke-width: 0.5; stroke-linejoin: miter"/>
    </g>
    <g id="text_21">
     <!-- Neither -->
     <g style="fill: #262626" transform="translate(671.722951 150.351) scale(0.1 -0.1)">
      <use xlink:href="#ArialMT-4e"/>
      <use xlink:href="#ArialMT-65" transform="translate(72.216797 0)"/>
      <use xlink:href="#ArialMT-69" transform="translate(127.832031 0)"/>
      <use xlink:href="#ArialMT-74" transform="translate(150.048828 0)"/>
      <use xlink:href="#ArialMT-68" transform="translate(177.832031 0)"/>
      <use xlink:href="#ArialMT-65" transform="translate(233.447266 0)"/>
      <use xlink:href="#ArialMT-72" transform="translate(289.0625 0)"/>
     </g>
    </g>
   </g>
  </g>
  <g id="axes_2">
   <g id="patch_46">
    <path d="M 852.1667 429.950912 
L 1414.551973 429.950912 
L 1414.551973 91.11975 
L 852.1667 91.11975 
z
" style="fill: #ffffff"/>
   </g>
   <g id="matplotlib.axis_3">
    <g id="xtick_10">
     <g id="text_22">
      <!-- Wound -->
      <g style="fill: #262626" transform="translate(853.888551 473.239649) rotate(-30) scale(0.14025 -0.14025)">
       <use xlink:href="#ArialMT-57"/>
       <use xlink:href="#ArialMT-6f" transform="translate(92.634766 0)"/>
       <use xlink:href="#ArialMT-75" transform="translate(148.25 0)"/>
       <use xlink:href="#ArialMT-6e" transform="translate(203.865234 0)"/>
       <use xlink:href="#ArialMT-64" transform="translate(259.480469 0)"/>
      </g>
      <!-- Skin -->
      <g style="fill: #262626" transform="translate(875.947215 477.632978) rotate(-30) scale(0.14025 -0.14025)">
       <use xlink:href="#ArialMT-53"/>
       <use xlink:href="#ArialMT-6b" transform="translate(66.699219 0)"/>
       <use xlink:href="#ArialMT-69" transform="translate(116.699219 0)"/>
       <use xlink:href="#ArialMT-6e" transform="translate(138.916016 0)"/>
      </g>
     </g>
    </g>
    <g id="xtick_11">
     <g id="text_23">
      <!-- Wound -->
      <g style="fill: #262626" transform="translate(911.986203 473.239649) rotate(-30) scale(0.14025 -0.14025)">
       <use xlink:href="#ArialMT-57"/>
       <use xlink:href="#ArialMT-6f" transform="translate(92.634766 0)"/>
       <use xlink:href="#ArialMT-75" transform="translate(148.25 0)"/>
       <use xlink:href="#ArialMT-6e" transform="translate(203.865234 0)"/>
       <use xlink:href="#ArialMT-64" transform="translate(259.480469 0)"/>
      </g>
      <!-- Wound1 -->
      <g style="fill: #262626" transform="translate(912.648918 489.985935) rotate(-30) scale(0.14025 -0.14025)">
       <use xlink:href="#ArialMT-57"/>
       <use xlink:href="#ArialMT-6f" transform="translate(92.634766 0)"/>
       <use xlink:href="#ArialMT-75" transform="translate(148.25 0)"/>
       <use xlink:href="#ArialMT-6e" transform="translate(203.865234 0)"/>
       <use xlink:href="#ArialMT-64" transform="translate(259.480469 0)"/>
       <use xlink:href="#ArialMT-31" transform="translate(315.095703 0)"/>
      </g>
     </g>
    </g>
    <g id="xtick_12">
     <g id="text_24">
      <!-- Wound -->
      <g style="fill: #262626" transform="translate(970.083855 473.239649) rotate(-30) scale(0.14025 -0.14025)">
       <use xlink:href="#ArialMT-57"/>
       <use xlink:href="#ArialMT-6f" transform="translate(92.634766 0)"/>
       <use xlink:href="#ArialMT-75" transform="translate(148.25 0)"/>
       <use xlink:href="#ArialMT-6e" transform="translate(203.865234 0)"/>
       <use xlink:href="#ArialMT-64" transform="translate(259.480469 0)"/>
      </g>
      <!-- Wound7 -->
      <g style="fill: #262626" transform="translate(970.746571 489.985935) rotate(-30) scale(0.14025 -0.14025)">
       <use xlink:href="#ArialMT-57"/>
       <use xlink:href="#ArialMT-6f" transform="translate(92.634766 0)"/>
       <use xlink:href="#ArialMT-75" transform="translate(148.25 0)"/>
       <use xlink:href="#ArialMT-6e" transform="translate(203.865234 0)"/>
       <use xlink:href="#ArialMT-64" transform="translate(259.480469 0)"/>
       <use xlink:href="#ArialMT-37" transform="translate(315.095703 0)"/>
      </g>
     </g>
    </g>
    <g id="xtick_13">
     <g id="text_25">
      <!-- Wound -->
      <g style="fill: #262626" transform="translate(1028.181507 473.239649) rotate(-30) scale(0.14025 -0.14025)">
       <use xlink:href="#ArialMT-57"/>
       <use xlink:href="#ArialMT-6f" transform="translate(92.634766 0)"/>
       <use xlink:href="#ArialMT-75" transform="translate(148.25 0)"/>
       <use xlink:href="#ArialMT-6e" transform="translate(203.865234 0)"/>
       <use xlink:href="#ArialMT-64" transform="translate(259.480469 0)"/>
      </g>
      <!-- Wound30 -->
      <g style="fill: #262626" transform="translate(1022.089905 493.885543) rotate(-30) scale(0.14025 -0.14025)">
       <use xlink:href="#ArialMT-57"/>
       <use xlink:href="#ArialMT-6f" transform="translate(92.634766 0)"/>
       <use xlink:href="#ArialMT-75" transform="translate(148.25 0)"/>
       <use xlink:href="#ArialMT-6e" transform="translate(203.865234 0)"/>
       <use xlink:href="#ArialMT-64" transform="translate(259.480469 0)"/>
       <use xlink:href="#ArialMT-33" transform="translate(315.095703 0)"/>
       <use xlink:href="#ArialMT-30" transform="translate(370.710938 0)"/>
      </g>
     </g>
    </g>
    <g id="xtick_14">
     <g id="text_26">
      <!-- Direder -->
      <g style="fill: #262626" transform="translate(1084.64457 474.135934) rotate(-30) scale(0.14025 -0.14025)">
       <use xlink:href="#ArialMT-44"/>
       <use xlink:href="#ArialMT-69" transform="translate(72.216797 0)"/>
       <use xlink:href="#ArialMT-72" transform="translate(94.433594 0)"/>
       <use xlink:href="#ArialMT-65" transform="translate(127.734375 0)"/>
       <use xlink:href="#ArialMT-64" transform="translate(183.349609 0)"/>
       <use xlink:href="#ArialMT-65" transform="translate(238.964844 0)"/>
       <use xlink:href="#ArialMT-72" transform="translate(294.580078 0)"/>
      </g>
      <!-- Healthy skin -->
      <g style="fill: #262626" transform="translate(1065.729442 502.185494) rotate(-30) scale(0.14025 -0.14025)">
       <use xlink:href="#ArialMT-48"/>
       <use xlink:href="#ArialMT-65" transform="translate(72.216797 0)"/>
       <use xlink:href="#ArialMT-61" transform="translate(127.832031 0)"/>
       <use xlink:href="#ArialMT-6c" transform="translate(183.447266 0)"/>
       <use xlink:href="#ArialMT-74" transform="translate(205.664062 0)"/>
       <use xlink:href="#ArialMT-68" transform="translate(233.447266 0)"/>
       <use xlink:href="#ArialMT-79" transform="translate(289.0625 0)"/>
       <use xlink:href="#ArialMT-20" transform="translate(339.0625 0)"/>
       <use xlink:href="#ArialMT-73" transform="translate(366.845703 0)"/>
       <use xlink:href="#ArialMT-6b" transform="translate(416.845703 0)"/>
       <use xlink:href="#ArialMT-69" transform="translate(466.845703 0)"/>
       <use xlink:href="#ArialMT-6e" transform="translate(489.0625 0)"/>
      </g>
     </g>
    </g>
    <g id="xtick_15">
     <g id="text_27">
      <!-- Direder -->
      <g style="fill: #262626" transform="translate(1142.8244 474.135934) rotate(-30) scale(0.14025 -0.14025)">
       <use xlink:href="#ArialMT-44"/>
       <use xlink:href="#ArialMT-69" transform="translate(72.216797 0)"/>
       <use xlink:href="#ArialMT-72" transform="translate(94.433594 0)"/>
       <use xlink:href="#ArialMT-65" transform="translate(127.734375 0)"/>
       <use xlink:href="#ArialMT-64" transform="translate(183.349609 0)"/>
       <use xlink:href="#ArialMT-65" transform="translate(238.964844 0)"/>
       <use xlink:href="#ArialMT-72" transform="translate(294.580078 0)"/>
      </g>
      <!-- Normal scar -->
      <g style="fill: #262626" transform="translate(1124.603871 501.784467) rotate(-30) scale(0.14025 -0.14025)">
       <use xlink:href="#ArialMT-4e"/>
       <use xlink:href="#ArialMT-6f" transform="translate(72.216797 0)"/>
       <use xlink:href="#ArialMT-72" transform="translate(127.832031 0)"/>
       <use xlink:href="#ArialMT-6d" transform="translate(161.132812 0)"/>
       <use xlink:href="#ArialMT-61" transform="translate(244.433594 0)"/>
       <use xlink:href="#ArialMT-6c" transform="translate(300.048828 0)"/>
       <use xlink:href="#ArialMT-20" transform="translate(322.265625 0)"/>
       <use xlink:href="#ArialMT-73" transform="translate(350.048828 0)"/>
       <use xlink:href="#ArialMT-63" transform="translate(400.048828 0)"/>
       <use xlink:href="#ArialMT-61" transform="translate(450.048828 0)"/>
       <use xlink:href="#ArialMT-72" transform="translate(505.664062 0)"/>
      </g>
     </g>
    </g>
    <g id="xtick_16">
     <g id="text_28">
      <!-- Direder -->
      <g style="fill: #262626" transform="translate(1200.922052 474.135934) rotate(-30) scale(0.14025 -0.14025)">
       <use xlink:href="#ArialMT-44"/>
       <use xlink:href="#ArialMT-69" transform="translate(72.216797 0)"/>
       <use xlink:href="#ArialMT-72" transform="translate(94.433594 0)"/>
       <use xlink:href="#ArialMT-65" transform="translate(127.734375 0)"/>
       <use xlink:href="#ArialMT-64" transform="translate(183.349609 0)"/>
       <use xlink:href="#ArialMT-65" transform="translate(238.964844 0)"/>
       <use xlink:href="#ArialMT-72" transform="translate(294.580078 0)"/>
      </g>
      <!-- Keloid -->
      <g style="fill: #262626" transform="translate(1214.398804 483.484033) rotate(-30) scale(0.14025 -0.14025)">
       <use xlink:href="#ArialMT-4b"/>
       <use xlink:href="#ArialMT-65" transform="translate(66.699219 0)"/>
       <use xlink:href="#ArialMT-6c" transform="translate(122.314453 0)"/>
       <use xlink:href="#ArialMT-6f" transform="translate(144.53125 0)"/>
       <use xlink:href="#ArialMT-69" transform="translate(200.146484 0)"/>
       <use xlink:href="#ArialMT-64" transform="translate(222.363281 0)"/>
      </g>
     </g>
    </g>
    <g id="xtick_17">
     <g id="text_29">
      <!-- Deng -->
      <g style="fill: #262626" transform="translate(1269.724699 467.907958) rotate(-30) scale(0.14025 -0.14025)">
       <use xlink:href="#ArialMT-44"/>
       <use xlink:href="#ArialMT-65" transform="translate(72.216797 0)"/>
       <use xlink:href="#ArialMT-6e" transform="translate(127.832031 0)"/>
       <use xlink:href="#ArialMT-67" transform="translate(183.447266 0)"/>
      </g>
      <!-- Normal scar -->
      <g style="fill: #262626" transform="translate(1240.799176 501.926803) rotate(-30) scale(0.14025 -0.14025)">
       <use xlink:href="#ArialMT-4e"/>
       <use xlink:href="#ArialMT-6f" transform="translate(72.216797 0)"/>
       <use xlink:href="#ArialMT-72" transform="translate(127.832031 0)"/>
       <use xlink:href="#ArialMT-6d" transform="translate(161.132812 0)"/>
       <use xlink:href="#ArialMT-61" transform="translate(244.433594 0)"/>
       <use xlink:href="#ArialMT-6c" transform="translate(300.048828 0)"/>
       <use xlink:href="#ArialMT-20" transform="translate(322.265625 0)"/>
       <use xlink:href="#ArialMT-73" transform="translate(350.048828 0)"/>
       <use xlink:href="#ArialMT-63" transform="translate(400.048828 0)"/>
       <use xlink:href="#ArialMT-61" transform="translate(450.048828 0)"/>
       <use xlink:href="#ArialMT-72" transform="translate(505.664062 0)"/>
      </g>
     </g>
    </g>
    <g id="xtick_18">
     <g id="text_30">
      <!-- Deng -->
      <g style="fill: #262626" transform="translate(1327.822351 467.907958) rotate(-30) scale(0.14025 -0.14025)">
       <use xlink:href="#ArialMT-44"/>
       <use xlink:href="#ArialMT-65" transform="translate(72.216797 0)"/>
       <use xlink:href="#ArialMT-6e" transform="translate(127.832031 0)"/>
       <use xlink:href="#ArialMT-67" transform="translate(183.447266 0)"/>
      </g>
      <!-- Keloid -->
      <g style="fill: #262626" transform="translate(1330.594109 483.626369) rotate(-30) scale(0.14025 -0.14025)">
       <use xlink:href="#ArialMT-4b"/>
       <use xlink:href="#ArialMT-65" transform="translate(66.699219 0)"/>
       <use xlink:href="#ArialMT-6c" transform="translate(122.314453 0)"/>
       <use xlink:href="#ArialMT-6f" transform="translate(144.53125 0)"/>
       <use xlink:href="#ArialMT-69" transform="translate(200.146484 0)"/>
       <use xlink:href="#ArialMT-64" transform="translate(222.363281 0)"/>
      </g>
     </g>
    </g>
   </g>
   <g id="matplotlib.axis_4">
    <g id="ytick_7">
     <g id="text_31">
      <!-- 0 -->
      <g style="fill: #262626" transform="translate(831.867485 434.970328) scale(0.14025 -0.14025)">
       <use xlink:href="#ArialMT-30"/>
      </g>
     </g>
    </g>
    <g id="ytick_8">
     <g id="text_32">
      <!-- 20 -->
      <g style="fill: #262626" transform="translate(824.06827 363.999368) scale(0.14025 -0.14025)">
       <use xlink:href="#ArialMT-32"/>
       <use xlink:href="#ArialMT-30" transform="translate(55.615234 0)"/>
      </g>
     </g>
    </g>
    <g id="ytick_9">
     <g id="text_33">
      <!-- 40 -->
      <g style="fill: #262626" transform="translate(824.06827 293.028408) scale(0.14025 -0.14025)">
       <use xlink:href="#ArialMT-34"/>
       <use xlink:href="#ArialMT-30" transform="translate(55.615234 0)"/>
      </g>
     </g>
    </g>
    <g id="ytick_10">
     <g id="text_34">
      <!-- 60 -->
      <g style="fill: #262626" transform="translate(824.06827 222.057448) scale(0.14025 -0.14025)">
       <use xlink:href="#ArialMT-36"/>
       <use xlink:href="#ArialMT-30" transform="translate(55.615234 0)"/>
      </g>
     </g>
    </g>
    <g id="ytick_11">
     <g id="text_35">
      <!-- 80 -->
      <g style="fill: #262626" transform="translate(824.06827 151.086487) scale(0.14025 -0.14025)">
       <use xlink:href="#ArialMT-38"/>
       <use xlink:href="#ArialMT-30" transform="translate(55.615234 0)"/>
      </g>
     </g>
    </g>
    <g id="text_36">
     <!-- % of cells with AND gate ON -->
     <g style="fill: #262626" transform="translate(800.250945 357.470393) rotate(-90) scale(0.153 -0.153)">
      <defs>
       <path id="ArialMT-77" d="M 1034 0 
L 19 3319 
L 600 3319 
L 1128 1403 
L 1325 691 
Q 1338 744 1497 1375 
L 2025 3319 
L 2603 3319 
L 3100 1394 
L 3266 759 
L 3456 1400 
L 4025 3319 
L 4572 3319 
L 3534 0 
L 2950 0 
L 2422 1988 
L 2294 2553 
L 1622 0 
L 1034 0 
z
" transform="scale(0.015625)"/>
      </defs>
      <use xlink:href="#ArialMT-25"/>
      <use xlink:href="#ArialMT-20" transform="translate(88.916016 0)"/>
      <use xlink:href="#ArialMT-6f" transform="translate(116.699219 0)"/>
      <use xlink:href="#ArialMT-66" transform="translate(172.314453 0)"/>
      <use xlink:href="#ArialMT-20" transform="translate(200.097656 0)"/>
      <use xlink:href="#ArialMT-63" transform="translate(227.880859 0)"/>
      <use xlink:href="#ArialMT-65" transform="translate(277.880859 0)"/>
      <use xlink:href="#ArialMT-6c" transform="translate(333.496094 0)"/>
      <use xlink:href="#ArialMT-6c" transform="translate(355.712891 0)"/>
      <use xlink:href="#ArialMT-73" transform="translate(377.929688 0)"/>
      <use xlink:href="#ArialMT-20" transform="translate(427.929688 0)"/>
      <use xlink:href="#ArialMT-77" transform="translate(455.712891 0)"/>
      <use xlink:href="#ArialMT-69" transform="translate(527.929688 0)"/>
      <use xlink:href="#ArialMT-74" transform="translate(550.146484 0)"/>
      <use xlink:href="#ArialMT-68" transform="translate(577.929688 0)"/>
      <use xlink:href="#ArialMT-20" transform="translate(633.544922 0)"/>
      <use xlink:href="#ArialMT-41" transform="translate(655.828125 0)"/>
      <use xlink:href="#ArialMT-4e" transform="translate(722.527344 0)"/>
      <use xlink:href="#ArialMT-44" transform="translate(794.744141 0)"/>
      <use xlink:href="#ArialMT-20" transform="translate(866.960938 0)"/>
      <use xlink:href="#ArialMT-67" transform="translate(894.744141 0)"/>
      <use xlink:href="#ArialMT-61" transform="translate(950.359375 0)"/>
      <use xlink:href="#ArialMT-74" transform="translate(1005.974609 0)"/>
      <use xlink:href="#ArialMT-65" transform="translate(1033.757812 0)"/>
      <use xlink:href="#ArialMT-20" transform="translate(1089.373047 0)"/>
      <use xlink:href="#ArialMT-4f" transform="translate(1117.15625 0)"/>
      <use xlink:href="#ArialMT-4e" transform="translate(1194.939453 0)"/>
     </g>
     <!-- (POSTN+ AND ADAM12+) -->
     <g style="fill: #262626" transform="translate(816.848098 351.091011) rotate(-90) scale(0.153 -0.153)">
      <defs>
       <path id="ArialMT-2b" d="M 1603 741 
L 1603 1997 
L 356 1997 
L 356 2522 
L 1603 2522 
L 1603 3769 
L 2134 3769 
L 2134 2522 
L 3381 2522 
L 3381 1997 
L 2134 1997 
L 2134 741 
L 1603 741 
z
" transform="scale(0.015625)"/>
      </defs>
      <use xlink:href="#ArialMT-28"/>
      <use xlink:href="#ArialMT-50" transform="translate(33.300781 0)"/>
      <use xlink:href="#ArialMT-4f" transform="translate(100 0)"/>
      <use xlink:href="#ArialMT-53" transform="translate(177.783203 0)"/>
      <use xlink:href="#ArialMT-54" transform="translate(244.482422 0)"/>
      <use xlink:href="#ArialMT-4e" transform="translate(305.566406 0)"/>
      <use xlink:href="#ArialMT-2b" transform="translate(377.783203 0)"/>
      <use xlink:href="#ArialMT-20" transform="translate(436.181641 0)"/>
      <use xlink:href="#ArialMT-41" transform="translate(458.464844 0)"/>
      <use xlink:href="#ArialMT-4e" transform="translate(525.164062 0)"/>
      <use xlink:href="#ArialMT-44" transform="translate(597.380859 0)"/>
      <use xlink:href="#ArialMT-20" transform="translate(669.597656 0)"/>
      <use xlink:href="#ArialMT-41" transform="translate(691.880859 0)"/>
      <use xlink:href="#ArialMT-44" transform="translate(758.580078 0)"/>
      <use xlink:href="#ArialMT-41" transform="translate(830.796875 0)"/>
      <use xlink:href="#ArialMT-4d" transform="translate(897.496094 0)"/>
      <use xlink:href="#ArialMT-31" transform="translate(980.796875 0)"/>
      <use xlink:href="#ArialMT-32" transform="translate(1036.412109 0)"/>
      <use xlink:href="#ArialMT-2b" transform="translate(1092.027344 0)"/>
      <use xlink:href="#ArialMT-29" transform="translate(1150.425781 0)"/>
     </g>
    </g>
   </g>
   <g id="patch_47">
    <path d="M 877.729667 429.950912 
L 924.207789 429.950912 
L 924.207789 420.057191 
L 877.729667 420.057191 
z
" clip-path="url(#p88cc9db839)" style="fill: #c0392b; stroke: #000000; stroke-width: 1.5; stroke-linejoin: miter"/>
   </g>
   <g id="patch_48">
    <path d="M 935.827319 429.950912 
L 982.305441 429.950912 
L 982.305441 411.366619 
L 935.827319 411.366619 
z
" clip-path="url(#p88cc9db839)" style="fill: #c0392b; stroke: #000000; stroke-width: 1.5; stroke-linejoin: miter"/>
   </g>
   <g id="patch_49">
    <path d="M 993.924971 429.950912 
L 1040.403093 429.950912 
L 1040.403093 212.078794 
L 993.924971 212.078794 
z
" clip-path="url(#p88cc9db839)" style="fill: #c0392b; stroke: #000000; stroke-width: 1.5; stroke-linejoin: miter"/>
   </g>
   <g id="patch_50">
    <path d="M 1052.022623 429.950912 
L 1098.500745 429.950912 
L 1098.500745 135.315119 
L 1052.022623 135.315119 
z
" clip-path="url(#p88cc9db839)" style="fill: #c0392b; stroke: #000000; stroke-width: 1.5; stroke-linejoin: miter"/>
   </g>
   <g id="patch_51">
    <path d="M 1110.120275 429.950912 
L 1156.598397 429.950912 
L 1156.598397 425.358973 
L 1110.120275 425.358973 
z
" clip-path="url(#p88cc9db839)" style="fill: #c0392b; stroke: #000000; stroke-width: 1.5; stroke-linejoin: miter"/>
   </g>
   <g id="patch_52">
    <path d="M 1168.217928 429.950912 
L 1214.696049 429.950912 
L 1214.696049 420.682165 
L 1168.217928 420.682165 
z
" clip-path="url(#p88cc9db839)" style="fill: #c0392b; stroke: #000000; stroke-width: 1.5; stroke-linejoin: miter"/>
   </g>
   <g id="patch_53">
    <path d="M 1226.31558 429.950912 
L 1272.793701 429.950912 
L 1272.793701 324.992332 
L 1226.31558 324.992332 
z
" clip-path="url(#p88cc9db839)" style="fill: #c0392b; stroke: #000000; stroke-width: 1.5; stroke-linejoin: miter"/>
   </g>
   <g id="patch_54">
    <path d="M 1284.413232 429.950912 
L 1330.891354 429.950912 
L 1330.891354 427.849663 
L 1284.413232 427.849663 
z
" clip-path="url(#p88cc9db839)" style="fill: #c0392b; stroke: #000000; stroke-width: 1.5; stroke-linejoin: miter"/>
   </g>
   <g id="patch_55">
    <path d="M 1342.510884 429.950912 
L 1388.989006 429.950912 
L 1388.989006 266.000293 
L 1342.510884 266.000293 
z
" clip-path="url(#p88cc9db839)" style="fill: #c0392b; stroke: #000000; stroke-width: 1.5; stroke-linejoin: miter"/>
   </g>
   <g id="patch_56">
    <path d="M 852.1667 429.950912 
L 852.1667 91.11975 
" style="fill: none; stroke: #262626; stroke-width: 1.875; stroke-linejoin: miter; stroke-linecap: square"/>
   </g>
   <g id="patch_57">
    <path d="M 852.1667 429.950912 
L 1414.551973 429.950912 
" style="fill: none; stroke: #262626; stroke-width: 1.875; stroke-linejoin: miter; stroke-linecap: square"/>
   </g>
   <g id="text_37">
    <!-- 3% -->
    <g style="fill: #262626" transform="translate(893.019509 416.508643) scale(0.11 -0.11)">
     <defs>
      <path id="Arial-BoldMT-33" d="M 241 1216 
L 1091 1319 
Q 1131 994 1309 822 
Q 1488 650 1741 650 
Q 2013 650 2198 856 
Q 2384 1063 2384 1413 
Q 2384 1744 2206 1937 
Q 2028 2131 1772 2131 
Q 1603 2131 1369 2066 
L 1466 2781 
Q 1822 2772 2009 2936 
Q 2197 3100 2197 3372 
Q 2197 3603 2059 3740 
Q 1922 3878 1694 3878 
Q 1469 3878 1309 3722 
Q 1150 3566 1116 3266 
L 306 3403 
Q 391 3819 561 4067 
Q 731 4316 1036 4458 
Q 1341 4600 1719 4600 
Q 2366 4600 2756 4188 
Q 3078 3850 3078 3425 
Q 3078 2822 2419 2463 
Q 2813 2378 3048 2084 
Q 3284 1791 3284 1375 
Q 3284 772 2843 347 
Q 2403 -78 1747 -78 
Q 1125 -78 715 280 
Q 306 638 241 1216 
z
" transform="scale(0.015625)"/>
      <path id="Arial-BoldMT-25" d="M 278 3450 
Q 278 4066 548 4362 
Q 819 4659 1281 4659 
Q 1759 4659 2029 4364 
Q 2300 4069 2300 3450 
Q 2300 2834 2029 2537 
Q 1759 2241 1297 2241 
Q 819 2241 548 2536 
Q 278 2831 278 3450 
z
M 963 3456 
Q 963 3009 1066 2856 
Q 1144 2744 1281 2744 
Q 1422 2744 1500 2856 
Q 1600 3009 1600 3456 
Q 1600 3903 1500 4053 
Q 1422 4169 1281 4169 
Q 1144 4169 1066 4056 
Q 963 3903 963 3456 
z
M 1950 -175 
L 1300 -175 
L 3741 4659 
L 4372 4659 
L 1950 -175 
z
M 3369 1028 
Q 3369 1644 3639 1941 
Q 3909 2238 4378 2238 
Q 4850 2238 5120 1941 
Q 5391 1644 5391 1028 
Q 5391 409 5120 112 
Q 4850 -184 4388 -184 
Q 3909 -184 3639 112 
Q 3369 409 3369 1028 
z
M 4053 1031 
Q 4053 584 4156 434 
Q 4234 319 4372 319 
Q 4513 319 4588 431 
Q 4691 584 4691 1031 
Q 4691 1478 4591 1631 
Q 4513 1744 4372 1744 
Q 4231 1744 4156 1631 
Q 4053 1478 4053 1031 
z
" transform="scale(0.015625)"/>
     </defs>
     <use xlink:href="#Arial-BoldMT-33"/>
     <use xlink:href="#Arial-BoldMT-25" transform="translate(55.615234 0)"/>
    </g>
   </g>
   <g id="text_38">
    <!-- 5% -->
    <g style="fill: #262626" transform="translate(951.117161 407.818071) scale(0.11 -0.11)">
     <defs>
      <path id="Arial-BoldMT-35" d="M 284 1178 
L 1159 1269 
Q 1197 972 1381 798 
Q 1566 625 1806 625 
Q 2081 625 2272 848 
Q 2463 1072 2463 1522 
Q 2463 1944 2273 2155 
Q 2084 2366 1781 2366 
Q 1403 2366 1103 2031 
L 391 2134 
L 841 4519 
L 3163 4519 
L 3163 3697 
L 1506 3697 
L 1369 2919 
Q 1663 3066 1969 3066 
Q 2553 3066 2959 2641 
Q 3366 2216 3366 1538 
Q 3366 972 3038 528 
Q 2591 -78 1797 -78 
Q 1163 -78 763 262 
Q 363 603 284 1178 
z
" transform="scale(0.015625)"/>
     </defs>
     <use xlink:href="#Arial-BoldMT-35"/>
     <use xlink:href="#Arial-BoldMT-25" transform="translate(55.615234 0)"/>
    </g>
   </g>
   <g id="text_39">
    <!-- 61% -->
    <g style="fill: #262626" transform="translate(1006.156298 208.530246) scale(0.11 -0.11)">
     <defs>
      <path id="Arial-BoldMT-36" d="M 3247 3459 
L 2397 3366 
Q 2366 3628 2234 3753 
Q 2103 3878 1894 3878 
Q 1616 3878 1423 3628 
Q 1231 3378 1181 2588 
Q 1509 2975 1997 2975 
Q 2547 2975 2939 2556 
Q 3331 2138 3331 1475 
Q 3331 772 2918 347 
Q 2506 -78 1859 -78 
Q 1166 -78 719 461 
Q 272 1000 272 2228 
Q 272 3488 737 4044 
Q 1203 4600 1947 4600 
Q 2469 4600 2811 4308 
Q 3153 4016 3247 3459 
z
M 1256 1544 
Q 1256 1116 1453 883 
Q 1650 650 1903 650 
Q 2147 650 2309 840 
Q 2472 1031 2472 1466 
Q 2472 1913 2297 2120 
Q 2122 2328 1859 2328 
Q 1606 2328 1431 2129 
Q 1256 1931 1256 1544 
z
" transform="scale(0.015625)"/>
      <path id="Arial-BoldMT-31" d="M 2519 0 
L 1641 0 
L 1641 3309 
Q 1159 2859 506 2644 
L 506 3441 
Q 850 3553 1253 3867 
Q 1656 4181 1806 4600 
L 2519 4600 
L 2519 0 
z
" transform="scale(0.015625)"/>
     </defs>
     <use xlink:href="#Arial-BoldMT-36"/>
     <use xlink:href="#Arial-BoldMT-31" transform="translate(55.615234 0)"/>
     <use xlink:href="#Arial-BoldMT-25" transform="translate(111.230469 0)"/>
    </g>
   </g>
   <g id="text_40">
    <!-- 83% -->
    <g style="fill: #262626" transform="translate(1064.25395 131.766571) scale(0.11 -0.11)">
     <defs>
      <path id="Arial-BoldMT-38" d="M 1025 2472 
Q 684 2616 529 2867 
Q 375 3119 375 3419 
Q 375 3931 733 4265 
Q 1091 4600 1750 4600 
Q 2403 4600 2764 4265 
Q 3125 3931 3125 3419 
Q 3125 3100 2959 2851 
Q 2794 2603 2494 2472 
Q 2875 2319 3073 2025 
Q 3272 1731 3272 1347 
Q 3272 713 2867 316 
Q 2463 -81 1791 -81 
Q 1166 -81 750 247 
Q 259 634 259 1309 
Q 259 1681 443 1992 
Q 628 2303 1025 2472 
z
M 1206 3356 
Q 1206 3094 1354 2947 
Q 1503 2800 1750 2800 
Q 2000 2800 2150 2948 
Q 2300 3097 2300 3359 
Q 2300 3606 2151 3754 
Q 2003 3903 1759 3903 
Q 1506 3903 1356 3753 
Q 1206 3603 1206 3356 
z
M 1125 1394 
Q 1125 1031 1311 828 
Q 1497 625 1775 625 
Q 2047 625 2225 820 
Q 2403 1016 2403 1384 
Q 2403 1706 2222 1901 
Q 2041 2097 1763 2097 
Q 1441 2097 1283 1875 
Q 1125 1653 1125 1394 
z
" transform="scale(0.015625)"/>
     </defs>
     <use xlink:href="#Arial-BoldMT-38"/>
     <use xlink:href="#Arial-BoldMT-33" transform="translate(55.615234 0)"/>
     <use xlink:href="#Arial-BoldMT-25" transform="translate(111.230469 0)"/>
    </g>
   </g>
   <g id="text_41">
    <!-- 1% -->
    <g style="fill: #262626" transform="translate(1125.410118 421.810425) scale(0.11 -0.11)">
     <use xlink:href="#Arial-BoldMT-31"/>
     <use xlink:href="#Arial-BoldMT-25" transform="translate(55.615234 0)"/>
    </g>
   </g>
   <g id="text_42">
    <!-- 3% -->
    <g style="fill: #262626" transform="translate(1183.50777 417.133617) scale(0.11 -0.11)">
     <use xlink:href="#Arial-BoldMT-33"/>
     <use xlink:href="#Arial-BoldMT-25" transform="translate(55.615234 0)"/>
    </g>
   </g>
   <g id="text_43">
    <!-- 30% -->
    <g style="fill: #262626" transform="translate(1238.546906 321.443784) scale(0.11 -0.11)">
     <defs>
      <path id="Arial-BoldMT-30" d="M 1756 4600 
Q 2422 4600 2797 4125 
Q 3244 3563 3244 2259 
Q 3244 959 2794 391 
Q 2422 -78 1756 -78 
Q 1088 -78 678 436 
Q 269 950 269 2269 
Q 269 3563 719 4131 
Q 1091 4600 1756 4600 
z
M 1756 3872 
Q 1597 3872 1472 3770 
Q 1347 3669 1278 3406 
Q 1188 3066 1188 2259 
Q 1188 1453 1269 1151 
Q 1350 850 1473 750 
Q 1597 650 1756 650 
Q 1916 650 2041 751 
Q 2166 853 2234 1116 
Q 2325 1453 2325 2259 
Q 2325 3066 2244 3367 
Q 2163 3669 2039 3770 
Q 1916 3872 1756 3872 
z
" transform="scale(0.015625)"/>
     </defs>
     <use xlink:href="#Arial-BoldMT-33"/>
     <use xlink:href="#Arial-BoldMT-30" transform="translate(55.615234 0)"/>
     <use xlink:href="#Arial-BoldMT-25" transform="translate(111.230469 0)"/>
    </g>
   </g>
   <g id="text_44">
    <!-- 1% -->
    <g style="fill: #262626" transform="translate(1299.703074 424.301115) scale(0.11 -0.11)">
     <use xlink:href="#Arial-BoldMT-31"/>
     <use xlink:href="#Arial-BoldMT-25" transform="translate(55.615234 0)"/>
    </g>
   </g>
   <g id="text_45">
    <!-- 46% -->
    <g style="fill: #262626" transform="translate(1354.74221 262.451745) scale(0.11 -0.11)">
     <defs>
      <path id="Arial-BoldMT-34" d="M 1994 0 
L 1994 922 
L 119 922 
L 119 1691 
L 2106 4600 
L 2844 4600 
L 2844 1694 
L 3413 1694 
L 3413 922 
L 2844 922 
L 2844 0 
L 1994 0 
z
M 1994 1694 
L 1994 3259 
L 941 1694 
L 1994 1694 
z
" transform="scale(0.015625)"/>
     </defs>
     <use xlink:href="#Arial-BoldMT-34"/>
     <use xlink:href="#Arial-BoldMT-36" transform="translate(55.615234 0)"/>
     <use xlink:href="#Arial-BoldMT-25" transform="translate(111.230469 0)"/>
    </g>
   </g>
   <g id="text_46">
    <!-- AND-gate empirical hit rate per condition -->
    <g style="fill: #262626" transform="translate(1025.316211 85.11975) scale(0.12 -0.12)">
     <use xlink:href="#ArialMT-41"/>
     <use xlink:href="#ArialMT-4e" transform="translate(66.699219 0)"/>
     <use xlink:href="#ArialMT-44" transform="translate(138.916016 0)"/>
     <use xlink:href="#ArialMT-2d" transform="translate(211.132812 0)"/>
     <use xlink:href="#ArialMT-67" transform="translate(244.433594 0)"/>
     <use xlink:href="#ArialMT-61" transform="translate(300.048828 0)"/>
     <use xlink:href="#ArialMT-74" transform="translate(355.664062 0)"/>
     <use xlink:href="#ArialMT-65" transform="translate(383.447266 0)"/>
     <use xlink:href="#ArialMT-20" transform="translate(439.0625 0)"/>
     <use xlink:href="#ArialMT-65" transform="translate(466.845703 0)"/>
     <use xlink:href="#ArialMT-6d" transform="translate(522.460938 0)"/>
     <use xlink:href="#ArialMT-70" transform="translate(605.761719 0)"/>
     <use xlink:href="#ArialMT-69" transform="translate(661.376953 0)"/>
     <use xlink:href="#ArialMT-72" transform="translate(683.59375 0)"/>
     <use xlink:href="#ArialMT-69" transform="translate(716.894531 0)"/>
     <use xlink:href="#ArialMT-63" transform="translate(739.111328 0)"/>
     <use xlink:href="#ArialMT-61" transform="translate(789.111328 0)"/>
     <use xlink:href="#ArialMT-6c" transform="translate(844.726562 0)"/>
     <use xlink:href="#ArialMT-20" transform="translate(866.943359 0)"/>
     <use xlink:href="#ArialMT-68" transform="translate(894.726562 0)"/>
     <use xlink:href="#ArialMT-69" transform="translate(950.341797 0)"/>
     <use xlink:href="#ArialMT-74" transform="translate(972.558594 0)"/>
     <use xlink:href="#ArialMT-20" transform="translate(1000.341797 0)"/>
     <use xlink:href="#ArialMT-72" transform="translate(1028.125 0)"/>
     <use xlink:href="#ArialMT-61" transform="translate(1061.425781 0)"/>
     <use xlink:href="#ArialMT-74" transform="translate(1117.041016 0)"/>
     <use xlink:href="#ArialMT-65" transform="translate(1144.824219 0)"/>
     <use xlink:href="#ArialMT-20" transform="translate(1200.439453 0)"/>
     <use xlink:href="#ArialMT-70" transform="translate(1228.222656 0)"/>
     <use xlink:href="#ArialMT-65" transform="translate(1283.837891 0)"/>
     <use xlink:href="#ArialMT-72" transform="translate(1339.453125 0)"/>
     <use xlink:href="#ArialMT-20" transform="translate(1372.753906 0)"/>
     <use xlink:href="#ArialMT-63" transform="translate(1400.537109 0)"/>
     <use xlink:href="#ArialMT-6f" transform="translate(1450.537109 0)"/>
     <use xlink:href="#ArialMT-6e" transform="translate(1506.152344 0)"/>
     <use xlink:href="#ArialMT-64" transform="translate(1561.767578 0)"/>
     <use xlink:href="#ArialMT-69" transform="translate(1617.382812 0)"/>
     <use xlink:href="#ArialMT-74" transform="translate(1639.599609 0)"/>
     <use xlink:href="#ArialMT-69" transform="translate(1667.382812 0)"/>
     <use xlink:href="#ArialMT-6f" transform="translate(1689.599609 0)"/>
     <use xlink:href="#ArialMT-6e" transform="translate(1745.214844 0)"/>
    </g>
   </g>
  </g>
  <g id="text_47">
   <!-- AND-gate (POSTN ∩ ADAM12) per-cell hit rate across all conditions -->
   <g style="fill: #262626" transform="translate(499.867379 17.400312) scale(0.14 -0.14)">
    <defs>
     <path id="ArialMT-2229" d="M 916 0 
L 494 0 
L 494 1941 
Q 494 2756 516 2972 
Q 553 3363 659 3616 
Q 766 3869 998 4112 
Q 1231 4356 1573 4509 
Q 1916 4663 2303 4663 
Q 2675 4663 3011 4517 
Q 3347 4372 3597 4122 
Q 3847 3872 3955 3590 
Q 4063 3309 4097 2888 
Q 4109 2725 4109 1941 
L 4109 0 
L 3691 0 
L 3691 1963 
Q 3691 2672 3672 2869 
Q 3641 3225 3558 3436 
Q 3475 3647 3301 3831 
Q 3128 4016 2858 4134 
Q 2588 4253 2300 4253 
Q 2013 4253 1731 4128 
Q 1450 4003 1270 3798 
Q 1091 3594 1019 3350 
Q 947 3106 925 2781 
Q 916 2613 916 1963 
L 916 0 
z
" transform="scale(0.015625)"/>
    </defs>
    <use xlink:href="#ArialMT-41"/>
    <use xlink:href="#ArialMT-4e" transform="translate(66.699219 0)"/>
    <use xlink:href="#ArialMT-44" transform="translate(138.916016 0)"/>
    <use xlink:href="#ArialMT-2d" transform="translate(211.132812 0)"/>
    <use xlink:href="#ArialMT-67" transform="translate(244.433594 0)"/>
    <use xlink:href="#ArialMT-61" transform="translate(300.048828 0)"/>
    <use xlink:href="#ArialMT-74" transform="translate(355.664062 0)"/>
    <use xlink:href="#ArialMT-65" transform="translate(383.447266 0)"/>
    <use xlink:href="#ArialMT-20" transform="translate(439.0625 0)"/>
    <use xlink:href="#ArialMT-28" transform="translate(466.845703 0)"/>
    <use xlink:href="#ArialMT-50" transform="translate(500.146484 0)"/>
    <use xlink:href="#ArialMT-4f" transform="translate(566.845703 0)"/>
    <use xlink:href="#ArialMT-53" transform="translate(644.628906 0)"/>
    <use xlink:href="#ArialMT-54" transform="translate(711.328125 0)"/>
    <use xlink:href="#ArialMT-4e" transform="translate(772.412109 0)"/>
    <use xlink:href="#ArialMT-20" transform="translate(844.628906 0)"/>
    <use xlink:href="#ArialMT-2229" transform="translate(872.412109 0)"/>
    <use xlink:href="#ArialMT-20" transform="translate(944.287109 0)"/>
    <use xlink:href="#ArialMT-41" transform="translate(966.570312 0)"/>
    <use xlink:href="#ArialMT-44" transform="translate(1033.269531 0)"/>
    <use xlink:href="#ArialMT-41" transform="translate(1105.486328 0)"/>
    <use xlink:href="#ArialMT-4d" transform="translate(1172.185547 0)"/>
    <use xlink:href="#ArialMT-31" transform="translate(1255.486328 0)"/>
    <use xlink:href="#ArialMT-32" transform="translate(1311.101562 0)"/>
    <use xlink:href="#ArialMT-29" transform="translate(1366.716797 0)"/>
    <use xlink:href="#ArialMT-20" transform="translate(1400.017578 0)"/>
    <use xlink:href="#ArialMT-70" transform="translate(1427.800781 0)"/>
    <use xlink:href="#ArialMT-65" transform="translate(1483.416016 0)"/>
    <use xlink:href="#ArialMT-72" transform="translate(1539.03125 0)"/>
    <use xlink:href="#ArialMT-2d" transform="translate(1572.332031 0)"/>
    <use xlink:href="#ArialMT-63" transform="translate(1605.632812 0)"/>
    <use xlink:href="#ArialMT-65" transform="translate(1655.632812 0)"/>
    <use xlink:href="#ArialMT-6c" transform="translate(1711.248047 0)"/>
    <use xlink:href="#ArialMT-6c" transform="translate(1733.464844 0)"/>
    <use xlink:href="#ArialMT-20" transform="translate(1755.681641 0)"/>
    <use xlink:href="#ArialMT-68" transform="translate(1783.464844 0)"/>
    <use xlink:href="#ArialMT-69" transform="translate(1839.080078 0)"/>
    <use xlink:href="#ArialMT-74" transform="translate(1861.296875 0)"/>
    <use xlink:href="#ArialMT-20" transform="translate(1889.080078 0)"/>
    <use xlink:href="#ArialMT-72" transform="translate(1916.863281 0)"/>
    <use xlink:href="#ArialMT-61" transform="translate(1950.164062 0)"/>
    <use xlink:href="#ArialMT-74" transform="translate(2005.779297 0)"/>
    <use xlink:href="#ArialMT-65" transform="translate(2033.5625 0)"/>
    <use xlink:href="#ArialMT-20" transform="translate(2089.177734 0)"/>
    <use xlink:href="#ArialMT-61" transform="translate(2116.960938 0)"/>
    <use xlink:href="#ArialMT-63" transform="translate(2172.576172 0)"/>
    <use xlink:href="#ArialMT-72" transform="translate(2222.576172 0)"/>
    <use xlink:href="#ArialMT-6f" transform="translate(2255.876953 0)"/>
    <use xlink:href="#ArialMT-73" transform="translate(2311.492188 0)"/>
    <use xlink:href="#ArialMT-73" transform="translate(2361.492188 0)"/>
    <use xlink:href="#ArialMT-20" transform="translate(2411.492188 0)"/>
    <use xlink:href="#ArialMT-61" transform="translate(2439.275391 0)"/>
    <use xlink:href="#ArialMT-6c" transform="translate(2494.890625 0)"/>
    <use xlink:href="#ArialMT-6c" transform="translate(2517.107422 0)"/>
    <use xlink:href="#ArialMT-20" transform="translate(2539.324219 0)"/>
    <use xlink:href="#ArialMT-63" transform="translate(2567.107422 0)"/>
    <use xlink:href="#ArialMT-6f" transform="translate(2617.107422 0)"/>
    <use xlink:href="#ArialMT-6e" transform="translate(2672.722656 0)"/>
    <use xlink:href="#ArialMT-64" transform="translate(2728.337891 0)"/>
    <use xlink:href="#ArialMT-69" transform="translate(2783.953125 0)"/>
    <use xlink:href="#ArialMT-74" transform="translate(2806.169922 0)"/>
    <use xlink:href="#ArialMT-69" transform="translate(2833.953125 0)"/>
    <use xlink:href="#ArialMT-6f" transform="translate(2856.169922 0)"/>
    <use xlink:href="#ArialMT-6e" transform="translate(2911.785156 0)"/>
    <use xlink:href="#ArialMT-73" transform="translate(2967.400391 0)"/>
   </g>
  </g>
 </g>
 <defs>
  <clipPath id="p8cccbfdffd">
   <rect x="61.089973" y="91.11975" width="562.385273" height="338.831162"/>
  </clipPath>
  <clipPath id="p88cc9db839">
   <rect x="852.1667" y="91.11975" width="562.385273" height="338.831162"/>
  </clipPath>
 </defs>
</svg>
