<?xml version="1.0" encoding="utf-8" standalone="no"?>
<!DOCTYPE svg PUBLIC "-//W3C//DTD SVG 1.1//EN"
  "http://www.w3.org/Graphics/SVG/1.1/DTD/svg11.dtd">
<svg xmlns:xlink="http://www.w3.org/1999/xlink" width="1422.264998pt" height="475.221849pt" viewBox="0 0 1422.264998 475.221849" xmlns="http://www.w3.org/2000/svg" version="1.1">
 <metadata>
  <rdf:RDF xmlns:dc="http://purl.org/dc/elements/1.1/" xmlns:cc="http://creativecommons.org/ns#" xmlns:rdf="http://www.w3.org/1999/02/22-rdf-syntax-ns#">
   <cc:Work>
    <dc:type rdf:resource="http://purl.org/dc/dcmitype/StillImage"/>
    <dc:date>2026-05-03T16:15:13.612089</dc:date>
    <dc:format>image/svg+xml</dc:format>
    <dc:creator>
     <cc:Agent>
      <dc:title>Matplotlib v3.10.8, https://matplotlib.org/</dc:title>
     </cc:Agent>
    </dc:creator>
   </cc:Work>
  </rdf:RDF>
 </metadata>
 <defs>
  <style type="text/css">*{stroke-linejoin: round; stroke-linecap: butt}</style>
 </defs>
 <g id="figure_1">
  <g id="patch_1">
   <path d="M 0 475.221849 
L 1422.264998 475.221849 
L 1422.264998 -0 
L 0 -0 
z
" style="fill: #ffffff"/>
  </g>
  <g id="axes_1">
   <g id="patch_2">
    <path d="M 82.329998 393.230912 
L 717.357998 393.230912 
L 717.357998 95.701875 
L 82.329998 95.701875 
z
" style="fill: #ffffff"/>
   </g>
   <g id="matplotlib.axis_1">
    <g id="xtick_1">
     <g id="text_1">
      <!-- Wound -->
      <g style="fill: #262626" transform="translate(64.114731 436.519649) rotate(-30) scale(0.14025 -0.14025)">
       <defs>
        <path id="ArialMT-57" d="M 1294 0 
L 78 4581 
L 700 4581 
L 1397 1578 
Q 1509 1106 1591 641 
Q 1766 1375 1797 1488 
L 2669 4581 
L 3400 4581 
L 4056 2263 
Q 4303 1400 4413 641 
Q 4500 1075 4641 1638 
L 5359 4581 
L 5969 4581 
L 4713 0 
L 4128 0 
L 3163 3491 
Q 3041 3928 3019 4028 
Q 2947 3713 2884 3491 
L 1913 0 
L 1294 0 
z
" transform="scale(0.015625)"/>
        <path id="ArialMT-6f" d="M 213 1659 
Q 213 2581 725 3025 
Q 1153 3394 1769 3394 
Q 2453 3394 2887 2945 
Q 3322 2497 3322 1706 
Q 3322 1066 3130 698 
Q 2938 331 2570 128 
Q 2203 -75 1769 -75 
Q 1072 -75 642 372 
Q 213 819 213 1659 
z
M 791 1659 
Q 791 1022 1069 705 
Q 1347 388 1769 388 
Q 2188 388 2466 706 
Q 2744 1025 2744 1678 
Q 2744 2294 2464 2611 
Q 2184 2928 1769 2928 
Q 1347 2928 1069 2612 
Q 791 2297 791 1659 
z
" transform="scale(0.015625)"/>
        <path id="ArialMT-75" d="M 2597 0 
L 2597 488 
Q 2209 -75 1544 -75 
Q 1250 -75 995 37 
Q 741 150 617 320 
Q 494 491 444 738 
Q 409 903 409 1263 
L 409 3319 
L 972 3319 
L 972 1478 
Q 972 1038 1006 884 
Q 1059 663 1231 536 
Q 1403 409 1656 409 
Q 1909 409 2131 539 
Q 2353 669 2445 892 
Q 2538 1116 2538 1541 
L 2538 3319 
L 3100 3319 
L 3100 0 
L 2597 0 
z
" transform="scale(0.015625)"/>
        <path id="ArialMT-6e" d="M 422 0 
L 422 3319 
L 928 3319 
L 928 2847 
Q 1294 3394 1984 3394 
Q 2284 3394 2536 3286 
Q 2788 3178 2913 3003 
Q 3038 2828 3088 2588 
Q 3119 2431 3119 2041 
L 3119 0 
L 2556 0 
L 2556 2019 
Q 2556 2363 2490 2533 
Q 2425 2703 2258 2804 
Q 2091 2906 1866 2906 
Q 1506 2906 1245 2678 
Q 984 2450 984 1813 
L 984 0 
L 422 0 
z
" transform="scale(0.015625)"/>
        <path id="ArialMT-64" d="M 2575 0 
L 2575 419 
Q 2259 -75 1647 -75 
Q 1250 -75 917 144 
Q 584 363 401 755 
Q 219 1147 219 1656 
Q 219 2153 384 2558 
Q 550 2963 881 3178 
Q 1213 3394 1622 3394 
Q 1922 3394 2156 3267 
Q 2391 3141 2538 2938 
L 2538 4581 
L 3097 4581 
L 3097 0 
L 2575 0 
z
M 797 1656 
Q 797 1019 1065 703 
Q 1334 388 1700 388 
Q 2069 388 2326 689 
Q 2584 991 2584 1609 
Q 2584 2291 2321 2609 
Q 2059 2928 1675 2928 
Q 1300 2928 1048 2622 
Q 797 2316 797 1656 
z
" transform="scale(0.015625)"/>
       </defs>
       <use xlink:href="#ArialMT-57"/>
       <use xlink:href="#ArialMT-6f" transform="translate(92.634766 0)"/>
       <use xlink:href="#ArialMT-75" transform="translate(148.25 0)"/>
       <use xlink:href="#ArialMT-6e" transform="translate(203.865234 0)"/>
       <use xlink:href="#ArialMT-64" transform="translate(259.480469 0)"/>
      </g>
      <!-- Skin -->
      <g style="fill: #262626" transform="translate(86.173395 440.912978) rotate(-30) scale(0.14025 -0.14025)">
       <defs>
        <path id="ArialMT-53" d="M 288 1472 
L 859 1522 
Q 900 1178 1048 958 
Q 1197 738 1509 602 
Q 1822 466 2213 466 
Q 2559 466 2825 569 
Q 3091 672 3220 851 
Q 3350 1031 3350 1244 
Q 3350 1459 3225 1620 
Q 3100 1781 2813 1891 
Q 2628 1963 1997 2114 
Q 1366 2266 1113 2400 
Q 784 2572 623 2826 
Q 463 3081 463 3397 
Q 463 3744 659 4045 
Q 856 4347 1234 4503 
Q 1613 4659 2075 4659 
Q 2584 4659 2973 4495 
Q 3363 4331 3572 4012 
Q 3781 3694 3797 3291 
L 3216 3247 
Q 3169 3681 2898 3903 
Q 2628 4125 2100 4125 
Q 1550 4125 1298 3923 
Q 1047 3722 1047 3438 
Q 1047 3191 1225 3031 
Q 1400 2872 2139 2705 
Q 2878 2538 3153 2413 
Q 3553 2228 3743 1945 
Q 3934 1663 3934 1294 
Q 3934 928 3725 604 
Q 3516 281 3123 101 
Q 2731 -78 2241 -78 
Q 1619 -78 1198 103 
Q 778 284 539 648 
Q 300 1013 288 1472 
z
" transform="scale(0.015625)"/>
        <path id="ArialMT-6b" d="M 425 0 
L 425 4581 
L 988 4581 
L 988 1969 
L 2319 3319 
L 3047 3319 
L 1778 2088 
L 3175 0 
L 2481 0 
L 1384 1697 
L 988 1316 
L 988 0 
L 425 0 
z
" transform="scale(0.015625)"/>
        <path id="ArialMT-69" d="M 425 3934 
L 425 4581 
L 988 4581 
L 988 3934 
L 425 3934 
z
M 425 0 
L 425 3319 
L 988 3319 
L 988 0 
L 425 0 
z
" transform="scale(0.015625)"/>
       </defs>
       <use xlink:href="#ArialMT-53"/>
       <use xlink:href="#ArialMT-6b" transform="translate(66.699219 0)"/>
       <use xlink:href="#ArialMT-69" transform="translate(116.699219 0)"/>
       <use xlink:href="#ArialMT-6e" transform="translate(138.916016 0)"/>
      </g>
     </g>
    </g>
    <g id="xtick_2">
     <g id="text_2">
      <!-- Wound -->
      <g style="fill: #262626" transform="translate(136.277003 436.519649) rotate(-30) scale(0.14025 -0.14025)">
       <use xlink:href="#ArialMT-57"/>
       <use xlink:href="#ArialMT-6f" transform="translate(92.634766 0)"/>
       <use xlink:href="#ArialMT-75" transform="translate(148.25 0)"/>
       <use xlink:href="#ArialMT-6e" transform="translate(203.865234 0)"/>
       <use xlink:href="#ArialMT-64" transform="translate(259.480469 0)"/>
      </g>
      <!-- Wound1 -->
      <g style="fill: #262626" transform="translate(136.939719 453.265935) rotate(-30) scale(0.14025 -0.14025)">
       <defs>
        <path id="ArialMT-31" d="M 2384 0 
L 1822 0 
L 1822 3584 
Q 1619 3391 1289 3197 
Q 959 3003 697 2906 
L 697 3450 
Q 1169 3672 1522 3987 
Q 1875 4303 2022 4600 
L 2384 4600 
L 2384 0 
z
" transform="scale(0.015625)"/>
       </defs>
       <use xlink:href="#ArialMT-57"/>
       <use xlink:href="#ArialMT-6f" transform="translate(92.634766 0)"/>
       <use xlink:href="#ArialMT-75" transform="translate(148.25 0)"/>
       <use xlink:href="#ArialMT-6e" transform="translate(203.865234 0)"/>
       <use xlink:href="#ArialMT-64" transform="translate(259.480469 0)"/>
       <use xlink:href="#ArialMT-31" transform="translate(315.095703 0)"/>
      </g>
     </g>
    </g>
    <g id="xtick_3">
     <g id="text_3">
      <!-- Wound -->
      <g style="fill: #262626" transform="translate(208.439276 436.519649) rotate(-30) scale(0.14025 -0.14025)">
       <use xlink:href="#ArialMT-57"/>
       <use xlink:href="#ArialMT-6f" transform="translate(92.634766 0)"/>
       <use xlink:href="#ArialMT-75" transform="translate(148.25 0)"/>
       <use xlink:href="#ArialMT-6e" transform="translate(203.865234 0)"/>
       <use xlink:href="#ArialMT-64" transform="translate(259.480469 0)"/>
      </g>
      <!-- Wound7 -->
      <g style="fill: #262626" transform="translate(209.101992 453.265935) rotate(-30) scale(0.14025 -0.14025)">
       <defs>
        <path id="ArialMT-37" d="M 303 3981 
L 303 4522 
L 3269 4522 
L 3269 4084 
Q 2831 3619 2401 2847 
Q 1972 2075 1738 1259 
Q 1569 684 1522 0 
L 944 0 
Q 953 541 1156 1306 
Q 1359 2072 1739 2783 
Q 2119 3494 2547 3981 
L 303 3981 
z
" transform="scale(0.015625)"/>
       </defs>
       <use xlink:href="#ArialMT-57"/>
       <use xlink:href="#ArialMT-6f" transform="translate(92.634766 0)"/>
       <use xlink:href="#ArialMT-75" transform="translate(148.25 0)"/>
       <use xlink:href="#ArialMT-6e" transform="translate(203.865234 0)"/>
       <use xlink:href="#ArialMT-64" transform="translate(259.480469 0)"/>
       <use xlink:href="#ArialMT-37" transform="translate(315.095703 0)"/>
      </g>
     </g>
    </g>
    <g id="xtick_4">
     <g id="text_4">
      <!-- Wound -->
      <g style="fill: #262626" transform="translate(280.601549 436.519649) rotate(-30) scale(0.14025 -0.14025)">
       <use xlink:href="#ArialMT-57"/>
       <use xlink:href="#ArialMT-6f" transform="translate(92.634766 0)"/>
       <use xlink:href="#ArialMT-75" transform="translate(148.25 0)"/>
       <use xlink:href="#ArialMT-6e" transform="translate(203.865234 0)"/>
       <use xlink:href="#ArialMT-64" transform="translate(259.480469 0)"/>
      </g>
      <!-- Wound30 -->
      <g style="fill: #262626" transform="translate(274.509946 457.165543) rotate(-30) scale(0.14025 -0.14025)">
       <defs>
        <path id="ArialMT-33" d="M 269 1209 
L 831 1284 
Q 928 806 1161 595 
Q 1394 384 1728 384 
Q 2125 384 2398 659 
Q 2672 934 2672 1341 
Q 2672 1728 2419 1979 
Q 2166 2231 1775 2231 
Q 1616 2231 1378 2169 
L 1441 2663 
Q 1497 2656 1531 2656 
Q 1891 2656 2178 2843 
Q 2466 3031 2466 3422 
Q 2466 3731 2256 3934 
Q 2047 4138 1716 4138 
Q 1388 4138 1169 3931 
Q 950 3725 888 3313 
L 325 3413 
Q 428 3978 793 4289 
Q 1159 4600 1703 4600 
Q 2078 4600 2393 4439 
Q 2709 4278 2876 4000 
Q 3044 3722 3044 3409 
Q 3044 3113 2884 2869 
Q 2725 2625 2413 2481 
Q 2819 2388 3044 2092 
Q 3269 1797 3269 1353 
Q 3269 753 2831 336 
Q 2394 -81 1725 -81 
Q 1122 -81 723 278 
Q 325 638 269 1209 
z
" transform="scale(0.015625)"/>
        <path id="ArialMT-30" d="M 266 2259 
Q 266 3072 433 3567 
Q 600 4063 929 4331 
Q 1259 4600 1759 4600 
Q 2128 4600 2406 4451 
Q 2684 4303 2865 4023 
Q 3047 3744 3150 3342 
Q 3253 2941 3253 2259 
Q 3253 1453 3087 958 
Q 2922 463 2592 192 
Q 2263 -78 1759 -78 
Q 1097 -78 719 397 
Q 266 969 266 2259 
z
M 844 2259 
Q 844 1131 1108 757 
Q 1372 384 1759 384 
Q 2147 384 2411 759 
Q 2675 1134 2675 2259 
Q 2675 3391 2411 3762 
Q 2147 4134 1753 4134 
Q 1366 4134 1134 3806 
Q 844 3388 844 2259 
z
" transform="scale(0.015625)"/>
       </defs>
       <use xlink:href="#ArialMT-57"/>
       <use xlink:href="#ArialMT-6f" transform="translate(92.634766 0)"/>
       <use xlink:href="#ArialMT-75" transform="translate(148.25 0)"/>
       <use xlink:href="#ArialMT-6e" transform="translate(203.865234 0)"/>
       <use xlink:href="#ArialMT-64" transform="translate(259.480469 0)"/>
       <use xlink:href="#ArialMT-33" transform="translate(315.095703 0)"/>
       <use xlink:href="#ArialMT-30" transform="translate(370.710938 0)"/>
      </g>
     </g>
    </g>
    <g id="xtick_5">
     <g id="text_5">
      <!-- Deng -->
      <g style="fill: #262626" transform="translate(361.916404 431.187958) rotate(-30) scale(0.14025 -0.14025)">
       <defs>
        <path id="ArialMT-44" d="M 494 0 
L 494 4581 
L 2072 4581 
Q 2606 4581 2888 4516 
Q 3281 4425 3559 4188 
Q 3922 3881 4101 3404 
Q 4281 2928 4281 2316 
Q 4281 1794 4159 1391 
Q 4038 988 3847 723 
Q 3656 459 3429 307 
Q 3203 156 2883 78 
Q 2563 0 2147 0 
L 494 0 
z
M 1100 541 
L 2078 541 
Q 2531 541 2789 625 
Q 3047 709 3200 863 
Q 3416 1078 3536 1442 
Q 3656 1806 3656 2325 
Q 3656 3044 3420 3430 
Q 3184 3816 2847 3947 
Q 2603 4041 2063 4041 
L 1100 4041 
L 1100 541 
z
" transform="scale(0.015625)"/>
        <path id="ArialMT-65" d="M 2694 1069 
L 3275 997 
Q 3138 488 2766 206 
Q 2394 -75 1816 -75 
Q 1088 -75 661 373 
Q 234 822 234 1631 
Q 234 2469 665 2931 
Q 1097 3394 1784 3394 
Q 2450 3394 2872 2941 
Q 3294 2488 3294 1666 
Q 3294 1616 3291 1516 
L 816 1516 
Q 847 969 1125 678 
Q 1403 388 1819 388 
Q 2128 388 2347 550 
Q 2566 713 2694 1069 
z
M 847 1978 
L 2700 1978 
Q 2663 2397 2488 2606 
Q 2219 2931 1791 2931 
Q 1403 2931 1139 2672 
Q 875 2413 847 1978 
z
" transform="scale(0.015625)"/>
        <path id="ArialMT-67" d="M 319 -275 
L 866 -356 
Q 900 -609 1056 -725 
Q 1266 -881 1628 -881 
Q 2019 -881 2231 -725 
Q 2444 -569 2519 -288 
Q 2563 -116 2559 434 
Q 2191 0 1641 0 
Q 956 0 581 494 
Q 206 988 206 1678 
Q 206 2153 378 2554 
Q 550 2956 876 3175 
Q 1203 3394 1644 3394 
Q 2231 3394 2613 2919 
L 2613 3319 
L 3131 3319 
L 3131 450 
Q 3131 -325 2973 -648 
Q 2816 -972 2473 -1159 
Q 2131 -1347 1631 -1347 
Q 1038 -1347 672 -1080 
Q 306 -813 319 -275 
z
M 784 1719 
Q 784 1066 1043 766 
Q 1303 466 1694 466 
Q 2081 466 2343 764 
Q 2606 1063 2606 1700 
Q 2606 2309 2336 2618 
Q 2066 2928 1684 2928 
Q 1309 2928 1046 2623 
Q 784 2319 784 1719 
z
" transform="scale(0.015625)"/>
       </defs>
       <use xlink:href="#ArialMT-44"/>
       <use xlink:href="#ArialMT-65" transform="translate(72.216797 0)"/>
       <use xlink:href="#ArialMT-6e" transform="translate(127.832031 0)"/>
       <use xlink:href="#ArialMT-67" transform="translate(183.447266 0)"/>
      </g>
      <!-- Keloid -->
      <g style="fill: #262626" transform="translate(364.688162 446.906369) rotate(-30) scale(0.14025 -0.14025)">
       <defs>
        <path id="ArialMT-4b" d="M 469 0 
L 469 4581 
L 1075 4581 
L 1075 2309 
L 3350 4581 
L 4172 4581 
L 2250 2725 
L 4256 0 
L 3456 0 
L 1825 2319 
L 1075 1588 
L 1075 0 
L 469 0 
z
" transform="scale(0.015625)"/>
        <path id="ArialMT-6c" d="M 409 0 
L 409 4581 
L 972 4581 
L 972 0 
L 409 0 
z
" transform="scale(0.015625)"/>
       </defs>
       <use xlink:href="#ArialMT-4b"/>
       <use xlink:href="#ArialMT-65" transform="translate(66.699219 0)"/>
       <use xlink:href="#ArialMT-6c" transform="translate(122.314453 0)"/>
       <use xlink:href="#ArialMT-6f" transform="translate(144.53125 0)"/>
       <use xlink:href="#ArialMT-69" transform="translate(200.146484 0)"/>
       <use xlink:href="#ArialMT-64" transform="translate(222.363281 0)"/>
      </g>
     </g>
    </g>
    <g id="xtick_6">
     <g id="text_6">
      <!-- Deng -->
      <g style="fill: #262626" transform="translate(434.078677 431.187958) rotate(-30) scale(0.14025 -0.14025)">
       <use xlink:href="#ArialMT-44"/>
       <use xlink:href="#ArialMT-65" transform="translate(72.216797 0)"/>
       <use xlink:href="#ArialMT-6e" transform="translate(127.832031 0)"/>
       <use xlink:href="#ArialMT-67" transform="translate(183.447266 0)"/>
      </g>
      <!-- Normal scar -->
      <g style="fill: #262626" transform="translate(405.153154 465.206803) rotate(-30) scale(0.14025 -0.14025)">
       <defs>
        <path id="ArialMT-4e" d="M 488 0 
L 488 4581 
L 1109 4581 
L 3516 984 
L 3516 4581 
L 4097 4581 
L 4097 0 
L 3475 0 
L 1069 3600 
L 1069 0 
L 488 0 
z
" transform="scale(0.015625)"/>
        <path id="ArialMT-72" d="M 416 0 
L 416 3319 
L 922 3319 
L 922 2816 
Q 1116 3169 1280 3281 
Q 1444 3394 1641 3394 
Q 1925 3394 2219 3213 
L 2025 2691 
Q 1819 2813 1613 2813 
Q 1428 2813 1281 2702 
Q 1134 2591 1072 2394 
Q 978 2094 978 1738 
L 978 0 
L 416 0 
z
" transform="scale(0.015625)"/>
        <path id="ArialMT-6d" d="M 422 0 
L 422 3319 
L 925 3319 
L 925 2853 
Q 1081 3097 1340 3245 
Q 1600 3394 1931 3394 
Q 2300 3394 2536 3241 
Q 2772 3088 2869 2813 
Q 3263 3394 3894 3394 
Q 4388 3394 4653 3120 
Q 4919 2847 4919 2278 
L 4919 0 
L 4359 0 
L 4359 2091 
Q 4359 2428 4304 2576 
Q 4250 2725 4106 2815 
Q 3963 2906 3769 2906 
Q 3419 2906 3187 2673 
Q 2956 2441 2956 1928 
L 2956 0 
L 2394 0 
L 2394 2156 
Q 2394 2531 2256 2718 
Q 2119 2906 1806 2906 
Q 1569 2906 1367 2781 
Q 1166 2656 1075 2415 
Q 984 2175 984 1722 
L 984 0 
L 422 0 
z
" transform="scale(0.015625)"/>
        <path id="ArialMT-61" d="M 2588 409 
Q 2275 144 1986 34 
Q 1697 -75 1366 -75 
Q 819 -75 525 192 
Q 231 459 231 875 
Q 231 1119 342 1320 
Q 453 1522 633 1644 
Q 813 1766 1038 1828 
Q 1203 1872 1538 1913 
Q 2219 1994 2541 2106 
Q 2544 2222 2544 2253 
Q 2544 2597 2384 2738 
Q 2169 2928 1744 2928 
Q 1347 2928 1158 2789 
Q 969 2650 878 2297 
L 328 2372 
Q 403 2725 575 2942 
Q 747 3159 1072 3276 
Q 1397 3394 1825 3394 
Q 2250 3394 2515 3294 
Q 2781 3194 2906 3042 
Q 3031 2891 3081 2659 
Q 3109 2516 3109 2141 
L 3109 1391 
Q 3109 606 3145 398 
Q 3181 191 3288 0 
L 2700 0 
Q 2613 175 2588 409 
z
M 2541 1666 
Q 2234 1541 1622 1453 
Q 1275 1403 1131 1340 
Q 988 1278 909 1158 
Q 831 1038 831 891 
Q 831 666 1001 516 
Q 1172 366 1500 366 
Q 1825 366 2078 508 
Q 2331 650 2450 897 
Q 2541 1088 2541 1459 
L 2541 1666 
z
" transform="scale(0.015625)"/>
        <path id="ArialMT-20" transform="scale(0.015625)"/>
        <path id="ArialMT-73" d="M 197 991 
L 753 1078 
Q 800 744 1014 566 
Q 1228 388 1613 388 
Q 2000 388 2187 545 
Q 2375 703 2375 916 
Q 2375 1106 2209 1216 
Q 2094 1291 1634 1406 
Q 1016 1563 777 1677 
Q 538 1791 414 1992 
Q 291 2194 291 2438 
Q 291 2659 392 2848 
Q 494 3038 669 3163 
Q 800 3259 1026 3326 
Q 1253 3394 1513 3394 
Q 1903 3394 2198 3281 
Q 2494 3169 2634 2976 
Q 2775 2784 2828 2463 
L 2278 2388 
Q 2241 2644 2061 2787 
Q 1881 2931 1553 2931 
Q 1166 2931 1000 2803 
Q 834 2675 834 2503 
Q 834 2394 903 2306 
Q 972 2216 1119 2156 
Q 1203 2125 1616 2013 
Q 2213 1853 2448 1751 
Q 2684 1650 2818 1456 
Q 2953 1263 2953 975 
Q 2953 694 2789 445 
Q 2625 197 2315 61 
Q 2006 -75 1616 -75 
Q 969 -75 630 194 
Q 291 463 197 991 
z
" transform="scale(0.015625)"/>
        <path id="ArialMT-63" d="M 2588 1216 
L 3141 1144 
Q 3050 572 2676 248 
Q 2303 -75 1759 -75 
Q 1078 -75 664 370 
Q 250 816 250 1647 
Q 250 2184 428 2587 
Q 606 2991 970 3192 
Q 1334 3394 1763 3394 
Q 2303 3394 2647 3120 
Q 2991 2847 3088 2344 
L 2541 2259 
Q 2463 2594 2264 2762 
Q 2066 2931 1784 2931 
Q 1359 2931 1093 2626 
Q 828 2322 828 1663 
Q 828 994 1084 691 
Q 1341 388 1753 388 
Q 2084 388 2306 591 
Q 2528 794 2588 1216 
z
" transform="scale(0.015625)"/>
       </defs>
       <use xlink:href="#ArialMT-4e"/>
       <use xlink:href="#ArialMT-6f" transform="translate(72.216797 0)"/>
       <use xlink:href="#ArialMT-72" transform="translate(127.832031 0)"/>
       <use xlink:href="#ArialMT-6d" transform="translate(161.132812 0)"/>
       <use xlink:href="#ArialMT-61" transform="translate(244.433594 0)"/>
       <use xlink:href="#ArialMT-6c" transform="translate(300.048828 0)"/>
       <use xlink:href="#ArialMT-20" transform="translate(322.265625 0)"/>
       <use xlink:href="#ArialMT-73" transform="translate(350.048828 0)"/>
       <use xlink:href="#ArialMT-63" transform="translate(400.048828 0)"/>
       <use xlink:href="#ArialMT-61" transform="translate(450.048828 0)"/>
       <use xlink:href="#ArialMT-72" transform="translate(505.664062 0)"/>
      </g>
     </g>
    </g>
    <g id="xtick_7">
     <g id="text_7">
      <!-- Direder -->
      <g style="fill: #262626" transform="translate(495.535956 437.415934) rotate(-30) scale(0.14025 -0.14025)">
       <use xlink:href="#ArialMT-44"/>
       <use xlink:href="#ArialMT-69" transform="translate(72.216797 0)"/>
       <use xlink:href="#ArialMT-72" transform="translate(94.433594 0)"/>
       <use xlink:href="#ArialMT-65" transform="translate(127.734375 0)"/>
       <use xlink:href="#ArialMT-64" transform="translate(183.349609 0)"/>
       <use xlink:href="#ArialMT-65" transform="translate(238.964844 0)"/>
       <use xlink:href="#ArialMT-72" transform="translate(294.580078 0)"/>
      </g>
      <!-- Keloid -->
      <g style="fill: #262626" transform="translate(509.012708 446.764033) rotate(-30) scale(0.14025 -0.14025)">
       <use xlink:href="#ArialMT-4b"/>
       <use xlink:href="#ArialMT-65" transform="translate(66.699219 0)"/>
       <use xlink:href="#ArialMT-6c" transform="translate(122.314453 0)"/>
       <use xlink:href="#ArialMT-6f" transform="translate(144.53125 0)"/>
       <use xlink:href="#ArialMT-69" transform="translate(200.146484 0)"/>
       <use xlink:href="#ArialMT-64" transform="translate(222.363281 0)"/>
      </g>
     </g>
    </g>
    <g id="xtick_8">
     <g id="text_8">
      <!-- Direder -->
      <g style="fill: #262626" transform="translate(567.698228 437.415934) rotate(-30) scale(0.14025 -0.14025)">
       <use xlink:href="#ArialMT-44"/>
       <use xlink:href="#ArialMT-69" transform="translate(72.216797 0)"/>
       <use xlink:href="#ArialMT-72" transform="translate(94.433594 0)"/>
       <use xlink:href="#ArialMT-65" transform="translate(127.734375 0)"/>
       <use xlink:href="#ArialMT-64" transform="translate(183.349609 0)"/>
       <use xlink:href="#ArialMT-65" transform="translate(238.964844 0)"/>
       <use xlink:href="#ArialMT-72" transform="translate(294.580078 0)"/>
      </g>
      <!-- Normal scar -->
      <g style="fill: #262626" transform="translate(549.4777 465.064467) rotate(-30) scale(0.14025 -0.14025)">
       <use xlink:href="#ArialMT-4e"/>
       <use xlink:href="#ArialMT-6f" transform="translate(72.216797 0)"/>
       <use xlink:href="#ArialMT-72" transform="translate(127.832031 0)"/>
       <use xlink:href="#ArialMT-6d" transform="translate(161.132812 0)"/>
       <use xlink:href="#ArialMT-61" transform="translate(244.433594 0)"/>
       <use xlink:href="#ArialMT-6c" transform="translate(300.048828 0)"/>
       <use xlink:href="#ArialMT-20" transform="translate(322.265625 0)"/>
       <use xlink:href="#ArialMT-73" transform="translate(350.048828 0)"/>
       <use xlink:href="#ArialMT-63" transform="translate(400.048828 0)"/>
       <use xlink:href="#ArialMT-61" transform="translate(450.048828 0)"/>
       <use xlink:href="#ArialMT-72" transform="translate(505.664062 0)"/>
      </g>
     </g>
    </g>
    <g id="xtick_9">
     <g id="text_9">
      <!-- Direder -->
      <g style="fill: #262626" transform="translate(639.778323 437.415934) rotate(-30) scale(0.14025 -0.14025)">
       <use xlink:href="#ArialMT-44"/>
       <use xlink:href="#ArialMT-69" transform="translate(72.216797 0)"/>
       <use xlink:href="#ArialMT-72" transform="translate(94.433594 0)"/>
       <use xlink:href="#ArialMT-65" transform="translate(127.734375 0)"/>
       <use xlink:href="#ArialMT-64" transform="translate(183.349609 0)"/>
       <use xlink:href="#ArialMT-65" transform="translate(238.964844 0)"/>
       <use xlink:href="#ArialMT-72" transform="translate(294.580078 0)"/>
      </g>
      <!-- Healthy skin -->
      <g style="fill: #262626" transform="translate(620.863195 465.465494) rotate(-30) scale(0.14025 -0.14025)">
       <defs>
        <path id="ArialMT-48" d="M 513 0 
L 513 4581 
L 1119 4581 
L 1119 2700 
L 3500 2700 
L 3500 4581 
L 4106 4581 
L 4106 0 
L 3500 0 
L 3500 2159 
L 1119 2159 
L 1119 0 
L 513 0 
z
" transform="scale(0.015625)"/>
        <path id="ArialMT-74" d="M 1650 503 
L 1731 6 
Q 1494 -44 1306 -44 
Q 1000 -44 831 53 
Q 663 150 594 308 
Q 525 466 525 972 
L 525 2881 
L 113 2881 
L 113 3319 
L 525 3319 
L 525 4141 
L 1084 4478 
L 1084 3319 
L 1650 3319 
L 1650 2881 
L 1084 2881 
L 1084 941 
Q 1084 700 1114 631 
Q 1144 563 1211 522 
Q 1278 481 1403 481 
Q 1497 481 1650 503 
z
" transform="scale(0.015625)"/>
        <path id="ArialMT-68" d="M 422 0 
L 422 4581 
L 984 4581 
L 984 2938 
Q 1378 3394 1978 3394 
Q 2347 3394 2619 3248 
Q 2891 3103 3008 2847 
Q 3125 2591 3125 2103 
L 3125 0 
L 2563 0 
L 2563 2103 
Q 2563 2525 2380 2717 
Q 2197 2909 1863 2909 
Q 1613 2909 1392 2779 
Q 1172 2650 1078 2428 
Q 984 2206 984 1816 
L 984 0 
L 422 0 
z
" transform="scale(0.015625)"/>
        <path id="ArialMT-79" d="M 397 -1278 
L 334 -750 
Q 519 -800 656 -800 
Q 844 -800 956 -737 
Q 1069 -675 1141 -563 
Q 1194 -478 1313 -144 
Q 1328 -97 1363 -6 
L 103 3319 
L 709 3319 
L 1400 1397 
Q 1534 1031 1641 628 
Q 1738 1016 1872 1384 
L 2581 3319 
L 3144 3319 
L 1881 -56 
Q 1678 -603 1566 -809 
Q 1416 -1088 1222 -1217 
Q 1028 -1347 759 -1347 
Q 597 -1347 397 -1278 
z
" transform="scale(0.015625)"/>
       </defs>
       <use xlink:href="#ArialMT-48"/>
       <use xlink:href="#ArialMT-65" transform="translate(72.216797 0)"/>
       <use xlink:href="#ArialMT-61" transform="translate(127.832031 0)"/>
       <use xlink:href="#ArialMT-6c" transform="translate(183.447266 0)"/>
       <use xlink:href="#ArialMT-74" transform="translate(205.664062 0)"/>
       <use xlink:href="#ArialMT-68" transform="translate(233.447266 0)"/>
       <use xlink:href="#ArialMT-79" transform="translate(289.0625 0)"/>
       <use xlink:href="#ArialMT-20" transform="translate(339.0625 0)"/>
       <use xlink:href="#ArialMT-73" transform="translate(366.845703 0)"/>
       <use xlink:href="#ArialMT-6b" transform="translate(416.845703 0)"/>
       <use xlink:href="#ArialMT-69" transform="translate(466.845703 0)"/>
       <use xlink:href="#ArialMT-6e" transform="translate(489.0625 0)"/>
      </g>
     </g>
    </g>
   </g>
   <g id="matplotlib.axis_2">
    <g id="ytick_1">
     <g id="text_10">
      <!-- −0.5 -->
      <g style="fill: #262626" transform="translate(42.143772 357.489624) scale(0.14025 -0.14025)">
       <defs>
        <path id="ArialMT-2212" d="M 3381 1997 
L 356 1997 
L 356 2522 
L 3381 2522 
L 3381 1997 
z
" transform="scale(0.015625)"/>
        <path id="ArialMT-2e" d="M 581 0 
L 581 641 
L 1222 641 
L 1222 0 
L 581 0 
z
" transform="scale(0.015625)"/>
        <path id="ArialMT-35" d="M 266 1200 
L 856 1250 
Q 922 819 1161 601 
Q 1400 384 1738 384 
Q 2144 384 2425 690 
Q 2706 997 2706 1503 
Q 2706 1984 2436 2262 
Q 2166 2541 1728 2541 
Q 1456 2541 1237 2417 
Q 1019 2294 894 2097 
L 366 2166 
L 809 4519 
L 3088 4519 
L 3088 3981 
L 1259 3981 
L 1013 2750 
Q 1425 3038 1878 3038 
Q 2478 3038 2890 2622 
Q 3303 2206 3303 1553 
Q 3303 931 2941 478 
Q 2500 -78 1738 -78 
Q 1113 -78 717 272 
Q 322 622 266 1200 
z
" transform="scale(0.015625)"/>
       </defs>
       <use xlink:href="#ArialMT-2212"/>
       <use xlink:href="#ArialMT-30" transform="translate(58.398438 0)"/>
       <use xlink:href="#ArialMT-2e" transform="translate(114.013672 0)"/>
       <use xlink:href="#ArialMT-35" transform="translate(141.796875 0)"/>
      </g>
     </g>
    </g>
    <g id="ytick_2">
     <g id="text_11">
      <!-- 0.0 -->
      <g style="fill: #262626" transform="translate(50.335248 296.418456) scale(0.14025 -0.14025)">
       <use xlink:href="#ArialMT-30"/>
       <use xlink:href="#ArialMT-2e" transform="translate(55.615234 0)"/>
       <use xlink:href="#ArialMT-30" transform="translate(83.398438 0)"/>
      </g>
     </g>
    </g>
    <g id="ytick_3">
     <g id="text_12">
      <!-- 0.5 -->
      <g style="fill: #262626" transform="translate(50.335248 235.347288) scale(0.14025 -0.14025)">
       <use xlink:href="#ArialMT-30"/>
       <use xlink:href="#ArialMT-2e" transform="translate(55.615234 0)"/>
       <use xlink:href="#ArialMT-35" transform="translate(83.398438 0)"/>
      </g>
     </g>
    </g>
    <g id="ytick_4">
     <g id="text_13">
      <!-- 1.0 -->
      <g style="fill: #262626" transform="translate(50.335248 174.27612) scale(0.14025 -0.14025)">
       <use xlink:href="#ArialMT-31"/>
       <use xlink:href="#ArialMT-2e" transform="translate(55.615234 0)"/>
       <use xlink:href="#ArialMT-30" transform="translate(83.398438 0)"/>
      </g>
     </g>
    </g>
    <g id="ytick_5">
     <g id="text_14">
      <!-- 1.5 -->
      <g style="fill: #262626" transform="translate(50.335248 113.204952) scale(0.14025 -0.14025)">
       <use xlink:href="#ArialMT-31"/>
       <use xlink:href="#ArialMT-2e" transform="translate(55.615234 0)"/>
       <use xlink:href="#ArialMT-35" transform="translate(83.398438 0)"/>
      </g>
     </g>
    </g>
    <g id="text_15">
     <!-- Mean mesenchymal-fibroblast -->
     <g style="fill: #262626" transform="translate(18.337922 346.501854) rotate(-90) scale(0.153 -0.153)">
      <defs>
       <path id="ArialMT-4d" d="M 475 0 
L 475 4581 
L 1388 4581 
L 2472 1338 
Q 2622 884 2691 659 
Q 2769 909 2934 1394 
L 4031 4581 
L 4847 4581 
L 4847 0 
L 4263 0 
L 4263 3834 
L 2931 0 
L 2384 0 
L 1059 3900 
L 1059 0 
L 475 0 
z
" transform="scale(0.015625)"/>
       <path id="ArialMT-2d" d="M 203 1375 
L 203 1941 
L 1931 1941 
L 1931 1375 
L 203 1375 
z
" transform="scale(0.015625)"/>
       <path id="ArialMT-66" d="M 556 0 
L 556 2881 
L 59 2881 
L 59 3319 
L 556 3319 
L 556 3672 
Q 556 4006 616 4169 
Q 697 4388 901 4523 
Q 1106 4659 1475 4659 
Q 1713 4659 2000 4603 
L 1916 4113 
Q 1741 4144 1584 4144 
Q 1328 4144 1222 4034 
Q 1116 3925 1116 3625 
L 1116 3319 
L 1763 3319 
L 1763 2881 
L 1116 2881 
L 1116 0 
L 556 0 
z
" transform="scale(0.015625)"/>
       <path id="ArialMT-62" d="M 941 0 
L 419 0 
L 419 4581 
L 981 4581 
L 981 2947 
Q 1338 3394 1891 3394 
Q 2197 3394 2470 3270 
Q 2744 3147 2920 2923 
Q 3097 2700 3197 2384 
Q 3297 2069 3297 1709 
Q 3297 856 2875 390 
Q 2453 -75 1863 -75 
Q 1275 -75 941 416 
L 941 0 
z
M 934 1684 
Q 934 1088 1097 822 
Q 1363 388 1816 388 
Q 2184 388 2453 708 
Q 2722 1028 2722 1663 
Q 2722 2313 2464 2622 
Q 2206 2931 1841 2931 
Q 1472 2931 1203 2611 
Q 934 2291 934 1684 
z
" transform="scale(0.015625)"/>
      </defs>
      <use xlink:href="#ArialMT-4d"/>
      <use xlink:href="#ArialMT-65" transform="translate(83.300781 0)"/>
      <use xlink:href="#ArialMT-61" transform="translate(138.916016 0)"/>
      <use xlink:href="#ArialMT-6e" transform="translate(194.53125 0)"/>
      <use xlink:href="#ArialMT-20" transform="translate(250.146484 0)"/>
      <use xlink:href="#ArialMT-6d" transform="translate(277.929688 0)"/>
      <use xlink:href="#ArialMT-65" transform="translate(361.230469 0)"/>
      <use xlink:href="#ArialMT-73" transform="translate(416.845703 0)"/>
      <use xlink:href="#ArialMT-65" transform="translate(466.845703 0)"/>
      <use xlink:href="#ArialMT-6e" transform="translate(522.460938 0)"/>
      <use xlink:href="#ArialMT-63" transform="translate(578.076172 0)"/>
      <use xlink:href="#ArialMT-68" transform="translate(628.076172 0)"/>
      <use xlink:href="#ArialMT-79" transform="translate(683.691406 0)"/>
      <use xlink:href="#ArialMT-6d" transform="translate(733.691406 0)"/>
      <use xlink:href="#ArialMT-61" transform="translate(816.992188 0)"/>
      <use xlink:href="#ArialMT-6c" transform="translate(872.607422 0)"/>
      <use xlink:href="#ArialMT-2d" transform="translate(894.824219 0)"/>
      <use xlink:href="#ArialMT-66" transform="translate(928.125 0)"/>
      <use xlink:href="#ArialMT-69" transform="translate(955.908203 0)"/>
      <use xlink:href="#ArialMT-62" transform="translate(978.125 0)"/>
      <use xlink:href="#ArialMT-72" transform="translate(1033.740234 0)"/>
      <use xlink:href="#ArialMT-6f" transform="translate(1067.041016 0)"/>
      <use xlink:href="#ArialMT-62" transform="translate(1122.65625 0)"/>
      <use xlink:href="#ArialMT-6c" transform="translate(1178.271484 0)"/>
      <use xlink:href="#ArialMT-61" transform="translate(1200.488281 0)"/>
      <use xlink:href="#ArialMT-73" transform="translate(1256.103516 0)"/>
      <use xlink:href="#ArialMT-74" transform="translate(1306.103516 0)"/>
     </g>
     <!-- signature score (per sample) -->
     <g style="fill: #262626" transform="translate(34.9236 341.824597) rotate(-90) scale(0.153 -0.153)">
      <defs>
       <path id="ArialMT-28" d="M 1497 -1347 
Q 1031 -759 709 28 
Q 388 816 388 1659 
Q 388 2403 628 3084 
Q 909 3875 1497 4659 
L 1900 4659 
Q 1522 4009 1400 3731 
Q 1209 3300 1100 2831 
Q 966 2247 966 1656 
Q 966 153 1900 -1347 
L 1497 -1347 
z
" transform="scale(0.015625)"/>
       <path id="ArialMT-70" d="M 422 -1272 
L 422 3319 
L 934 3319 
L 934 2888 
Q 1116 3141 1344 3267 
Q 1572 3394 1897 3394 
Q 2322 3394 2647 3175 
Q 2972 2956 3137 2557 
Q 3303 2159 3303 1684 
Q 3303 1175 3120 767 
Q 2938 359 2589 142 
Q 2241 -75 1856 -75 
Q 1575 -75 1351 44 
Q 1128 163 984 344 
L 984 -1272 
L 422 -1272 
z
M 931 1641 
Q 931 1000 1190 694 
Q 1450 388 1819 388 
Q 2194 388 2461 705 
Q 2728 1022 2728 1688 
Q 2728 2322 2467 2637 
Q 2206 2953 1844 2953 
Q 1484 2953 1207 2617 
Q 931 2281 931 1641 
z
" transform="scale(0.015625)"/>
       <path id="ArialMT-29" d="M 791 -1347 
L 388 -1347 
Q 1322 153 1322 1656 
Q 1322 2244 1188 2822 
Q 1081 3291 891 3722 
Q 769 4003 388 4659 
L 791 4659 
Q 1378 3875 1659 3084 
Q 1900 2403 1900 1659 
Q 1900 816 1576 28 
Q 1253 -759 791 -1347 
z
" transform="scale(0.015625)"/>
      </defs>
      <use xlink:href="#ArialMT-73"/>
      <use xlink:href="#ArialMT-69" transform="translate(50 0)"/>
      <use xlink:href="#ArialMT-67" transform="translate(72.216797 0)"/>
      <use xlink:href="#ArialMT-6e" transform="translate(127.832031 0)"/>
      <use xlink:href="#ArialMT-61" transform="translate(183.447266 0)"/>
      <use xlink:href="#ArialMT-74" transform="translate(239.0625 0)"/>
      <use xlink:href="#ArialMT-75" transform="translate(266.845703 0)"/>
      <use xlink:href="#ArialMT-72" transform="translate(322.460938 0)"/>
      <use xlink:href="#ArialMT-65" transform="translate(355.761719 0)"/>
      <use xlink:href="#ArialMT-20" transform="translate(411.376953 0)"/>
      <use xlink:href="#ArialMT-73" transform="translate(439.160156 0)"/>
      <use xlink:href="#ArialMT-63" transform="translate(489.160156 0)"/>
      <use xlink:href="#ArialMT-6f" transform="translate(539.160156 0)"/>
      <use xlink:href="#ArialMT-72" transform="translate(594.775391 0)"/>
      <use xlink:href="#ArialMT-65" transform="translate(628.076172 0)"/>
      <use xlink:href="#ArialMT-20" transform="translate(683.691406 0)"/>
      <use xlink:href="#ArialMT-28" transform="translate(711.474609 0)"/>
      <use xlink:href="#ArialMT-70" transform="translate(744.775391 0)"/>
      <use xlink:href="#ArialMT-65" transform="translate(800.390625 0)"/>
      <use xlink:href="#ArialMT-72" transform="translate(856.005859 0)"/>
      <use xlink:href="#ArialMT-20" transform="translate(889.306641 0)"/>
      <use xlink:href="#ArialMT-73" transform="translate(917.089844 0)"/>
      <use xlink:href="#ArialMT-61" transform="translate(967.089844 0)"/>
      <use xlink:href="#ArialMT-6d" transform="translate(1022.705078 0)"/>
      <use xlink:href="#ArialMT-70" transform="translate(1106.005859 0)"/>
      <use xlink:href="#ArialMT-6c" transform="translate(1161.621094 0)"/>
      <use xlink:href="#ArialMT-65" transform="translate(1183.837891 0)"/>
      <use xlink:href="#ArialMT-29" transform="translate(1239.453125 0)"/>
     </g>
    </g>
   </g>
   <g id="line2d_1">
    <path d="M 111.194908 303.723365 
L 183.35718 310.490295 
L 255.519453 257.479898 
L 327.681726 132.382472 
L 688.493089 357.656049 
L 616.330817 357.57197 
L 544.168544 229.106596 
L 472.006271 302.44463 
L 399.843998 198.787149 
" clip-path="url(#pd4b01d1c57)" style="fill: none; stroke: #7f8c8d; stroke-opacity: 0.5; stroke-linecap: round"/>
   </g>
   <g id="line2d_2">
    <path d="M 82.329998 254.756339 
L 717.357998 254.756339 
" clip-path="url(#pd4b01d1c57)" style="fill: none; stroke-dasharray: 3.7,1.6; stroke-dashoffset: 0; stroke: #ff0000; stroke-opacity: 0.5"/>
   </g>
   <g id="patch_3">
    <path d="M 82.329998 393.230912 
L 82.329998 95.701875 
" style="fill: none; stroke: #262626; stroke-width: 1.875; stroke-linejoin: miter; stroke-linecap: square"/>
   </g>
   <g id="patch_4">
    <path d="M 82.329998 393.230912 
L 717.357998 393.230912 
" style="fill: none; stroke: #262626; stroke-width: 1.875; stroke-linejoin: miter; stroke-linecap: square"/>
   </g>
   <g id="PathCollection_1">
    <defs>
     <path id="mf8152293a9" d="M 0 5.477226 
C 1.452577 5.477226 2.845856 4.900111 3.872983 3.872983 
C 4.900111 2.845856 5.477226 1.452577 5.477226 0 
C 5.477226 -1.452577 4.900111 -2.845856 3.872983 -3.872983 
C 2.845856 -4.900111 1.452577 -5.477226 0 -5.477226 
C -1.452577 -5.477226 -2.845856 -4.900111 -3.872983 -3.872983 
C -4.900111 -2.845856 -5.477226 -1.452577 -5.477226 0 
C -5.477226 1.452577 -4.900111 2.845856 -3.872983 3.872983 
C -2.845856 4.900111 -1.452577 5.477226 0 5.477226 
z
" style="stroke: #000000; stroke-width: 0.8"/>
    </defs>
    <g clip-path="url(#pd4b01d1c57)">
     <use xlink:href="#mf8152293a9" x="111.194908" y="303.159489" style="fill: #5dade2; stroke: #000000; stroke-width: 0.8"/>
     <use xlink:href="#mf8152293a9" x="183.35718" y="319.964021" style="fill: #5dade2; stroke: #000000; stroke-width: 0.8"/>
     <use xlink:href="#mf8152293a9" x="255.519453" y="239.942466" style="fill: #5dade2; stroke: #000000; stroke-width: 0.8"/>
     <use xlink:href="#mf8152293a9" x="327.681726" y="162.822952" style="fill: #5dade2; stroke: #000000; stroke-width: 0.8"/>
     <use xlink:href="#mf8152293a9" x="111.194908" y="302.194597" style="fill: #5dade2; stroke: #000000; stroke-width: 0.8"/>
     <use xlink:href="#mf8152293a9" x="183.35718" y="308.557941" style="fill: #5dade2; stroke: #000000; stroke-width: 0.8"/>
     <use xlink:href="#mf8152293a9" x="255.519453" y="250.860041" style="fill: #5dade2; stroke: #000000; stroke-width: 0.8"/>
     <use xlink:href="#mf8152293a9" x="327.681726" y="109.225922" style="fill: #5dade2; stroke: #000000; stroke-width: 0.8"/>
     <use xlink:href="#mf8152293a9" x="111.194908" y="305.81601" style="fill: #5dade2; stroke: #000000; stroke-width: 0.8"/>
     <use xlink:href="#mf8152293a9" x="183.35718" y="302.948922" style="fill: #5dade2; stroke: #000000; stroke-width: 0.8"/>
     <use xlink:href="#mf8152293a9" x="255.519453" y="281.637189" style="fill: #5dade2; stroke: #000000; stroke-width: 0.8"/>
     <use xlink:href="#mf8152293a9" x="327.681726" y="125.098542" style="fill: #5dade2; stroke: #000000; stroke-width: 0.8"/>
    </g>
   </g>
   <g id="PathCollection_2">
    <defs>
     <path id="m5ad2d448b0" d="M 0 5.477226 
C 1.452577 5.477226 2.845856 4.900111 3.872983 3.872983 
C 4.900111 2.845856 5.477226 1.452577 5.477226 0 
C 5.477226 -1.452577 4.900111 -2.845856 3.872983 -3.872983 
C 2.845856 -4.900111 1.452577 -5.477226 0 -5.477226 
C -1.452577 -5.477226 -2.845856 -4.900111 -3.872983 -3.872983 
C -4.900111 -2.845856 -5.477226 -1.452577 -5.477226 0 
C -5.477226 1.452577 -4.900111 2.845856 -3.872983 3.872983 
C -2.845856 4.900111 -1.452577 5.477226 0 5.477226 
z
" style="stroke: #000000; stroke-width: 0.8"/>
    </defs>
    <g clip-path="url(#pd4b01d1c57)">
     <use xlink:href="#m5ad2d448b0" x="399.843998" y="247.782427" style="fill: #c0392b; stroke: #000000; stroke-width: 0.8"/>
     <use xlink:href="#m5ad2d448b0" x="399.843998" y="183.569967" style="fill: #c0392b; stroke: #000000; stroke-width: 0.8"/>
     <use xlink:href="#m5ad2d448b0" x="399.843998" y="165.009053" style="fill: #c0392b; stroke: #000000; stroke-width: 0.8"/>
     <use xlink:href="#m5ad2d448b0" x="472.006271" y="302.485109" style="fill: #c0392b; stroke: #000000; stroke-width: 0.8"/>
     <use xlink:href="#m5ad2d448b0" x="472.006271" y="296.093843" style="fill: #c0392b; stroke: #000000; stroke-width: 0.8"/>
     <use xlink:href="#m5ad2d448b0" x="472.006271" y="308.754937" style="fill: #c0392b; stroke: #000000; stroke-width: 0.8"/>
    </g>
   </g>
   <g id="PathCollection_3">
    <defs>
     <path id="m37f93b218f" d="M 0 5.477226 
C 1.452577 5.477226 2.845856 4.900111 3.872983 3.872983 
C 4.900111 2.845856 5.477226 1.452577 5.477226 0 
C 5.477226 -1.452577 4.900111 -2.845856 3.872983 -3.872983 
C 2.845856 -4.900111 1.452577 -5.477226 0 -5.477226 
C -1.452577 -5.477226 -2.845856 -4.900111 -3.872983 -3.872983 
C -4.900111 -2.845856 -5.477226 -1.452577 -5.477226 0 
C -5.477226 1.452577 -4.900111 2.845856 -3.872983 3.872983 
C -2.845856 4.900111 -1.452577 5.477226 0 5.477226 
z
" style="stroke: #000000; stroke-width: 0.8"/>
    </defs>
    <g clip-path="url(#pd4b01d1c57)">
     <use xlink:href="#m37f93b218f" x="544.168544" y="278.626747" style="fill: #e67e22; stroke: #000000; stroke-width: 0.8"/>
     <use xlink:href="#m37f93b218f" x="544.168544" y="173.89252" style="fill: #e67e22; stroke: #000000; stroke-width: 0.8"/>
     <use xlink:href="#m37f93b218f" x="544.168544" y="259.642906" style="fill: #e67e22; stroke: #000000; stroke-width: 0.8"/>
     <use xlink:href="#m37f93b218f" x="544.168544" y="204.264212" style="fill: #e67e22; stroke: #000000; stroke-width: 0.8"/>
     <use xlink:href="#m37f93b218f" x="616.330817" y="379.706865" style="fill: #e67e22; stroke: #000000; stroke-width: 0.8"/>
     <use xlink:href="#m37f93b218f" x="616.330817" y="354.339324" style="fill: #e67e22; stroke: #000000; stroke-width: 0.8"/>
     <use xlink:href="#m37f93b218f" x="616.330817" y="338.66972" style="fill: #e67e22; stroke: #000000; stroke-width: 0.8"/>
     <use xlink:href="#m37f93b218f" x="688.493089" y="357.656049" style="fill: #e67e22; stroke: #000000; stroke-width: 0.8"/>
    </g>
   </g>
   <g id="text_16">
    <!-- MF signature score across conditions -->
    <g style="fill: #262626" transform="translate(273.149241 73.116197) scale(0.153 -0.153)">
     <defs>
      <path id="ArialMT-46" d="M 525 0 
L 525 4581 
L 3616 4581 
L 3616 4041 
L 1131 4041 
L 1131 2622 
L 3281 2622 
L 3281 2081 
L 1131 2081 
L 1131 0 
L 525 0 
z
" transform="scale(0.015625)"/>
     </defs>
     <use xlink:href="#ArialMT-4d"/>
     <use xlink:href="#ArialMT-46" transform="translate(83.300781 0)"/>
     <use xlink:href="#ArialMT-20" transform="translate(144.384766 0)"/>
     <use xlink:href="#ArialMT-73" transform="translate(172.167969 0)"/>
     <use xlink:href="#ArialMT-69" transform="translate(222.167969 0)"/>
     <use xlink:href="#ArialMT-67" transform="translate(244.384766 0)"/>
     <use xlink:href="#ArialMT-6e" transform="translate(300 0)"/>
     <use xlink:href="#ArialMT-61" transform="translate(355.615234 0)"/>
     <use xlink:href="#ArialMT-74" transform="translate(411.230469 0)"/>
     <use xlink:href="#ArialMT-75" transform="translate(439.013672 0)"/>
     <use xlink:href="#ArialMT-72" transform="translate(494.628906 0)"/>
     <use xlink:href="#ArialMT-65" transform="translate(527.929688 0)"/>
     <use xlink:href="#ArialMT-20" transform="translate(583.544922 0)"/>
     <use xlink:href="#ArialMT-73" transform="translate(611.328125 0)"/>
     <use xlink:href="#ArialMT-63" transform="translate(661.328125 0)"/>
     <use xlink:href="#ArialMT-6f" transform="translate(711.328125 0)"/>
     <use xlink:href="#ArialMT-72" transform="translate(766.943359 0)"/>
     <use xlink:href="#ArialMT-65" transform="translate(800.244141 0)"/>
     <use xlink:href="#ArialMT-20" transform="translate(855.859375 0)"/>
     <use xlink:href="#ArialMT-61" transform="translate(883.642578 0)"/>
     <use xlink:href="#ArialMT-63" transform="translate(939.257812 0)"/>
     <use xlink:href="#ArialMT-72" transform="translate(989.257812 0)"/>
     <use xlink:href="#ArialMT-6f" transform="translate(1022.558594 0)"/>
     <use xlink:href="#ArialMT-73" transform="translate(1078.173828 0)"/>
     <use xlink:href="#ArialMT-73" transform="translate(1128.173828 0)"/>
     <use xlink:href="#ArialMT-20" transform="translate(1178.173828 0)"/>
     <use xlink:href="#ArialMT-63" transform="translate(1205.957031 0)"/>
     <use xlink:href="#ArialMT-6f" transform="translate(1255.957031 0)"/>
     <use xlink:href="#ArialMT-6e" transform="translate(1311.572266 0)"/>
     <use xlink:href="#ArialMT-64" transform="translate(1367.1875 0)"/>
     <use xlink:href="#ArialMT-69" transform="translate(1422.802734 0)"/>
     <use xlink:href="#ArialMT-74" transform="translate(1445.019531 0)"/>
     <use xlink:href="#ArialMT-69" transform="translate(1472.802734 0)"/>
     <use xlink:href="#ArialMT-6f" transform="translate(1495.019531 0)"/>
     <use xlink:href="#ArialMT-6e" transform="translate(1550.634766 0)"/>
     <use xlink:href="#ArialMT-73" transform="translate(1606.25 0)"/>
    </g>
    <!-- (each dot = one biological sample) -->
    <g style="fill: #262626" transform="translate(283.118147 89.701875) scale(0.153 -0.153)">
     <defs>
      <path id="ArialMT-3d" d="M 3381 2694 
L 356 2694 
L 356 3219 
L 3381 3219 
L 3381 2694 
z
M 3381 1303 
L 356 1303 
L 356 1828 
L 3381 1828 
L 3381 1303 
z
" transform="scale(0.015625)"/>
     </defs>
     <use xlink:href="#ArialMT-28"/>
     <use xlink:href="#ArialMT-65" transform="translate(33.300781 0)"/>
     <use xlink:href="#ArialMT-61" transform="translate(88.916016 0)"/>
     <use xlink:href="#ArialMT-63" transform="translate(144.53125 0)"/>
     <use xlink:href="#ArialMT-68" transform="translate(194.53125 0)"/>
     <use xlink:href="#ArialMT-20" transform="translate(250.146484 0)"/>
     <use xlink:href="#ArialMT-64" transform="translate(277.929688 0)"/>
     <use xlink:href="#ArialMT-6f" transform="translate(333.544922 0)"/>
     <use xlink:href="#ArialMT-74" transform="translate(389.160156 0)"/>
     <use xlink:href="#ArialMT-20" transform="translate(416.943359 0)"/>
     <use xlink:href="#ArialMT-3d" transform="translate(444.726562 0)"/>
     <use xlink:href="#ArialMT-20" transform="translate(503.125 0)"/>
     <use xlink:href="#ArialMT-6f" transform="translate(530.908203 0)"/>
     <use xlink:href="#ArialMT-6e" transform="translate(586.523438 0)"/>
     <use xlink:href="#ArialMT-65" transform="translate(642.138672 0)"/>
     <use xlink:href="#ArialMT-20" transform="translate(697.753906 0)"/>
     <use xlink:href="#ArialMT-62" transform="translate(725.537109 0)"/>
     <use xlink:href="#ArialMT-69" transform="translate(781.152344 0)"/>
     <use xlink:href="#ArialMT-6f" transform="translate(803.369141 0)"/>
     <use xlink:href="#ArialMT-6c" transform="translate(858.984375 0)"/>
     <use xlink:href="#ArialMT-6f" transform="translate(881.201172 0)"/>
     <use xlink:href="#ArialMT-67" transform="translate(936.816406 0)"/>
     <use xlink:href="#ArialMT-69" transform="translate(992.431641 0)"/>
     <use xlink:href="#ArialMT-63" transform="translate(1014.648438 0)"/>
     <use xlink:href="#ArialMT-61" transform="translate(1064.648438 0)"/>
     <use xlink:href="#ArialMT-6c" transform="translate(1120.263672 0)"/>
     <use xlink:href="#ArialMT-20" transform="translate(1142.480469 0)"/>
     <use xlink:href="#ArialMT-73" transform="translate(1170.263672 0)"/>
     <use xlink:href="#ArialMT-61" transform="translate(1220.263672 0)"/>
     <use xlink:href="#ArialMT-6d" transform="translate(1275.878906 0)"/>
     <use xlink:href="#ArialMT-70" transform="translate(1359.179688 0)"/>
     <use xlink:href="#ArialMT-6c" transform="translate(1414.794922 0)"/>
     <use xlink:href="#ArialMT-65" transform="translate(1437.011719 0)"/>
     <use xlink:href="#ArialMT-29" transform="translate(1492.626953 0)"/>
    </g>
   </g>
   <g id="legend_1">
    <g id="patch_5">
     <path d="M 89.329998 161.000313 
L 240.251873 161.000313 
Q 242.251873 161.000313 242.251873 159.000313 
L 242.251873 102.701875 
Q 242.251873 100.701875 240.251873 100.701875 
L 89.329998 100.701875 
Q 87.329998 100.701875 87.329998 102.701875 
L 87.329998 159.000313 
Q 87.329998 161.000313 89.329998 161.000313 
z
" style="fill: #ffffff; opacity: 0.8; stroke: #cccccc; stroke-width: 1.5; stroke-linejoin: miter"/>
    </g>
    <g id="PathCollection_4">
     <g>
      <use xlink:href="#mf8152293a9" x="101.329998" y="109.234688" style="fill: #5dade2; stroke: #000000; stroke-width: 0.8"/>
     </g>
    </g>
    <g id="text_17">
     <!-- Wound time-course -->
     <g style="fill: #262626" transform="translate(119.329998 111.859688) scale(0.1 -0.1)">
      <use xlink:href="#ArialMT-57"/>
      <use xlink:href="#ArialMT-6f" transform="translate(92.634766 0)"/>
      <use xlink:href="#ArialMT-75" transform="translate(148.25 0)"/>
      <use xlink:href="#ArialMT-6e" transform="translate(203.865234 0)"/>
      <use xlink:href="#ArialMT-64" transform="translate(259.480469 0)"/>
      <use xlink:href="#ArialMT-20" transform="translate(315.095703 0)"/>
      <use xlink:href="#ArialMT-74" transform="translate(342.878906 0)"/>
      <use xlink:href="#ArialMT-69" transform="translate(370.662109 0)"/>
      <use xlink:href="#ArialMT-6d" transform="translate(392.878906 0)"/>
      <use xlink:href="#ArialMT-65" transform="translate(476.179688 0)"/>
      <use xlink:href="#ArialMT-2d" transform="translate(531.794922 0)"/>
      <use xlink:href="#ArialMT-63" transform="translate(565.095703 0)"/>
      <use xlink:href="#ArialMT-6f" transform="translate(615.095703 0)"/>
      <use xlink:href="#ArialMT-75" transform="translate(670.710938 0)"/>
      <use xlink:href="#ArialMT-72" transform="translate(726.326172 0)"/>
      <use xlink:href="#ArialMT-73" transform="translate(759.626953 0)"/>
      <use xlink:href="#ArialMT-65" transform="translate(809.626953 0)"/>
     </g>
    </g>
    <g id="PathCollection_5">
     <g>
      <use xlink:href="#m5ad2d448b0" x="101.329998" y="123.501875" style="fill: #c0392b; stroke: #000000; stroke-width: 0.8"/>
     </g>
    </g>
    <g id="text_18">
     <!-- Deng (keloid) -->
     <g style="fill: #262626" transform="translate(119.329998 126.126875) scale(0.1 -0.1)">
      <use xlink:href="#ArialMT-44"/>
      <use xlink:href="#ArialMT-65" transform="translate(72.216797 0)"/>
      <use xlink:href="#ArialMT-6e" transform="translate(127.832031 0)"/>
      <use xlink:href="#ArialMT-67" transform="translate(183.447266 0)"/>
      <use xlink:href="#ArialMT-20" transform="translate(239.0625 0)"/>
      <use xlink:href="#ArialMT-28" transform="translate(266.845703 0)"/>
      <use xlink:href="#ArialMT-6b" transform="translate(300.146484 0)"/>
      <use xlink:href="#ArialMT-65" transform="translate(350.146484 0)"/>
      <use xlink:href="#ArialMT-6c" transform="translate(405.761719 0)"/>
      <use xlink:href="#ArialMT-6f" transform="translate(427.978516 0)"/>
      <use xlink:href="#ArialMT-69" transform="translate(483.59375 0)"/>
      <use xlink:href="#ArialMT-64" transform="translate(505.810547 0)"/>
      <use xlink:href="#ArialMT-29" transform="translate(561.425781 0)"/>
     </g>
    </g>
    <g id="PathCollection_6">
     <g>
      <use xlink:href="#m37f93b218f" x="101.329998" y="137.88625" style="fill: #e67e22; stroke: #000000; stroke-width: 0.8"/>
     </g>
    </g>
    <g id="text_19">
     <!-- Direder (keloid) -->
     <g style="fill: #262626" transform="translate(119.329998 140.51125) scale(0.1 -0.1)">
      <use xlink:href="#ArialMT-44"/>
      <use xlink:href="#ArialMT-69" transform="translate(72.216797 0)"/>
      <use xlink:href="#ArialMT-72" transform="translate(94.433594 0)"/>
      <use xlink:href="#ArialMT-65" transform="translate(127.734375 0)"/>
      <use xlink:href="#ArialMT-64" transform="translate(183.349609 0)"/>
      <use xlink:href="#ArialMT-65" transform="translate(238.964844 0)"/>
      <use xlink:href="#ArialMT-72" transform="translate(294.580078 0)"/>
      <use xlink:href="#ArialMT-20" transform="translate(327.880859 0)"/>
      <use xlink:href="#ArialMT-28" transform="translate(355.664062 0)"/>
      <use xlink:href="#ArialMT-6b" transform="translate(388.964844 0)"/>
      <use xlink:href="#ArialMT-65" transform="translate(438.964844 0)"/>
      <use xlink:href="#ArialMT-6c" transform="translate(494.580078 0)"/>
      <use xlink:href="#ArialMT-6f" transform="translate(516.796875 0)"/>
      <use xlink:href="#ArialMT-69" transform="translate(572.412109 0)"/>
      <use xlink:href="#ArialMT-64" transform="translate(594.628906 0)"/>
      <use xlink:href="#ArialMT-29" transform="translate(650.244141 0)"/>
     </g>
    </g>
    <g id="line2d_3">
     <path d="M 91.329998 151.395625 
L 101.329998 151.395625 
L 111.329998 151.395625 
" style="fill: none; stroke-dasharray: 3.7,1.6; stroke-dashoffset: 0; stroke: #ff0000; stroke-opacity: 0.5"/>
    </g>
    <g id="text_20">
     <!-- MF-positive threshold (0.3) -->
     <g style="fill: #262626" transform="translate(119.329998 154.895625) scale(0.1 -0.1)">
      <defs>
       <path id="ArialMT-76" d="M 1344 0 
L 81 3319 
L 675 3319 
L 1388 1331 
Q 1503 1009 1600 663 
Q 1675 925 1809 1294 
L 2547 3319 
L 3125 3319 
L 1869 0 
L 1344 0 
z
" transform="scale(0.015625)"/>
      </defs>
      <use xlink:href="#ArialMT-4d"/>
      <use xlink:href="#ArialMT-46" transform="translate(83.300781 0)"/>
      <use xlink:href="#ArialMT-2d" transform="translate(144.384766 0)"/>
      <use xlink:href="#ArialMT-70" transform="translate(177.685547 0)"/>
      <use xlink:href="#ArialMT-6f" transform="translate(233.300781 0)"/>
      <use xlink:href="#ArialMT-73" transform="translate(288.916016 0)"/>
      <use xlink:href="#ArialMT-69" transform="translate(338.916016 0)"/>
      <use xlink:href="#ArialMT-74" transform="translate(361.132812 0)"/>
      <use xlink:href="#ArialMT-69" transform="translate(388.916016 0)"/>
      <use xlink:href="#ArialMT-76" transform="translate(411.132812 0)"/>
      <use xlink:href="#ArialMT-65" transform="translate(461.132812 0)"/>
      <use xlink:href="#ArialMT-20" transform="translate(516.748047 0)"/>
      <use xlink:href="#ArialMT-74" transform="translate(544.53125 0)"/>
      <use xlink:href="#ArialMT-68" transform="translate(572.314453 0)"/>
      <use xlink:href="#ArialMT-72" transform="translate(627.929688 0)"/>
      <use xlink:href="#ArialMT-65" transform="translate(661.230469 0)"/>
      <use xlink:href="#ArialMT-73" transform="translate(716.845703 0)"/>
      <use xlink:href="#ArialMT-68" transform="translate(766.845703 0)"/>
      <use xlink:href="#ArialMT-6f" transform="translate(822.460938 0)"/>
      <use xlink:href="#ArialMT-6c" transform="translate(878.076172 0)"/>
      <use xlink:href="#ArialMT-64" transform="translate(900.292969 0)"/>
      <use xlink:href="#ArialMT-20" transform="translate(955.908203 0)"/>
      <use xlink:href="#ArialMT-28" transform="translate(983.691406 0)"/>
      <use xlink:href="#ArialMT-30" transform="translate(1016.992188 0)"/>
      <use xlink:href="#ArialMT-2e" transform="translate(1072.607422 0)"/>
      <use xlink:href="#ArialMT-33" transform="translate(1100.390625 0)"/>
      <use xlink:href="#ArialMT-29" transform="translate(1156.005859 0)"/>
     </g>
    </g>
   </g>
  </g>
  <g id="axes_2">
   <g id="patch_6">
    <path d="M 780.036998 393.230912 
L 1415.064998 393.230912 
L 1415.064998 95.701875 
L 780.036998 95.701875 
z
" style="fill: #ffffff"/>
   </g>
   <g id="matplotlib.axis_3">
    <g id="xtick_10">
     <g id="text_21">
      <!-- Wound -->
      <g style="fill: #262626" transform="translate(761.821731 436.519649) rotate(-30) scale(0.14025 -0.14025)">
       <use xlink:href="#ArialMT-57"/>
       <use xlink:href="#ArialMT-6f" transform="translate(92.634766 0)"/>
       <use xlink:href="#ArialMT-75" transform="translate(148.25 0)"/>
       <use xlink:href="#ArialMT-6e" transform="translate(203.865234 0)"/>
       <use xlink:href="#ArialMT-64" transform="translate(259.480469 0)"/>
      </g>
      <!-- Skin -->
      <g style="fill: #262626" transform="translate(783.880395 440.912978) rotate(-30) scale(0.14025 -0.14025)">
       <use xlink:href="#ArialMT-53"/>
       <use xlink:href="#ArialMT-6b" transform="translate(66.699219 0)"/>
       <use xlink:href="#ArialMT-69" transform="translate(116.699219 0)"/>
       <use xlink:href="#ArialMT-6e" transform="translate(138.916016 0)"/>
      </g>
     </g>
    </g>
    <g id="xtick_11">
     <g id="text_22">
      <!-- Wound -->
      <g style="fill: #262626" transform="translate(833.984003 436.519649) rotate(-30) scale(0.14025 -0.14025)">
       <use xlink:href="#ArialMT-57"/>
       <use xlink:href="#ArialMT-6f" transform="translate(92.634766 0)"/>
       <use xlink:href="#ArialMT-75" transform="translate(148.25 0)"/>
       <use xlink:href="#ArialMT-6e" transform="translate(203.865234 0)"/>
       <use xlink:href="#ArialMT-64" transform="translate(259.480469 0)"/>
      </g>
      <!-- Wound1 -->
      <g style="fill: #262626" transform="translate(834.646719 453.265935) rotate(-30) scale(0.14025 -0.14025)">
       <use xlink:href="#ArialMT-57"/>
       <use xlink:href="#ArialMT-6f" transform="translate(92.634766 0)"/>
       <use xlink:href="#ArialMT-75" transform="translate(148.25 0)"/>
       <use xlink:href="#ArialMT-6e" transform="translate(203.865234 0)"/>
       <use xlink:href="#ArialMT-64" transform="translate(259.480469 0)"/>
       <use xlink:href="#ArialMT-31" transform="translate(315.095703 0)"/>
      </g>
     </g>
    </g>
    <g id="xtick_12">
     <g id="text_23">
      <!-- Wound -->
      <g style="fill: #262626" transform="translate(906.146276 436.519649) rotate(-30) scale(0.14025 -0.14025)">
       <use xlink:href="#ArialMT-57"/>
       <use xlink:href="#ArialMT-6f" transform="translate(92.634766 0)"/>
       <use xlink:href="#ArialMT-75" transform="translate(148.25 0)"/>
       <use xlink:href="#ArialMT-6e" transform="translate(203.865234 0)"/>
       <use xlink:href="#ArialMT-64" transform="translate(259.480469 0)"/>
      </g>
      <!-- Wound7 -->
      <g style="fill: #262626" transform="translate(906.808992 453.265935) rotate(-30) scale(0.14025 -0.14025)">
       <use xlink:href="#ArialMT-57"/>
       <use xlink:href="#ArialMT-6f" transform="translate(92.634766 0)"/>
       <use xlink:href="#ArialMT-75" transform="translate(148.25 0)"/>
       <use xlink:href="#ArialMT-6e" transform="translate(203.865234 0)"/>
       <use xlink:href="#ArialMT-64" transform="translate(259.480469 0)"/>
       <use xlink:href="#ArialMT-37" transform="translate(315.095703 0)"/>
      </g>
     </g>
    </g>
    <g id="xtick_13">
     <g id="text_24">
      <!-- Wound -->
      <g style="fill: #262626" transform="translate(978.308549 436.519649) rotate(-30) scale(0.14025 -0.14025)">
       <use xlink:href="#ArialMT-57"/>
       <use xlink:href="#ArialMT-6f" transform="translate(92.634766 0)"/>
       <use xlink:href="#ArialMT-75" transform="translate(148.25 0)"/>
       <use xlink:href="#ArialMT-6e" transform="translate(203.865234 0)"/>
       <use xlink:href="#ArialMT-64" transform="translate(259.480469 0)"/>
      </g>
      <!-- Wound30 -->
      <g style="fill: #262626" transform="translate(972.216946 457.165543) rotate(-30) scale(0.14025 -0.14025)">
       <use xlink:href="#ArialMT-57"/>
       <use xlink:href="#ArialMT-6f" transform="translate(92.634766 0)"/>
       <use xlink:href="#ArialMT-75" transform="translate(148.25 0)"/>
       <use xlink:href="#ArialMT-6e" transform="translate(203.865234 0)"/>
       <use xlink:href="#ArialMT-64" transform="translate(259.480469 0)"/>
       <use xlink:href="#ArialMT-33" transform="translate(315.095703 0)"/>
       <use xlink:href="#ArialMT-30" transform="translate(370.710938 0)"/>
      </g>
     </g>
    </g>
    <g id="xtick_14">
     <g id="text_25">
      <!-- Deng -->
      <g style="fill: #262626" transform="translate(1059.623404 431.187958) rotate(-30) scale(0.14025 -0.14025)">
       <use xlink:href="#ArialMT-44"/>
       <use xlink:href="#ArialMT-65" transform="translate(72.216797 0)"/>
       <use xlink:href="#ArialMT-6e" transform="translate(127.832031 0)"/>
       <use xlink:href="#ArialMT-67" transform="translate(183.447266 0)"/>
      </g>
      <!-- Keloid -->
      <g style="fill: #262626" transform="translate(1062.395162 446.906369) rotate(-30) scale(0.14025 -0.14025)">
       <use xlink:href="#ArialMT-4b"/>
       <use xlink:href="#ArialMT-65" transform="translate(66.699219 0)"/>
       <use xlink:href="#ArialMT-6c" transform="translate(122.314453 0)"/>
       <use xlink:href="#ArialMT-6f" transform="translate(144.53125 0)"/>
       <use xlink:href="#ArialMT-69" transform="translate(200.146484 0)"/>
       <use xlink:href="#ArialMT-64" transform="translate(222.363281 0)"/>
      </g>
     </g>
    </g>
    <g id="xtick_15">
     <g id="text_26">
      <!-- Deng -->
      <g style="fill: #262626" transform="translate(1131.785677 431.187958) rotate(-30) scale(0.14025 -0.14025)">
       <use xlink:href="#ArialMT-44"/>
       <use xlink:href="#ArialMT-65" transform="translate(72.216797 0)"/>
       <use xlink:href="#ArialMT-6e" transform="translate(127.832031 0)"/>
       <use xlink:href="#ArialMT-67" transform="translate(183.447266 0)"/>
      </g>
      <!-- Normal scar -->
      <g style="fill: #262626" transform="translate(1102.860154 465.206803) rotate(-30) scale(0.14025 -0.14025)">
       <use xlink:href="#ArialMT-4e"/>
       <use xlink:href="#ArialMT-6f" transform="translate(72.216797 0)"/>
       <use xlink:href="#ArialMT-72" transform="translate(127.832031 0)"/>
       <use xlink:href="#ArialMT-6d" transform="translate(161.132812 0)"/>
       <use xlink:href="#ArialMT-61" transform="translate(244.433594 0)"/>
       <use xlink:href="#ArialMT-6c" transform="translate(300.048828 0)"/>
       <use xlink:href="#ArialMT-20" transform="translate(322.265625 0)"/>
       <use xlink:href="#ArialMT-73" transform="translate(350.048828 0)"/>
       <use xlink:href="#ArialMT-63" transform="translate(400.048828 0)"/>
       <use xlink:href="#ArialMT-61" transform="translate(450.048828 0)"/>
       <use xlink:href="#ArialMT-72" transform="translate(505.664062 0)"/>
      </g>
     </g>
    </g>
    <g id="xtick_16">
     <g id="text_27">
      <!-- Direder -->
      <g style="fill: #262626" transform="translate(1193.242956 437.415934) rotate(-30) scale(0.14025 -0.14025)">
       <use xlink:href="#ArialMT-44"/>
       <use xlink:href="#ArialMT-69" transform="translate(72.216797 0)"/>
       <use xlink:href="#ArialMT-72" transform="translate(94.433594 0)"/>
       <use xlink:href="#ArialMT-65" transform="translate(127.734375 0)"/>
       <use xlink:href="#ArialMT-64" transform="translate(183.349609 0)"/>
       <use xlink:href="#ArialMT-65" transform="translate(238.964844 0)"/>
       <use xlink:href="#ArialMT-72" transform="translate(294.580078 0)"/>
      </g>
      <!-- Keloid -->
      <g style="fill: #262626" transform="translate(1206.719708 446.764033) rotate(-30) scale(0.14025 -0.14025)">
       <use xlink:href="#ArialMT-4b"/>
       <use xlink:href="#ArialMT-65" transform="translate(66.699219 0)"/>
       <use xlink:href="#ArialMT-6c" transform="translate(122.314453 0)"/>
       <use xlink:href="#ArialMT-6f" transform="translate(144.53125 0)"/>
       <use xlink:href="#ArialMT-69" transform="translate(200.146484 0)"/>
       <use xlink:href="#ArialMT-64" transform="translate(222.363281 0)"/>
      </g>
     </g>
    </g>
    <g id="xtick_17">
     <g id="text_28">
      <!-- Direder -->
      <g style="fill: #262626" transform="translate(1265.405228 437.415934) rotate(-30) scale(0.14025 -0.14025)">
       <use xlink:href="#ArialMT-44"/>
       <use xlink:href="#ArialMT-69" transform="translate(72.216797 0)"/>
       <use xlink:href="#ArialMT-72" transform="translate(94.433594 0)"/>
       <use xlink:href="#ArialMT-65" transform="translate(127.734375 0)"/>
       <use xlink:href="#ArialMT-64" transform="translate(183.349609 0)"/>
       <use xlink:href="#ArialMT-65" transform="translate(238.964844 0)"/>
       <use xlink:href="#ArialMT-72" transform="translate(294.580078 0)"/>
      </g>
      <!-- Normal scar -->
      <g style="fill: #262626" transform="translate(1247.1847 465.064467) rotate(-30) scale(0.14025 -0.14025)">
       <use xlink:href="#ArialMT-4e"/>
       <use xlink:href="#ArialMT-6f" transform="translate(72.216797 0)"/>
       <use xlink:href="#ArialMT-72" transform="translate(127.832031 0)"/>
       <use xlink:href="#ArialMT-6d" transform="translate(161.132812 0)"/>
       <use xlink:href="#ArialMT-61" transform="translate(244.433594 0)"/>
       <use xlink:href="#ArialMT-6c" transform="translate(300.048828 0)"/>
       <use xlink:href="#ArialMT-20" transform="translate(322.265625 0)"/>
       <use xlink:href="#ArialMT-73" transform="translate(350.048828 0)"/>
       <use xlink:href="#ArialMT-63" transform="translate(400.048828 0)"/>
       <use xlink:href="#ArialMT-61" transform="translate(450.048828 0)"/>
       <use xlink:href="#ArialMT-72" transform="translate(505.664062 0)"/>
      </g>
     </g>
    </g>
    <g id="xtick_18">
     <g id="text_29">
      <!-- Direder -->
      <g style="fill: #262626" transform="translate(1337.485323 437.415934) rotate(-30) scale(0.14025 -0.14025)">
       <use xlink:href="#ArialMT-44"/>
       <use xlink:href="#ArialMT-69" transform="translate(72.216797 0)"/>
       <use xlink:href="#ArialMT-72" transform="translate(94.433594 0)"/>
       <use xlink:href="#ArialMT-65" transform="translate(127.734375 0)"/>
       <use xlink:href="#ArialMT-64" transform="translate(183.349609 0)"/>
       <use xlink:href="#ArialMT-65" transform="translate(238.964844 0)"/>
       <use xlink:href="#ArialMT-72" transform="translate(294.580078 0)"/>
      </g>
      <!-- Healthy skin -->
      <g style="fill: #262626" transform="translate(1318.570195 465.465494) rotate(-30) scale(0.14025 -0.14025)">
       <use xlink:href="#ArialMT-48"/>
       <use xlink:href="#ArialMT-65" transform="translate(72.216797 0)"/>
       <use xlink:href="#ArialMT-61" transform="translate(127.832031 0)"/>
       <use xlink:href="#ArialMT-6c" transform="translate(183.447266 0)"/>
       <use xlink:href="#ArialMT-74" transform="translate(205.664062 0)"/>
       <use xlink:href="#ArialMT-68" transform="translate(233.447266 0)"/>
       <use xlink:href="#ArialMT-79" transform="translate(289.0625 0)"/>
       <use xlink:href="#ArialMT-20" transform="translate(339.0625 0)"/>
       <use xlink:href="#ArialMT-73" transform="translate(366.845703 0)"/>
       <use xlink:href="#ArialMT-6b" transform="translate(416.845703 0)"/>
       <use xlink:href="#ArialMT-69" transform="translate(466.845703 0)"/>
       <use xlink:href="#ArialMT-6e" transform="translate(489.0625 0)"/>
      </g>
     </g>
    </g>
   </g>
   <g id="matplotlib.axis_4">
    <g id="ytick_6">
     <g id="text_30">
      <!-- 0 -->
      <g style="fill: #262626" transform="translate(759.737784 389.78236) scale(0.14025 -0.14025)">
       <use xlink:href="#ArialMT-30"/>
      </g>
     </g>
    </g>
    <g id="ytick_7">
     <g id="text_31">
      <!-- 20 -->
      <g style="fill: #262626" transform="translate(751.938569 328.603801) scale(0.14025 -0.14025)">
       <defs>
        <path id="ArialMT-32" d="M 3222 541 
L 3222 0 
L 194 0 
Q 188 203 259 391 
Q 375 700 629 1000 
Q 884 1300 1366 1694 
Q 2113 2306 2375 2664 
Q 2638 3022 2638 3341 
Q 2638 3675 2398 3904 
Q 2159 4134 1775 4134 
Q 1369 4134 1125 3890 
Q 881 3647 878 3216 
L 300 3275 
Q 359 3922 746 4261 
Q 1134 4600 1788 4600 
Q 2447 4600 2831 4234 
Q 3216 3869 3216 3328 
Q 3216 3053 3103 2787 
Q 2991 2522 2730 2228 
Q 2469 1934 1863 1422 
Q 1356 997 1212 845 
Q 1069 694 975 541 
L 3222 541 
z
" transform="scale(0.015625)"/>
       </defs>
       <use xlink:href="#ArialMT-32"/>
       <use xlink:href="#ArialMT-30" transform="translate(55.615234 0)"/>
      </g>
     </g>
    </g>
    <g id="ytick_8">
     <g id="text_32">
      <!-- 40 -->
      <g style="fill: #262626" transform="translate(751.938569 267.425242) scale(0.14025 -0.14025)">
       <defs>
        <path id="ArialMT-34" d="M 2069 0 
L 2069 1097 
L 81 1097 
L 81 1613 
L 2172 4581 
L 2631 4581 
L 2631 1613 
L 3250 1613 
L 3250 1097 
L 2631 1097 
L 2631 0 
L 2069 0 
z
M 2069 1613 
L 2069 3678 
L 634 1613 
L 2069 1613 
z
" transform="scale(0.015625)"/>
       </defs>
       <use xlink:href="#ArialMT-34"/>
       <use xlink:href="#ArialMT-30" transform="translate(55.615234 0)"/>
      </g>
     </g>
    </g>
    <g id="ytick_9">
     <g id="text_33">
      <!-- 60 -->
      <g style="fill: #262626" transform="translate(751.938569 206.246683) scale(0.14025 -0.14025)">
       <defs>
        <path id="ArialMT-36" d="M 3184 3459 
L 2625 3416 
Q 2550 3747 2413 3897 
Q 2184 4138 1850 4138 
Q 1581 4138 1378 3988 
Q 1113 3794 959 3422 
Q 806 3050 800 2363 
Q 1003 2672 1297 2822 
Q 1591 2972 1913 2972 
Q 2475 2972 2870 2558 
Q 3266 2144 3266 1488 
Q 3266 1056 3080 686 
Q 2894 316 2569 119 
Q 2244 -78 1831 -78 
Q 1128 -78 684 439 
Q 241 956 241 2144 
Q 241 3472 731 4075 
Q 1159 4600 1884 4600 
Q 2425 4600 2770 4297 
Q 3116 3994 3184 3459 
z
M 888 1484 
Q 888 1194 1011 928 
Q 1134 663 1356 523 
Q 1578 384 1822 384 
Q 2178 384 2434 671 
Q 2691 959 2691 1453 
Q 2691 1928 2437 2201 
Q 2184 2475 1800 2475 
Q 1419 2475 1153 2201 
Q 888 1928 888 1484 
z
" transform="scale(0.015625)"/>
       </defs>
       <use xlink:href="#ArialMT-36"/>
       <use xlink:href="#ArialMT-30" transform="translate(55.615234 0)"/>
      </g>
     </g>
    </g>
    <g id="ytick_10">
     <g id="text_34">
      <!-- 80 -->
      <g style="fill: #262626" transform="translate(751.938569 145.068124) scale(0.14025 -0.14025)">
       <defs>
        <path id="ArialMT-38" d="M 1131 2484 
Q 781 2613 612 2850 
Q 444 3088 444 3419 
Q 444 3919 803 4259 
Q 1163 4600 1759 4600 
Q 2359 4600 2725 4251 
Q 3091 3903 3091 3403 
Q 3091 3084 2923 2848 
Q 2756 2613 2416 2484 
Q 2838 2347 3058 2040 
Q 3278 1734 3278 1309 
Q 3278 722 2862 322 
Q 2447 -78 1769 -78 
Q 1091 -78 675 323 
Q 259 725 259 1325 
Q 259 1772 486 2073 
Q 713 2375 1131 2484 
z
M 1019 3438 
Q 1019 3113 1228 2906 
Q 1438 2700 1772 2700 
Q 2097 2700 2305 2904 
Q 2513 3109 2513 3406 
Q 2513 3716 2298 3927 
Q 2084 4138 1766 4138 
Q 1444 4138 1231 3931 
Q 1019 3725 1019 3438 
z
M 838 1322 
Q 838 1081 952 856 
Q 1066 631 1291 507 
Q 1516 384 1775 384 
Q 2178 384 2440 643 
Q 2703 903 2703 1303 
Q 2703 1709 2433 1975 
Q 2163 2241 1756 2241 
Q 1359 2241 1098 1978 
Q 838 1716 838 1322 
z
" transform="scale(0.015625)"/>
       </defs>
       <use xlink:href="#ArialMT-38"/>
       <use xlink:href="#ArialMT-30" transform="translate(55.615234 0)"/>
      </g>
     </g>
    </g>
    <g id="text_35">
     <!-- % MF-positive cells (score &gt; 0.3) -->
     <g style="fill: #262626" transform="translate(744.718397 355.629261) rotate(-90) scale(0.153 -0.153)">
      <defs>
       <path id="ArialMT-25" d="M 372 3481 
Q 372 3972 619 4315 
Q 866 4659 1334 4659 
Q 1766 4659 2048 4351 
Q 2331 4044 2331 3447 
Q 2331 2866 2045 2552 
Q 1759 2238 1341 2238 
Q 925 2238 648 2547 
Q 372 2856 372 3481 
z
M 1350 4272 
Q 1141 4272 1002 4090 
Q 863 3909 863 3425 
Q 863 2984 1003 2804 
Q 1144 2625 1350 2625 
Q 1563 2625 1702 2806 
Q 1841 2988 1841 3469 
Q 1841 3913 1700 4092 
Q 1559 4272 1350 4272 
z
M 1353 -169 
L 3859 4659 
L 4316 4659 
L 1819 -169 
L 1353 -169 
z
M 3334 1075 
Q 3334 1569 3581 1911 
Q 3828 2253 4300 2253 
Q 4731 2253 5014 1945 
Q 5297 1638 5297 1041 
Q 5297 459 5011 145 
Q 4725 -169 4303 -169 
Q 3888 -169 3611 142 
Q 3334 453 3334 1075 
z
M 4316 1866 
Q 4103 1866 3964 1684 
Q 3825 1503 3825 1019 
Q 3825 581 3965 400 
Q 4106 219 4313 219 
Q 4528 219 4667 400 
Q 4806 581 4806 1063 
Q 4806 1506 4665 1686 
Q 4525 1866 4316 1866 
z
" transform="scale(0.015625)"/>
       <path id="ArialMT-3e" d="M 3384 2003 
L 350 706 
L 350 1266 
L 2753 2263 
L 350 3250 
L 350 3809 
L 3384 2528 
L 3384 2003 
z
" transform="scale(0.015625)"/>
      </defs>
      <use xlink:href="#ArialMT-25"/>
      <use xlink:href="#ArialMT-20" transform="translate(88.916016 0)"/>
      <use xlink:href="#ArialMT-4d" transform="translate(116.699219 0)"/>
      <use xlink:href="#ArialMT-46" transform="translate(200 0)"/>
      <use xlink:href="#ArialMT-2d" transform="translate(261.083984 0)"/>
      <use xlink:href="#ArialMT-70" transform="translate(294.384766 0)"/>
      <use xlink:href="#ArialMT-6f" transform="translate(350 0)"/>
      <use xlink:href="#ArialMT-73" transform="translate(405.615234 0)"/>
      <use xlink:href="#ArialMT-69" transform="translate(455.615234 0)"/>
      <use xlink:href="#ArialMT-74" transform="translate(477.832031 0)"/>
      <use xlink:href="#ArialMT-69" transform="translate(505.615234 0)"/>
      <use xlink:href="#ArialMT-76" transform="translate(527.832031 0)"/>
      <use xlink:href="#ArialMT-65" transform="translate(577.832031 0)"/>
      <use xlink:href="#ArialMT-20" transform="translate(633.447266 0)"/>
      <use xlink:href="#ArialMT-63" transform="translate(661.230469 0)"/>
      <use xlink:href="#ArialMT-65" transform="translate(711.230469 0)"/>
      <use xlink:href="#ArialMT-6c" transform="translate(766.845703 0)"/>
      <use xlink:href="#ArialMT-6c" transform="translate(789.0625 0)"/>
      <use xlink:href="#ArialMT-73" transform="translate(811.279297 0)"/>
      <use xlink:href="#ArialMT-20" transform="translate(861.279297 0)"/>
      <use xlink:href="#ArialMT-28" transform="translate(889.0625 0)"/>
      <use xlink:href="#ArialMT-73" transform="translate(922.363281 0)"/>
      <use xlink:href="#ArialMT-63" transform="translate(972.363281 0)"/>
      <use xlink:href="#ArialMT-6f" transform="translate(1022.363281 0)"/>
      <use xlink:href="#ArialMT-72" transform="translate(1077.978516 0)"/>
      <use xlink:href="#ArialMT-65" transform="translate(1111.279297 0)"/>
      <use xlink:href="#ArialMT-20" transform="translate(1166.894531 0)"/>
      <use xlink:href="#ArialMT-3e" transform="translate(1194.677734 0)"/>
      <use xlink:href="#ArialMT-20" transform="translate(1253.076172 0)"/>
      <use xlink:href="#ArialMT-30" transform="translate(1280.859375 0)"/>
      <use xlink:href="#ArialMT-2e" transform="translate(1336.474609 0)"/>
      <use xlink:href="#ArialMT-33" transform="translate(1364.257812 0)"/>
      <use xlink:href="#ArialMT-29" transform="translate(1419.873047 0)"/>
     </g>
    </g>
   </g>
   <g id="patch_7">
    <path d="M 780.036998 393.230912 
L 780.036998 95.701875 
" style="fill: none; stroke: #262626; stroke-width: 1.875; stroke-linejoin: miter; stroke-linecap: square"/>
   </g>
   <g id="patch_8">
    <path d="M 780.036998 393.230912 
L 1415.064998 393.230912 
" style="fill: none; stroke: #262626; stroke-width: 1.875; stroke-linejoin: miter; stroke-linecap: square"/>
   </g>
   <g id="PathCollection_7">
    <g clip-path="url(#pe2e26bce17)">
     <use xlink:href="#mf8152293a9" x="808.901908" y="349.27262" style="fill: #5dade2; stroke: #000000; stroke-width: 0.8"/>
     <use xlink:href="#mf8152293a9" x="881.06418" y="346.376397" style="fill: #5dade2; stroke: #000000; stroke-width: 0.8"/>
     <use xlink:href="#mf8152293a9" x="953.226453" y="204.884681" style="fill: #5dade2; stroke: #000000; stroke-width: 0.8"/>
     <use xlink:href="#mf8152293a9" x="1025.388726" y="161.965582" style="fill: #5dade2; stroke: #000000; stroke-width: 0.8"/>
     <use xlink:href="#mf8152293a9" x="808.901908" y="341.902725" style="fill: #5dade2; stroke: #000000; stroke-width: 0.8"/>
     <use xlink:href="#mf8152293a9" x="881.06418" y="334.909189" style="fill: #5dade2; stroke: #000000; stroke-width: 0.8"/>
     <use xlink:href="#mf8152293a9" x="953.226453" y="240.876624" style="fill: #5dade2; stroke: #000000; stroke-width: 0.8"/>
     <use xlink:href="#mf8152293a9" x="1025.388726" y="109.225922" style="fill: #5dade2; stroke: #000000; stroke-width: 0.8"/>
     <use xlink:href="#mf8152293a9" x="808.901908" y="352.048941" style="fill: #5dade2; stroke: #000000; stroke-width: 0.8"/>
     <use xlink:href="#mf8152293a9" x="881.06418" y="332.996471" style="fill: #5dade2; stroke: #000000; stroke-width: 0.8"/>
     <use xlink:href="#mf8152293a9" x="953.226453" y="299.624465" style="fill: #5dade2; stroke: #000000; stroke-width: 0.8"/>
     <use xlink:href="#mf8152293a9" x="1025.388726" y="122.49426" style="fill: #5dade2; stroke: #000000; stroke-width: 0.8"/>
    </g>
   </g>
   <g id="PathCollection_8">
    <g clip-path="url(#pe2e26bce17)">
     <use xlink:href="#m5ad2d448b0" x="1097.550998" y="274.763971" style="fill: #c0392b; stroke: #000000; stroke-width: 0.8"/>
     <use xlink:href="#m5ad2d448b0" x="1097.550998" y="200.487949" style="fill: #c0392b; stroke: #000000; stroke-width: 0.8"/>
     <use xlink:href="#m5ad2d448b0" x="1097.550998" y="149.41371" style="fill: #c0392b; stroke: #000000; stroke-width: 0.8"/>
     <use xlink:href="#m5ad2d448b0" x="1169.713271" y="348.551612" style="fill: #c0392b; stroke: #000000; stroke-width: 0.8"/>
     <use xlink:href="#m5ad2d448b0" x="1169.713271" y="338.123514" style="fill: #c0392b; stroke: #000000; stroke-width: 0.8"/>
     <use xlink:href="#m5ad2d448b0" x="1169.713271" y="363.302759" style="fill: #c0392b; stroke: #000000; stroke-width: 0.8"/>
    </g>
   </g>
   <g id="PathCollection_9">
    <g clip-path="url(#pe2e26bce17)">
     <use xlink:href="#m37f93b218f" x="1241.875544" y="265.443059" style="fill: #e67e22; stroke: #000000; stroke-width: 0.8"/>
     <use xlink:href="#m37f93b218f" x="1241.875544" y="136.00777" style="fill: #e67e22; stroke: #000000; stroke-width: 0.8"/>
     <use xlink:href="#m37f93b218f" x="1241.875544" y="250.890377" style="fill: #e67e22; stroke: #000000; stroke-width: 0.8"/>
     <use xlink:href="#m37f93b218f" x="1241.875544" y="176.373019" style="fill: #e67e22; stroke: #000000; stroke-width: 0.8"/>
     <use xlink:href="#m37f93b218f" x="1314.037817" y="379.706865" style="fill: #e67e22; stroke: #000000; stroke-width: 0.8"/>
     <use xlink:href="#m37f93b218f" x="1314.037817" y="373.674132" style="fill: #e67e22; stroke: #000000; stroke-width: 0.8"/>
     <use xlink:href="#m37f93b218f" x="1314.037817" y="359.428907" style="fill: #e67e22; stroke: #000000; stroke-width: 0.8"/>
     <use xlink:href="#m37f93b218f" x="1386.200089" y="372.667974" style="fill: #e67e22; stroke: #000000; stroke-width: 0.8"/>
    </g>
   </g>
   <g id="text_36">
    <!-- Fraction of mesenchymal-fibroblast cells per sample -->
    <g style="fill: #262626" transform="translate(921.119287 89.701875) scale(0.153 -0.153)">
     <use xlink:href="#ArialMT-46"/>
     <use xlink:href="#ArialMT-72" transform="translate(61.083984 0)"/>
     <use xlink:href="#ArialMT-61" transform="translate(94.384766 0)"/>
     <use xlink:href="#ArialMT-63" transform="translate(150 0)"/>
     <use xlink:href="#ArialMT-74" transform="translate(200 0)"/>
     <use xlink:href="#ArialMT-69" transform="translate(227.783203 0)"/>
     <use xlink:href="#ArialMT-6f" transform="translate(250 0)"/>
     <use xlink:href="#ArialMT-6e" transform="translate(305.615234 0)"/>
     <use xlink:href="#ArialMT-20" transform="translate(361.230469 0)"/>
     <use xlink:href="#ArialMT-6f" transform="translate(389.013672 0)"/>
     <use xlink:href="#ArialMT-66" transform="translate(444.628906 0)"/>
     <use xlink:href="#ArialMT-20" transform="translate(472.412109 0)"/>
     <use xlink:href="#ArialMT-6d" transform="translate(500.195312 0)"/>
     <use xlink:href="#ArialMT-65" transform="translate(583.496094 0)"/>
     <use xlink:href="#ArialMT-73" transform="translate(639.111328 0)"/>
     <use xlink:href="#ArialMT-65" transform="translate(689.111328 0)"/>
     <use xlink:href="#ArialMT-6e" transform="translate(744.726562 0)"/>
     <use xlink:href="#ArialMT-63" transform="translate(800.341797 0)"/>
     <use xlink:href="#ArialMT-68" transform="translate(850.341797 0)"/>
     <use xlink:href="#ArialMT-79" transform="translate(905.957031 0)"/>
     <use xlink:href="#ArialMT-6d" transform="translate(955.957031 0)"/>
     <use xlink:href="#ArialMT-61" transform="translate(1039.257812 0)"/>
     <use xlink:href="#ArialMT-6c" transform="translate(1094.873047 0)"/>
     <use xlink:href="#ArialMT-2d" transform="translate(1117.089844 0)"/>
     <use xlink:href="#ArialMT-66" transform="translate(1150.390625 0)"/>
     <use xlink:href="#ArialMT-69" transform="translate(1178.173828 0)"/>
     <use xlink:href="#ArialMT-62" transform="translate(1200.390625 0)"/>
     <use xlink:href="#ArialMT-72" transform="translate(1256.005859 0)"/>
     <use xlink:href="#ArialMT-6f" transform="translate(1289.306641 0)"/>
     <use xlink:href="#ArialMT-62" transform="translate(1344.921875 0)"/>
     <use xlink:href="#ArialMT-6c" transform="translate(1400.537109 0)"/>
     <use xlink:href="#ArialMT-61" transform="translate(1422.753906 0)"/>
     <use xlink:href="#ArialMT-73" transform="translate(1478.369141 0)"/>
     <use xlink:href="#ArialMT-74" transform="translate(1528.369141 0)"/>
     <use xlink:href="#ArialMT-20" transform="translate(1556.152344 0)"/>
     <use xlink:href="#ArialMT-63" transform="translate(1583.935547 0)"/>
     <use xlink:href="#ArialMT-65" transform="translate(1633.935547 0)"/>
     <use xlink:href="#ArialMT-6c" transform="translate(1689.550781 0)"/>
     <use xlink:href="#ArialMT-6c" transform="translate(1711.767578 0)"/>
     <use xlink:href="#ArialMT-73" transform="translate(1733.984375 0)"/>
     <use xlink:href="#ArialMT-20" transform="translate(1783.984375 0)"/>
     <use xlink:href="#ArialMT-70" transform="translate(1811.767578 0)"/>
     <use xlink:href="#ArialMT-65" transform="translate(1867.382812 0)"/>
     <use xlink:href="#ArialMT-72" transform="translate(1922.998047 0)"/>
     <use xlink:href="#ArialMT-20" transform="translate(1956.298828 0)"/>
     <use xlink:href="#ArialMT-73" transform="translate(1984.082031 0)"/>
     <use xlink:href="#ArialMT-61" transform="translate(2034.082031 0)"/>
     <use xlink:href="#ArialMT-6d" transform="translate(2089.697266 0)"/>
     <use xlink:href="#ArialMT-70" transform="translate(2172.998047 0)"/>
     <use xlink:href="#ArialMT-6c" transform="translate(2228.613281 0)"/>
     <use xlink:href="#ArialMT-65" transform="translate(2250.830078 0)"/>
    </g>
   </g>
  </g>
  <g id="text_37">
   <!-- H5 test — does the mesenchymal-fibroblast program resolve by D30? -->
   <g style="fill: #262626" transform="translate(495.28353 17.391562) scale(0.14 -0.14)">
    <defs>
     <path id="ArialMT-2014" d="M 0 1431 
L 0 1884 
L 6400 1884 
L 6400 1431 
L 0 1431 
z
" transform="scale(0.015625)"/>
     <path id="ArialMT-3f" d="M 1475 1128 
Q 1472 1241 1472 1297 
Q 1472 1628 1566 1869 
Q 1634 2050 1788 2234 
Q 1900 2369 2192 2626 
Q 2484 2884 2571 3037 
Q 2659 3191 2659 3372 
Q 2659 3700 2403 3948 
Q 2147 4197 1775 4197 
Q 1416 4197 1175 3972 
Q 934 3747 859 3269 
L 281 3338 
Q 359 3978 745 4318 
Q 1131 4659 1766 4659 
Q 2438 4659 2838 4293 
Q 3238 3928 3238 3409 
Q 3238 3109 3097 2856 
Q 2956 2603 2547 2241 
Q 2272 1997 2187 1881 
Q 2103 1766 2062 1616 
Q 2022 1466 2016 1128 
L 1475 1128 
z
M 1441 0 
L 1441 641 
L 2081 641 
L 2081 0 
L 1441 0 
z
" transform="scale(0.015625)"/>
    </defs>
    <use xlink:href="#ArialMT-48"/>
    <use xlink:href="#ArialMT-35" transform="translate(72.216797 0)"/>
    <use xlink:href="#ArialMT-20" transform="translate(127.832031 0)"/>
    <use xlink:href="#ArialMT-74" transform="translate(155.615234 0)"/>
    <use xlink:href="#ArialMT-65" transform="translate(183.398438 0)"/>
    <use xlink:href="#ArialMT-73" transform="translate(239.013672 0)"/>
    <use xlink:href="#ArialMT-74" transform="translate(289.013672 0)"/>
    <use xlink:href="#ArialMT-20" transform="translate(316.796875 0)"/>
    <use xlink:href="#ArialMT-2014" transform="translate(344.580078 0)"/>
    <use xlink:href="#ArialMT-20" transform="translate(444.580078 0)"/>
    <use xlink:href="#ArialMT-64" transform="translate(472.363281 0)"/>
    <use xlink:href="#ArialMT-6f" transform="translate(527.978516 0)"/>
    <use xlink:href="#ArialMT-65" transform="translate(583.59375 0)"/>
    <use xlink:href="#ArialMT-73" transform="translate(639.208984 0)"/>
    <use xlink:href="#ArialMT-20" transform="translate(689.208984 0)"/>
    <use xlink:href="#ArialMT-74" transform="translate(716.992188 0)"/>
    <use xlink:href="#ArialMT-68" transform="translate(744.775391 0)"/>
    <use xlink:href="#ArialMT-65" transform="translate(800.390625 0)"/>
    <use xlink:href="#ArialMT-20" transform="translate(856.005859 0)"/>
    <use xlink:href="#ArialMT-6d" transform="translate(883.789062 0)"/>
    <use xlink:href="#ArialMT-65" transform="translate(967.089844 0)"/>
    <use xlink:href="#ArialMT-73" transform="translate(1022.705078 0)"/>
    <use xlink:href="#ArialMT-65" transform="translate(1072.705078 0)"/>
    <use xlink:href="#ArialMT-6e" transform="translate(1128.320312 0)"/>
    <use xlink:href="#ArialMT-63" transform="translate(1183.935547 0)"/>
    <use xlink:href="#ArialMT-68" transform="translate(1233.935547 0)"/>
    <use xlink:href="#ArialMT-79" transform="translate(1289.550781 0)"/>
    <use xlink:href="#ArialMT-6d" transform="translate(1339.550781 0)"/>
    <use xlink:href="#ArialMT-61" transform="translate(1422.851562 0)"/>
    <use xlink:href="#ArialMT-6c" transform="translate(1478.466797 0)"/>
    <use xlink:href="#ArialMT-2d" transform="translate(1500.683594 0)"/>
    <use xlink:href="#ArialMT-66" transform="translate(1533.984375 0)"/>
    <use xlink:href="#ArialMT-69" transform="translate(1561.767578 0)"/>
    <use xlink:href="#ArialMT-62" transform="translate(1583.984375 0)"/>
    <use xlink:href="#ArialMT-72" transform="translate(1639.599609 0)"/>
    <use xlink:href="#ArialMT-6f" transform="translate(1672.900391 0)"/>
    <use xlink:href="#ArialMT-62" transform="translate(1728.515625 0)"/>
    <use xlink:href="#ArialMT-6c" transform="translate(1784.130859 0)"/>
    <use xlink:href="#ArialMT-61" transform="translate(1806.347656 0)"/>
    <use xlink:href="#ArialMT-73" transform="translate(1861.962891 0)"/>
    <use xlink:href="#ArialMT-74" transform="translate(1911.962891 0)"/>
    <use xlink:href="#ArialMT-20" transform="translate(1939.746094 0)"/>
    <use xlink:href="#ArialMT-70" transform="translate(1967.529297 0)"/>
    <use xlink:href="#ArialMT-72" transform="translate(2023.144531 0)"/>
    <use xlink:href="#ArialMT-6f" transform="translate(2056.445312 0)"/>
    <use xlink:href="#ArialMT-67" transform="translate(2112.060547 0)"/>
    <use xlink:href="#ArialMT-72" transform="translate(2167.675781 0)"/>
    <use xlink:href="#ArialMT-61" transform="translate(2200.976562 0)"/>
    <use xlink:href="#ArialMT-6d" transform="translate(2256.591797 0)"/>
    <use xlink:href="#ArialMT-20" transform="translate(2339.892578 0)"/>
    <use xlink:href="#ArialMT-72" transform="translate(2367.675781 0)"/>
    <use xlink:href="#ArialMT-65" transform="translate(2400.976562 0)"/>
    <use xlink:href="#ArialMT-73" transform="translate(2456.591797 0)"/>
    <use xlink:href="#ArialMT-6f" transform="translate(2506.591797 0)"/>
    <use xlink:href="#ArialMT-6c" transform="translate(2562.207031 0)"/>
    <use xlink:href="#ArialMT-76" transform="translate(2584.423828 0)"/>
    <use xlink:href="#ArialMT-65" transform="translate(2634.423828 0)"/>
    <use xlink:href="#ArialMT-20" transform="translate(2690.039062 0)"/>
    <use xlink:href="#ArialMT-62" transform="translate(2717.822266 0)"/>
    <use xlink:href="#ArialMT-79" transform="translate(2773.4375 0)"/>
    <use xlink:href="#ArialMT-20" transform="translate(2823.4375 0)"/>
    <use xlink:href="#ArialMT-44" transform="translate(2851.220703 0)"/>
    <use xlink:href="#ArialMT-33" transform="translate(2923.4375 0)"/>
    <use xlink:href="#ArialMT-30" transform="translate(2979.052734 0)"/>
    <use xlink:href="#ArialMT-3f" transform="translate(3034.667969 0)"/>
   </g>
  </g>
 </g>
 <defs>
  <clipPath id="pd4b01d1c57">
   <rect x="82.329998" y="95.701875" width="635.028" height="297.529037"/>
  </clipPath>
  <clipPath id="pe2e26bce17">
   <rect x="780.036998" y="95.701875" width="635.028" height="297.529037"/>
  </clipPath>
 </defs>
</svg>
